ISO-10303-21;
HEADER;
/* Generated by software containing ST-Developer
 * from STEP Tools, Inc. (www.steptools.com) 
 */

FILE_DESCRIPTION(
/* description */ (''),
/* implementation_level */ '2;1');

FILE_NAME(
/* name */ 'Gear_Side_support.step',
/* time_stamp */ '2026-05-16T18:23:20+02:00',
/* author */ (''),
/* organization */ (''),
/* preprocessor_version */ 'ST-DEVELOPER v20.1',
/* originating_system */ 'Autodesk Translation Framework v15.8.0.0',
/* authorisation */ '');

FILE_SCHEMA (('AUTOMOTIVE_DESIGN { 1 0 10303 214 3 1 1 }'));
ENDSEC;

DATA;
#10=MECHANICAL_DESIGN_GEOMETRIC_PRESENTATION_REPRESENTATION('',(#13),#907);
#11=SHAPE_REPRESENTATION_RELATIONSHIP('SRR','None',#914,#12);
#12=ADVANCED_BREP_SHAPE_REPRESENTATION('',(#14),#906);
#13=STYLED_ITEM('',(#923),#14);
#14=MANIFOLD_SOLID_BREP('Body2',#543);
#15=CYLINDRICAL_SURFACE('',#571,2.117);
#16=CYLINDRICAL_SURFACE('',#573,2.117);
#17=CYLINDRICAL_SURFACE('',#575,2.117);
#18=CYLINDRICAL_SURFACE('',#577,2.117);
#19=CYLINDRICAL_SURFACE('',#580,2.117);
#20=CYLINDRICAL_SURFACE('',#583,2.117);
#21=CYLINDRICAL_SURFACE('',#590,16.);
#22=CYLINDRICAL_SURFACE('',#591,2.117);
#23=CYLINDRICAL_SURFACE('',#593,12.55);
#24=CYLINDRICAL_SURFACE('',#596,30.);
#25=CYLINDRICAL_SURFACE('',#599,10.);
#26=FACE_BOUND('',#94,.T.);
#27=FACE_BOUND('',#95,.T.);
#28=FACE_BOUND('',#96,.T.);
#29=FACE_BOUND('',#97,.T.);
#30=FACE_BOUND('',#98,.T.);
#31=FACE_BOUND('',#99,.T.);
#32=FACE_BOUND('',#112,.T.);
#33=FACE_BOUND('',#113,.T.);
#34=FACE_BOUND('',#114,.T.);
#35=FACE_BOUND('',#115,.T.);
#36=FACE_BOUND('',#116,.T.);
#37=FACE_BOUND('',#117,.T.);
#38=FACE_BOUND('',#122,.T.);
#39=FACE_BOUND('',#126,.T.);
#40=FACE_BOUND('',#127,.T.);
#41=FACE_BOUND('',#130,.T.);
#42=FACE_BOUND('',#131,.T.);
#43=CIRCLE('',#559,30.);
#44=CIRCLE('',#560,2.117);
#45=CIRCLE('',#561,16.);
#46=CIRCLE('',#562,2.117);
#47=CIRCLE('',#563,2.117);
#48=CIRCLE('',#564,2.117);
#49=CIRCLE('',#565,2.117);
#50=CIRCLE('',#567,10.);
#51=CIRCLE('',#572,2.117);
#52=CIRCLE('',#574,2.117);
#53=CIRCLE('',#576,2.117);
#54=CIRCLE('',#578,2.117);
#55=CIRCLE('',#581,2.117);
#56=CIRCLE('',#582,2.117);
#57=CIRCLE('',#584,2.117);
#58=CIRCLE('',#585,2.117);
#59=CIRCLE('',#587,30.);
#60=CIRCLE('',#588,12.55);
#61=CIRCLE('',#589,16.);
#62=CIRCLE('',#592,2.117);
#63=CIRCLE('',#594,12.55);
#64=CIRCLE('',#600,10.);
#65=FACE_OUTER_BOUND('',#92,.T.);
#66=FACE_OUTER_BOUND('',#93,.T.);
#67=FACE_OUTER_BOUND('',#100,.T.);
#68=FACE_OUTER_BOUND('',#101,.T.);
#69=FACE_OUTER_BOUND('',#102,.T.);
#70=FACE_OUTER_BOUND('',#103,.T.);
#71=FACE_OUTER_BOUND('',#104,.T.);
#72=FACE_OUTER_BOUND('',#105,.T.);
#73=FACE_OUTER_BOUND('',#106,.T.);
#74=FACE_OUTER_BOUND('',#107,.T.);
#75=FACE_OUTER_BOUND('',#108,.T.);
#76=FACE_OUTER_BOUND('',#109,.T.);
#77=FACE_OUTER_BOUND('',#110,.T.);
#78=FACE_OUTER_BOUND('',#111,.T.);
#79=FACE_OUTER_BOUND('',#118,.T.);
#80=FACE_OUTER_BOUND('',#119,.T.);
#81=FACE_OUTER_BOUND('',#120,.T.);
#82=FACE_OUTER_BOUND('',#121,.T.);
#83=FACE_OUTER_BOUND('',#123,.T.);
#84=FACE_OUTER_BOUND('',#124,.T.);
#85=FACE_OUTER_BOUND('',#125,.T.);
#86=FACE_OUTER_BOUND('',#128,.T.);
#87=FACE_OUTER_BOUND('',#129,.T.);
#88=FACE_OUTER_BOUND('',#132,.T.);
#89=FACE_OUTER_BOUND('',#133,.T.);
#90=FACE_OUTER_BOUND('',#134,.T.);
#91=FACE_OUTER_BOUND('',#135,.T.);
#92=EDGE_LOOP('',(#356,#357,#358,#359));
#93=EDGE_LOOP('',(#360,#361,#362,#363,#364,#365,#366,#367,#368,#369,#370,
#371));
#94=EDGE_LOOP('',(#372));
#95=EDGE_LOOP('',(#373));
#96=EDGE_LOOP('',(#374));
#97=EDGE_LOOP('',(#375));
#98=EDGE_LOOP('',(#376));
#99=EDGE_LOOP('',(#377));
#100=EDGE_LOOP('',(#378,#379,#380,#381,#382,#383,#384));
#101=EDGE_LOOP('',(#385,#386,#387,#388));
#102=EDGE_LOOP('',(#389,#390,#391,#392));
#103=EDGE_LOOP('',(#393,#394,#395,#396));
#104=EDGE_LOOP('',(#397,#398,#399,#400));
#105=EDGE_LOOP('',(#401,#402,#403,#404));
#106=EDGE_LOOP('',(#405,#406,#407,#408));
#107=EDGE_LOOP('',(#409,#410,#411,#412));
#108=EDGE_LOOP('',(#413,#414,#415,#416));
#109=EDGE_LOOP('',(#417,#418,#419,#420));
#110=EDGE_LOOP('',(#421,#422,#423,#424));
#111=EDGE_LOOP('',(#425,#426,#427,#428));
#112=EDGE_LOOP('',(#429));
#113=EDGE_LOOP('',(#430));
#114=EDGE_LOOP('',(#431));
#115=EDGE_LOOP('',(#432));
#116=EDGE_LOOP('',(#433));
#117=EDGE_LOOP('',(#434));
#118=EDGE_LOOP('',(#435,#436,#437,#438));
#119=EDGE_LOOP('',(#439,#440,#441,#442));
#120=EDGE_LOOP('',(#443,#444,#445,#446));
#121=EDGE_LOOP('',(#447));
#122=EDGE_LOOP('',(#448));
#123=EDGE_LOOP('',(#449,#450,#451,#452));
#124=EDGE_LOOP('',(#453,#454,#455,#456));
#125=EDGE_LOOP('',(#457,#458,#459,#460));
#126=EDGE_LOOP('',(#461));
#127=EDGE_LOOP('',(#462));
#128=EDGE_LOOP('',(#463,#464,#465,#466));
#129=EDGE_LOOP('',(#467,#468,#469,#470,#471,#472,#473,#474,#475,#476,#477,
#478));
#130=EDGE_LOOP('',(#479));
#131=EDGE_LOOP('',(#480));
#132=EDGE_LOOP('',(#481,#482,#483,#484,#485,#486,#487));
#133=EDGE_LOOP('',(#488,#489,#490,#491));
#134=EDGE_LOOP('',(#492,#493,#494,#495));
#135=EDGE_LOOP('',(#496,#497,#498,#499));
#136=LINE('',#760,#186);
#137=LINE('',#762,#187);
#138=LINE('',#764,#188);
#139=LINE('',#765,#189);
#140=LINE('',#768,#190);
#141=LINE('',#770,#191);
#142=LINE('',#774,#192);
#143=LINE('',#776,#193);
#144=LINE('',#778,#194);
#145=LINE('',#780,#195);
#146=LINE('',#782,#196);
#147=LINE('',#784,#197);
#148=LINE('',#786,#198);
#149=LINE('',#787,#199);
#150=LINE('',#802,#200);
#151=LINE('',#804,#201);
#152=LINE('',#806,#202);
#153=LINE('',#810,#203);
#154=LINE('',#811,#204);
#155=LINE('',#814,#205);
#156=LINE('',#816,#206);
#157=LINE('',#817,#207);
#158=LINE('',#820,#208);
#159=LINE('',#821,#209);
#160=LINE('',#824,#210);
#161=LINE('',#825,#211);
#162=LINE('',#829,#212);
#163=LINE('',#833,#213);
#164=LINE('',#837,#214);
#165=LINE('',#841,#215);
#166=LINE('',#843,#216);
#167=LINE('',#848,#217);
#168=LINE('',#854,#218);
#169=LINE('',#858,#219);
#170=LINE('',#860,#220);
#171=LINE('',#867,#221);
#172=LINE('',#870,#222);
#173=LINE('',#874,#223);
#174=LINE('',#878,#224);
#175=LINE('',#881,#225);
#176=LINE('',#883,#226);
#177=LINE('',#884,#227);
#178=LINE('',#887,#228);
#179=LINE('',#888,#229);
#180=LINE('',#893,#230);
#181=LINE('',#894,#231);
#182=LINE('',#895,#232);
#183=LINE('',#899,#233);
#184=LINE('',#900,#234);
#185=LINE('',#902,#235);
#186=VECTOR('',#610,10.);
#187=VECTOR('',#611,10.);
#188=VECTOR('',#612,10.);
#189=VECTOR('',#613,10.);
#190=VECTOR('',#616,10.);
#191=VECTOR('',#617,10.);
#192=VECTOR('',#620,10.);
#193=VECTOR('',#621,10.);
#194=VECTOR('',#622,10.);
#195=VECTOR('',#623,10.);
#196=VECTOR('',#624,10.);
#197=VECTOR('',#625,10.);
#198=VECTOR('',#626,10.);
#199=VECTOR('',#627,10.);
#200=VECTOR('',#642,10.);
#201=VECTOR('',#643,10.);
#202=VECTOR('',#644,10.);
#203=VECTOR('',#647,10.);
#204=VECTOR('',#648,10.);
#205=VECTOR('',#651,10.);
#206=VECTOR('',#652,10.);
#207=VECTOR('',#653,10.);
#208=VECTOR('',#656,10.);
#209=VECTOR('',#657,10.);
#210=VECTOR('',#660,10.);
#211=VECTOR('',#661,10.);
#212=VECTOR('',#666,2.117);
#213=VECTOR('',#671,2.117);
#214=VECTOR('',#676,2.117);
#215=VECTOR('',#681,2.117);
#216=VECTOR('',#684,10.);
#217=VECTOR('',#689,2.117);
#218=VECTOR('',#696,2.117);
#219=VECTOR('',#701,10.);
#220=VECTOR('',#702,10.);
#221=VECTOR('',#711,16.);
#222=VECTOR('',#714,2.117);
#223=VECTOR('',#719,12.55);
#224=VECTOR('',#726,10.);
#225=VECTOR('',#729,10.);
#226=VECTOR('',#730,10.);
#227=VECTOR('',#731,10.);
#228=VECTOR('',#734,10.);
#229=VECTOR('',#735,10.);
#230=VECTOR('',#742,10.);
#231=VECTOR('',#743,10.);
#232=VECTOR('',#744,10.);
#233=VECTOR('',#749,10.);
#234=VECTOR('',#750,10.);
#235=VECTOR('',#753,10.);
#236=VERTEX_POINT('',#758);
#237=VERTEX_POINT('',#759);
#238=VERTEX_POINT('',#761);
#239=VERTEX_POINT('',#763);
#240=VERTEX_POINT('',#767);
#241=VERTEX_POINT('',#769);
#242=VERTEX_POINT('',#771);
#243=VERTEX_POINT('',#773);
#244=VERTEX_POINT('',#775);
#245=VERTEX_POINT('',#777);
#246=VERTEX_POINT('',#779);
#247=VERTEX_POINT('',#781);
#248=VERTEX_POINT('',#783);
#249=VERTEX_POINT('',#785);
#250=VERTEX_POINT('',#788);
#251=VERTEX_POINT('',#790);
#252=VERTEX_POINT('',#792);
#253=VERTEX_POINT('',#794);
#254=VERTEX_POINT('',#796);
#255=VERTEX_POINT('',#798);
#256=VERTEX_POINT('',#801);
#257=VERTEX_POINT('',#803);
#258=VERTEX_POINT('',#805);
#259=VERTEX_POINT('',#807);
#260=VERTEX_POINT('',#809);
#261=VERTEX_POINT('',#813);
#262=VERTEX_POINT('',#815);
#263=VERTEX_POINT('',#819);
#264=VERTEX_POINT('',#823);
#265=VERTEX_POINT('',#827);
#266=VERTEX_POINT('',#831);
#267=VERTEX_POINT('',#835);
#268=VERTEX_POINT('',#839);
#269=VERTEX_POINT('',#845);
#270=VERTEX_POINT('',#847);
#271=VERTEX_POINT('',#851);
#272=VERTEX_POINT('',#853);
#273=VERTEX_POINT('',#857);
#274=VERTEX_POINT('',#859);
#275=VERTEX_POINT('',#862);
#276=VERTEX_POINT('',#864);
#277=VERTEX_POINT('',#869);
#278=VERTEX_POINT('',#873);
#279=VERTEX_POINT('',#880);
#280=VERTEX_POINT('',#882);
#281=VERTEX_POINT('',#886);
#282=VERTEX_POINT('',#892);
#283=VERTEX_POINT('',#898);
#284=EDGE_CURVE('',#236,#237,#136,.T.);
#285=EDGE_CURVE('',#238,#236,#137,.T.);
#286=EDGE_CURVE('',#239,#238,#138,.T.);
#287=EDGE_CURVE('',#237,#239,#139,.T.);
#288=EDGE_CURVE('',#237,#240,#140,.T.);
#289=EDGE_CURVE('',#241,#240,#141,.T.);
#290=EDGE_CURVE('',#242,#241,#43,.T.);
#291=EDGE_CURVE('',#243,#242,#142,.T.);
#292=EDGE_CURVE('',#243,#244,#143,.T.);
#293=EDGE_CURVE('',#244,#245,#144,.T.);
#294=EDGE_CURVE('',#245,#246,#145,.T.);
#295=EDGE_CURVE('',#247,#246,#146,.T.);
#296=EDGE_CURVE('',#248,#247,#147,.T.);
#297=EDGE_CURVE('',#249,#248,#148,.T.);
#298=EDGE_CURVE('',#236,#249,#149,.T.);
#299=EDGE_CURVE('',#250,#250,#44,.T.);
#300=EDGE_CURVE('',#251,#251,#45,.T.);
#301=EDGE_CURVE('',#252,#252,#46,.T.);
#302=EDGE_CURVE('',#253,#253,#47,.T.);
#303=EDGE_CURVE('',#254,#254,#48,.T.);
#304=EDGE_CURVE('',#255,#255,#49,.T.);
#305=EDGE_CURVE('',#256,#240,#150,.F.);
#306=EDGE_CURVE('',#257,#256,#151,.F.);
#307=EDGE_CURVE('',#258,#257,#152,.F.);
#308=EDGE_CURVE('',#259,#258,#50,.F.);
#309=EDGE_CURVE('',#260,#259,#153,.T.);
#310=EDGE_CURVE('',#260,#241,#154,.T.);
#311=EDGE_CURVE('',#261,#244,#155,.T.);
#312=EDGE_CURVE('',#262,#261,#156,.T.);
#313=EDGE_CURVE('',#245,#262,#157,.T.);
#314=EDGE_CURVE('',#263,#262,#158,.T.);
#315=EDGE_CURVE('',#246,#263,#159,.T.);
#316=EDGE_CURVE('',#264,#261,#160,.T.);
#317=EDGE_CURVE('',#264,#263,#161,.T.);
#318=EDGE_CURVE('',#265,#265,#51,.T.);
#319=EDGE_CURVE('',#265,#255,#162,.T.);
#320=EDGE_CURVE('',#266,#266,#52,.T.);
#321=EDGE_CURVE('',#266,#254,#163,.T.);
#322=EDGE_CURVE('',#267,#267,#53,.T.);
#323=EDGE_CURVE('',#267,#253,#164,.T.);
#324=EDGE_CURVE('',#268,#268,#54,.T.);
#325=EDGE_CURVE('',#268,#252,#165,.T.);
#326=EDGE_CURVE('',#247,#264,#166,.T.);
#327=EDGE_CURVE('',#269,#269,#55,.T.);
#328=EDGE_CURVE('',#269,#270,#167,.T.);
#329=EDGE_CURVE('',#270,#270,#56,.T.);
#330=EDGE_CURVE('',#271,#271,#57,.T.);
#331=EDGE_CURVE('',#271,#272,#168,.T.);
#332=EDGE_CURVE('',#272,#272,#58,.T.);
#333=EDGE_CURVE('',#273,#259,#169,.T.);
#334=EDGE_CURVE('',#273,#274,#170,.T.);
#335=EDGE_CURVE('',#260,#274,#59,.F.);
#336=EDGE_CURVE('',#275,#275,#60,.T.);
#337=EDGE_CURVE('',#276,#276,#61,.T.);
#338=EDGE_CURVE('',#276,#251,#171,.T.);
#339=EDGE_CURVE('',#250,#277,#172,.T.);
#340=EDGE_CURVE('',#277,#277,#62,.T.);
#341=EDGE_CURVE('',#275,#278,#173,.T.);
#342=EDGE_CURVE('',#278,#278,#63,.T.);
#343=EDGE_CURVE('',#274,#242,#174,.T.);
#344=EDGE_CURVE('',#256,#279,#175,.T.);
#345=EDGE_CURVE('',#279,#280,#176,.F.);
#346=EDGE_CURVE('',#280,#257,#177,.T.);
#347=EDGE_CURVE('',#258,#281,#178,.T.);
#348=EDGE_CURVE('',#281,#280,#179,.T.);
#349=EDGE_CURVE('',#281,#273,#64,.F.);
#350=EDGE_CURVE('',#239,#282,#180,.T.);
#351=EDGE_CURVE('',#282,#248,#181,.T.);
#352=EDGE_CURVE('',#279,#243,#182,.T.);
#353=EDGE_CURVE('',#283,#238,#183,.T.);
#354=EDGE_CURVE('',#282,#283,#184,.T.);
#355=EDGE_CURVE('',#283,#249,#185,.F.);
#356=ORIENTED_EDGE('',*,*,#284,.F.);
#357=ORIENTED_EDGE('',*,*,#285,.F.);
#358=ORIENTED_EDGE('',*,*,#286,.F.);
#359=ORIENTED_EDGE('',*,*,#287,.F.);
#360=ORIENTED_EDGE('',*,*,#284,.T.);
#361=ORIENTED_EDGE('',*,*,#288,.T.);
#362=ORIENTED_EDGE('',*,*,#289,.F.);
#363=ORIENTED_EDGE('',*,*,#290,.F.);
#364=ORIENTED_EDGE('',*,*,#291,.F.);
#365=ORIENTED_EDGE('',*,*,#292,.T.);
#366=ORIENTED_EDGE('',*,*,#293,.T.);
#367=ORIENTED_EDGE('',*,*,#294,.T.);
#368=ORIENTED_EDGE('',*,*,#295,.F.);
#369=ORIENTED_EDGE('',*,*,#296,.F.);
#370=ORIENTED_EDGE('',*,*,#297,.F.);
#371=ORIENTED_EDGE('',*,*,#298,.F.);
#372=ORIENTED_EDGE('',*,*,#299,.F.);
#373=ORIENTED_EDGE('',*,*,#300,.F.);
#374=ORIENTED_EDGE('',*,*,#301,.T.);
#375=ORIENTED_EDGE('',*,*,#302,.T.);
#376=ORIENTED_EDGE('',*,*,#303,.T.);
#377=ORIENTED_EDGE('',*,*,#304,.T.);
#378=ORIENTED_EDGE('',*,*,#305,.F.);
#379=ORIENTED_EDGE('',*,*,#306,.F.);
#380=ORIENTED_EDGE('',*,*,#307,.F.);
#381=ORIENTED_EDGE('',*,*,#308,.F.);
#382=ORIENTED_EDGE('',*,*,#309,.F.);
#383=ORIENTED_EDGE('',*,*,#310,.T.);
#384=ORIENTED_EDGE('',*,*,#289,.T.);
#385=ORIENTED_EDGE('',*,*,#311,.F.);
#386=ORIENTED_EDGE('',*,*,#312,.F.);
#387=ORIENTED_EDGE('',*,*,#313,.F.);
#388=ORIENTED_EDGE('',*,*,#293,.F.);
#389=ORIENTED_EDGE('',*,*,#313,.T.);
#390=ORIENTED_EDGE('',*,*,#314,.F.);
#391=ORIENTED_EDGE('',*,*,#315,.F.);
#392=ORIENTED_EDGE('',*,*,#294,.F.);
#393=ORIENTED_EDGE('',*,*,#312,.T.);
#394=ORIENTED_EDGE('',*,*,#316,.F.);
#395=ORIENTED_EDGE('',*,*,#317,.T.);
#396=ORIENTED_EDGE('',*,*,#314,.T.);
#397=ORIENTED_EDGE('',*,*,#318,.F.);
#398=ORIENTED_EDGE('',*,*,#319,.T.);
#399=ORIENTED_EDGE('',*,*,#304,.F.);
#400=ORIENTED_EDGE('',*,*,#319,.F.);
#401=ORIENTED_EDGE('',*,*,#320,.F.);
#402=ORIENTED_EDGE('',*,*,#321,.T.);
#403=ORIENTED_EDGE('',*,*,#303,.F.);
#404=ORIENTED_EDGE('',*,*,#321,.F.);
#405=ORIENTED_EDGE('',*,*,#322,.F.);
#406=ORIENTED_EDGE('',*,*,#323,.T.);
#407=ORIENTED_EDGE('',*,*,#302,.F.);
#408=ORIENTED_EDGE('',*,*,#323,.F.);
#409=ORIENTED_EDGE('',*,*,#324,.F.);
#410=ORIENTED_EDGE('',*,*,#325,.T.);
#411=ORIENTED_EDGE('',*,*,#301,.F.);
#412=ORIENTED_EDGE('',*,*,#325,.F.);
#413=ORIENTED_EDGE('',*,*,#315,.T.);
#414=ORIENTED_EDGE('',*,*,#317,.F.);
#415=ORIENTED_EDGE('',*,*,#326,.F.);
#416=ORIENTED_EDGE('',*,*,#295,.T.);
#417=ORIENTED_EDGE('',*,*,#327,.F.);
#418=ORIENTED_EDGE('',*,*,#328,.T.);
#419=ORIENTED_EDGE('',*,*,#329,.F.);
#420=ORIENTED_EDGE('',*,*,#328,.F.);
#421=ORIENTED_EDGE('',*,*,#330,.F.);
#422=ORIENTED_EDGE('',*,*,#331,.T.);
#423=ORIENTED_EDGE('',*,*,#332,.F.);
#424=ORIENTED_EDGE('',*,*,#331,.F.);
#425=ORIENTED_EDGE('',*,*,#333,.F.);
#426=ORIENTED_EDGE('',*,*,#334,.T.);
#427=ORIENTED_EDGE('',*,*,#335,.F.);
#428=ORIENTED_EDGE('',*,*,#309,.T.);
#429=ORIENTED_EDGE('',*,*,#318,.T.);
#430=ORIENTED_EDGE('',*,*,#320,.T.);
#431=ORIENTED_EDGE('',*,*,#322,.T.);
#432=ORIENTED_EDGE('',*,*,#324,.T.);
#433=ORIENTED_EDGE('',*,*,#336,.T.);
#434=ORIENTED_EDGE('',*,*,#337,.T.);
#435=ORIENTED_EDGE('',*,*,#337,.F.);
#436=ORIENTED_EDGE('',*,*,#338,.T.);
#437=ORIENTED_EDGE('',*,*,#300,.T.);
#438=ORIENTED_EDGE('',*,*,#338,.F.);
#439=ORIENTED_EDGE('',*,*,#299,.T.);
#440=ORIENTED_EDGE('',*,*,#339,.T.);
#441=ORIENTED_EDGE('',*,*,#340,.F.);
#442=ORIENTED_EDGE('',*,*,#339,.F.);
#443=ORIENTED_EDGE('',*,*,#336,.F.);
#444=ORIENTED_EDGE('',*,*,#341,.T.);
#445=ORIENTED_EDGE('',*,*,#342,.T.);
#446=ORIENTED_EDGE('',*,*,#341,.F.);
#447=ORIENTED_EDGE('',*,*,#342,.F.);
#448=ORIENTED_EDGE('',*,*,#340,.T.);
#449=ORIENTED_EDGE('',*,*,#290,.T.);
#450=ORIENTED_EDGE('',*,*,#310,.F.);
#451=ORIENTED_EDGE('',*,*,#335,.T.);
#452=ORIENTED_EDGE('',*,*,#343,.T.);
#453=ORIENTED_EDGE('',*,*,#306,.T.);
#454=ORIENTED_EDGE('',*,*,#344,.T.);
#455=ORIENTED_EDGE('',*,*,#345,.T.);
#456=ORIENTED_EDGE('',*,*,#346,.T.);
#457=ORIENTED_EDGE('',*,*,#347,.F.);
#458=ORIENTED_EDGE('',*,*,#307,.T.);
#459=ORIENTED_EDGE('',*,*,#346,.F.);
#460=ORIENTED_EDGE('',*,*,#348,.F.);
#461=ORIENTED_EDGE('',*,*,#327,.T.);
#462=ORIENTED_EDGE('',*,*,#330,.T.);
#463=ORIENTED_EDGE('',*,*,#308,.T.);
#464=ORIENTED_EDGE('',*,*,#347,.T.);
#465=ORIENTED_EDGE('',*,*,#349,.T.);
#466=ORIENTED_EDGE('',*,*,#333,.T.);
#467=ORIENTED_EDGE('',*,*,#305,.T.);
#468=ORIENTED_EDGE('',*,*,#288,.F.);
#469=ORIENTED_EDGE('',*,*,#287,.T.);
#470=ORIENTED_EDGE('',*,*,#350,.T.);
#471=ORIENTED_EDGE('',*,*,#351,.T.);
#472=ORIENTED_EDGE('',*,*,#296,.T.);
#473=ORIENTED_EDGE('',*,*,#326,.T.);
#474=ORIENTED_EDGE('',*,*,#316,.T.);
#475=ORIENTED_EDGE('',*,*,#311,.T.);
#476=ORIENTED_EDGE('',*,*,#292,.F.);
#477=ORIENTED_EDGE('',*,*,#352,.F.);
#478=ORIENTED_EDGE('',*,*,#344,.F.);
#479=ORIENTED_EDGE('',*,*,#329,.T.);
#480=ORIENTED_EDGE('',*,*,#332,.T.);
#481=ORIENTED_EDGE('',*,*,#352,.T.);
#482=ORIENTED_EDGE('',*,*,#291,.T.);
#483=ORIENTED_EDGE('',*,*,#343,.F.);
#484=ORIENTED_EDGE('',*,*,#334,.F.);
#485=ORIENTED_EDGE('',*,*,#349,.F.);
#486=ORIENTED_EDGE('',*,*,#348,.T.);
#487=ORIENTED_EDGE('',*,*,#345,.F.);
#488=ORIENTED_EDGE('',*,*,#286,.T.);
#489=ORIENTED_EDGE('',*,*,#353,.F.);
#490=ORIENTED_EDGE('',*,*,#354,.F.);
#491=ORIENTED_EDGE('',*,*,#350,.F.);
#492=ORIENTED_EDGE('',*,*,#297,.T.);
#493=ORIENTED_EDGE('',*,*,#351,.F.);
#494=ORIENTED_EDGE('',*,*,#354,.T.);
#495=ORIENTED_EDGE('',*,*,#355,.T.);
#496=ORIENTED_EDGE('',*,*,#285,.T.);
#497=ORIENTED_EDGE('',*,*,#298,.T.);
#498=ORIENTED_EDGE('',*,*,#355,.F.);
#499=ORIENTED_EDGE('',*,*,#353,.T.);
#500=PLANE('',#557);
#501=PLANE('',#558);
#502=PLANE('',#566);
#503=PLANE('',#568);
#504=PLANE('',#569);
#505=PLANE('',#570);
#506=PLANE('',#579);
#507=PLANE('',#586);
#508=PLANE('',#595);
#509=PLANE('',#597);
#510=PLANE('',#598);
#511=PLANE('',#601);
#512=PLANE('',#602);
#513=PLANE('',#603);
#514=PLANE('',#604);
#515=PLANE('',#605);
#516=ADVANCED_FACE('',(#65),#500,.F.);
#517=ADVANCED_FACE('',(#66,#26,#27,#28,#29,#30,#31),#501,.T.);
#518=ADVANCED_FACE('',(#67),#502,.T.);
#519=ADVANCED_FACE('',(#68),#503,.F.);
#520=ADVANCED_FACE('',(#69),#504,.F.);
#521=ADVANCED_FACE('',(#70),#505,.T.);
#522=ADVANCED_FACE('',(#71),#15,.F.);
#523=ADVANCED_FACE('',(#72),#16,.F.);
#524=ADVANCED_FACE('',(#73),#17,.F.);
#525=ADVANCED_FACE('',(#74),#18,.F.);
#526=ADVANCED_FACE('',(#75),#506,.T.);
#527=ADVANCED_FACE('',(#76),#19,.F.);
#528=ADVANCED_FACE('',(#77),#20,.F.);
#529=ADVANCED_FACE('',(#78,#32,#33,#34,#35,#36,#37),#507,.F.);
#530=ADVANCED_FACE('',(#79),#21,.F.);
#531=ADVANCED_FACE('',(#80),#22,.F.);
#532=ADVANCED_FACE('',(#81),#23,.F.);
#533=ADVANCED_FACE('',(#82,#38),#508,.F.);
#534=ADVANCED_FACE('',(#83),#24,.T.);
#535=ADVANCED_FACE('',(#84),#509,.T.);
#536=ADVANCED_FACE('',(#85,#39,#40),#510,.T.);
#537=ADVANCED_FACE('',(#86),#25,.F.);
#538=ADVANCED_FACE('',(#87,#41,#42),#511,.T.);
#539=ADVANCED_FACE('',(#88),#512,.T.);
#540=ADVANCED_FACE('',(#89),#513,.T.);
#541=ADVANCED_FACE('',(#90),#514,.T.);
#542=ADVANCED_FACE('',(#91),#515,.T.);
#543=CLOSED_SHELL('',(#516,#517,#518,#519,#520,#521,#522,#523,#524,#525,
#526,#527,#528,#529,#530,#531,#532,#533,#534,#535,#536,#537,#538,#539,#540,
#541,#542));
#544=DERIVED_UNIT_ELEMENT(#546,1.);
#545=DERIVED_UNIT_ELEMENT(#909,-3.);
#546=(
MASS_UNIT()
NAMED_UNIT(*)
SI_UNIT(.KILO.,.GRAM.)
);
#547=DERIVED_UNIT((#544,#545));
#548=MEASURE_REPRESENTATION_ITEM('density measure',
POSITIVE_RATIO_MEASURE(7850.),#547);
#549=PROPERTY_DEFINITION_REPRESENTATION(#554,#551);
#550=PROPERTY_DEFINITION_REPRESENTATION(#555,#552);
#551=REPRESENTATION('material name',(#553),#906);
#552=REPRESENTATION('density',(#548),#906);
#553=DESCRIPTIVE_REPRESENTATION_ITEM('Steel','Steel');
#554=PROPERTY_DEFINITION('material property','material name',#916);
#555=PROPERTY_DEFINITION('material property','density of part',#916);
#556=AXIS2_PLACEMENT_3D('',#756,#606,#607);
#557=AXIS2_PLACEMENT_3D('',#757,#608,#609);
#558=AXIS2_PLACEMENT_3D('',#766,#614,#615);
#559=AXIS2_PLACEMENT_3D('',#772,#618,#619);
#560=AXIS2_PLACEMENT_3D('',#789,#628,#629);
#561=AXIS2_PLACEMENT_3D('',#791,#630,#631);
#562=AXIS2_PLACEMENT_3D('',#793,#632,#633);
#563=AXIS2_PLACEMENT_3D('',#795,#634,#635);
#564=AXIS2_PLACEMENT_3D('',#797,#636,#637);
#565=AXIS2_PLACEMENT_3D('',#799,#638,#639);
#566=AXIS2_PLACEMENT_3D('',#800,#640,#641);
#567=AXIS2_PLACEMENT_3D('',#808,#645,#646);
#568=AXIS2_PLACEMENT_3D('',#812,#649,#650);
#569=AXIS2_PLACEMENT_3D('',#818,#654,#655);
#570=AXIS2_PLACEMENT_3D('',#822,#658,#659);
#571=AXIS2_PLACEMENT_3D('',#826,#662,#663);
#572=AXIS2_PLACEMENT_3D('',#828,#664,#665);
#573=AXIS2_PLACEMENT_3D('',#830,#667,#668);
#574=AXIS2_PLACEMENT_3D('',#832,#669,#670);
#575=AXIS2_PLACEMENT_3D('',#834,#672,#673);
#576=AXIS2_PLACEMENT_3D('',#836,#674,#675);
#577=AXIS2_PLACEMENT_3D('',#838,#677,#678);
#578=AXIS2_PLACEMENT_3D('',#840,#679,#680);
#579=AXIS2_PLACEMENT_3D('',#842,#682,#683);
#580=AXIS2_PLACEMENT_3D('',#844,#685,#686);
#581=AXIS2_PLACEMENT_3D('',#846,#687,#688);
#582=AXIS2_PLACEMENT_3D('',#849,#690,#691);
#583=AXIS2_PLACEMENT_3D('',#850,#692,#693);
#584=AXIS2_PLACEMENT_3D('',#852,#694,#695);
#585=AXIS2_PLACEMENT_3D('',#855,#697,#698);
#586=AXIS2_PLACEMENT_3D('',#856,#699,#700);
#587=AXIS2_PLACEMENT_3D('',#861,#703,#704);
#588=AXIS2_PLACEMENT_3D('',#863,#705,#706);
#589=AXIS2_PLACEMENT_3D('',#865,#707,#708);
#590=AXIS2_PLACEMENT_3D('',#866,#709,#710);
#591=AXIS2_PLACEMENT_3D('',#868,#712,#713);
#592=AXIS2_PLACEMENT_3D('',#871,#715,#716);
#593=AXIS2_PLACEMENT_3D('',#872,#717,#718);
#594=AXIS2_PLACEMENT_3D('',#875,#720,#721);
#595=AXIS2_PLACEMENT_3D('',#876,#722,#723);
#596=AXIS2_PLACEMENT_3D('',#877,#724,#725);
#597=AXIS2_PLACEMENT_3D('',#879,#727,#728);
#598=AXIS2_PLACEMENT_3D('',#885,#732,#733);
#599=AXIS2_PLACEMENT_3D('',#889,#736,#737);
#600=AXIS2_PLACEMENT_3D('',#890,#738,#739);
#601=AXIS2_PLACEMENT_3D('',#891,#740,#741);
#602=AXIS2_PLACEMENT_3D('',#896,#745,#746);
#603=AXIS2_PLACEMENT_3D('',#897,#747,#748);
#604=AXIS2_PLACEMENT_3D('',#901,#751,#752);
#605=AXIS2_PLACEMENT_3D('',#903,#754,#755);
#606=DIRECTION('axis',(0.,0.,1.));
#607=DIRECTION('refdir',(1.,0.,0.));
#608=DIRECTION('center_axis',(-1.,0.,0.));
#609=DIRECTION('ref_axis',(0.,0.,1.));
#610=DIRECTION('',(0.,1.,0.));
#611=DIRECTION('',(0.,0.,1.));
#612=DIRECTION('',(0.,-1.,0.));
#613=DIRECTION('',(0.,0.,-1.));
#614=DIRECTION('center_axis',(0.,0.,1.));
#615=DIRECTION('ref_axis',(1.,0.,0.));
#616=DIRECTION('',(1.,0.,0.));
#617=DIRECTION('',(0.,-1.,0.));
#618=DIRECTION('center_axis',(0.,0.,-1.));
#619=DIRECTION('ref_axis',(1.,0.,0.));
#620=DIRECTION('',(0.,1.,0.));
#621=DIRECTION('',(1.,0.,0.));
#622=DIRECTION('',(0.,-1.,0.));
#623=DIRECTION('',(1.,0.,0.));
#624=DIRECTION('',(0.,-1.,0.));
#625=DIRECTION('',(-1.,0.,0.));
#626=DIRECTION('',(0.,1.,0.));
#627=DIRECTION('',(-1.,0.,0.));
#628=DIRECTION('center_axis',(0.,0.,1.));
#629=DIRECTION('ref_axis',(1.,0.,0.));
#630=DIRECTION('center_axis',(0.,0.,1.));
#631=DIRECTION('ref_axis',(-1.,0.,0.));
#632=DIRECTION('center_axis',(0.,0.,-1.));
#633=DIRECTION('ref_axis',(-1.,0.,0.));
#634=DIRECTION('center_axis',(0.,0.,-1.));
#635=DIRECTION('ref_axis',(-1.,0.,0.));
#636=DIRECTION('center_axis',(0.,0.,-1.));
#637=DIRECTION('ref_axis',(-1.,0.,0.));
#638=DIRECTION('center_axis',(0.,0.,-1.));
#639=DIRECTION('ref_axis',(-1.,0.,0.));
#640=DIRECTION('center_axis',(1.,0.,0.));
#641=DIRECTION('ref_axis',(0.,1.,0.));
#642=DIRECTION('',(0.,0.,-1.));
#643=DIRECTION('',(0.,1.,0.));
#644=DIRECTION('',(0.,0.,1.));
#645=DIRECTION('center_axis',(-1.,0.,0.));
#646=DIRECTION('ref_axis',(0.,-0.707106781186547,0.707106781186547));
#647=DIRECTION('',(0.,-1.,0.));
#648=DIRECTION('',(0.,0.,1.));
#649=DIRECTION('center_axis',(1.,0.,0.));
#650=DIRECTION('ref_axis',(0.,0.,-1.));
#651=DIRECTION('',(0.,0.,1.));
#652=DIRECTION('',(0.,1.,0.));
#653=DIRECTION('',(0.,0.,-1.));
#654=DIRECTION('center_axis',(0.,1.,0.));
#655=DIRECTION('ref_axis',(0.,0.,1.));
#656=DIRECTION('',(-1.,0.,0.));
#657=DIRECTION('',(0.,0.,-1.));
#658=DIRECTION('center_axis',(0.,0.,-1.));
#659=DIRECTION('ref_axis',(1.,0.,0.));
#660=DIRECTION('',(-1.,0.,0.));
#661=DIRECTION('',(0.,-1.,0.));
#662=DIRECTION('center_axis',(0.,0.,1.));
#663=DIRECTION('ref_axis',(-1.,0.,0.));
#664=DIRECTION('center_axis',(0.,0.,1.));
#665=DIRECTION('ref_axis',(-1.,0.,0.));
#666=DIRECTION('',(0.,0.,1.));
#667=DIRECTION('center_axis',(0.,0.,1.));
#668=DIRECTION('ref_axis',(-1.,0.,0.));
#669=DIRECTION('center_axis',(0.,0.,1.));
#670=DIRECTION('ref_axis',(-1.,0.,0.));
#671=DIRECTION('',(0.,0.,1.));
#672=DIRECTION('center_axis',(0.,0.,1.));
#673=DIRECTION('ref_axis',(-1.,0.,0.));
#674=DIRECTION('center_axis',(0.,0.,1.));
#675=DIRECTION('ref_axis',(-1.,0.,0.));
#676=DIRECTION('',(0.,0.,1.));
#677=DIRECTION('center_axis',(0.,0.,1.));
#678=DIRECTION('ref_axis',(-1.,0.,0.));
#679=DIRECTION('center_axis',(0.,0.,1.));
#680=DIRECTION('ref_axis',(-1.,0.,0.));
#681=DIRECTION('',(0.,0.,1.));
#682=DIRECTION('center_axis',(1.,0.,0.));
#683=DIRECTION('ref_axis',(0.,0.,1.));
#684=DIRECTION('',(0.,0.,-1.));
#685=DIRECTION('center_axis',(0.,-1.,0.));
#686=DIRECTION('ref_axis',(0.,0.,1.));
#687=DIRECTION('center_axis',(0.,-1.,0.));
#688=DIRECTION('ref_axis',(0.,0.,1.));
#689=DIRECTION('',(0.,-1.,0.));
#690=DIRECTION('center_axis',(0.,1.,0.));
#691=DIRECTION('ref_axis',(0.,0.,1.));
#692=DIRECTION('center_axis',(0.,-1.,0.));
#693=DIRECTION('ref_axis',(0.,0.,1.));
#694=DIRECTION('center_axis',(0.,-1.,0.));
#695=DIRECTION('ref_axis',(0.,0.,1.));
#696=DIRECTION('',(0.,-1.,0.));
#697=DIRECTION('center_axis',(0.,1.,0.));
#698=DIRECTION('ref_axis',(0.,0.,1.));
#699=DIRECTION('center_axis',(0.,0.,1.));
#700=DIRECTION('ref_axis',(1.,0.,0.));
#701=DIRECTION('',(1.,0.,0.));
#702=DIRECTION('',(0.,1.,0.));
#703=DIRECTION('center_axis',(0.,0.,-1.));
#704=DIRECTION('ref_axis',(1.,0.,0.));
#705=DIRECTION('center_axis',(0.,0.,1.));
#706=DIRECTION('ref_axis',(-1.,0.,0.));
#707=DIRECTION('center_axis',(0.,0.,1.));
#708=DIRECTION('ref_axis',(-1.,0.,0.));
#709=DIRECTION('center_axis',(0.,0.,1.));
#710=DIRECTION('ref_axis',(-1.,0.,0.));
#711=DIRECTION('',(0.,0.,1.));
#712=DIRECTION('center_axis',(0.,0.,-1.));
#713=DIRECTION('ref_axis',(1.,0.,0.));
#714=DIRECTION('',(0.,0.,-1.));
#715=DIRECTION('center_axis',(0.,0.,1.));
#716=DIRECTION('ref_axis',(1.,0.,0.));
#717=DIRECTION('center_axis',(0.,0.,1.));
#718=DIRECTION('ref_axis',(-1.,0.,0.));
#719=DIRECTION('',(0.,0.,1.));
#720=DIRECTION('center_axis',(0.,0.,1.));
#721=DIRECTION('ref_axis',(-1.,0.,0.));
#722=DIRECTION('center_axis',(0.,0.,1.));
#723=DIRECTION('ref_axis',(-1.,0.,0.));
#724=DIRECTION('center_axis',(0.,0.,1.));
#725=DIRECTION('ref_axis',(1.,0.,0.));
#726=DIRECTION('',(0.,0.,1.));
#727=DIRECTION('center_axis',(0.,0.,-1.));
#728=DIRECTION('ref_axis',(-1.,0.,0.));
#729=DIRECTION('',(-1.,0.,0.));
#730=DIRECTION('',(0.,-1.,0.));
#731=DIRECTION('',(1.,0.,0.));
#732=DIRECTION('center_axis',(0.,1.,0.));
#733=DIRECTION('ref_axis',(1.,0.,0.));
#734=DIRECTION('',(-1.,0.,0.));
#735=DIRECTION('',(0.,0.,-1.));
#736=DIRECTION('center_axis',(-1.,0.,0.));
#737=DIRECTION('ref_axis',(0.,-0.707106781186547,0.707106781186547));
#738=DIRECTION('center_axis',(1.,0.,0.));
#739=DIRECTION('ref_axis',(0.,-0.707106781186547,0.707106781186547));
#740=DIRECTION('center_axis',(0.,-1.,0.));
#741=DIRECTION('ref_axis',(1.,0.,0.));
#742=DIRECTION('',(-1.,0.,0.));
#743=DIRECTION('',(0.,0.,1.));
#744=DIRECTION('',(0.,0.,1.));
#745=DIRECTION('center_axis',(-1.,0.,0.));
#746=DIRECTION('ref_axis',(0.,0.,-1.));
#747=DIRECTION('center_axis',(0.,0.,-1.));
#748=DIRECTION('ref_axis',(1.,0.,0.));
#749=DIRECTION('',(1.,0.,0.));
#750=DIRECTION('',(0.,-1.,0.));
#751=DIRECTION('center_axis',(-1.,0.,0.));
#752=DIRECTION('ref_axis',(0.,0.,-1.));
#753=DIRECTION('',(0.,0.,-1.));
#754=DIRECTION('center_axis',(0.,-1.,0.));
#755=DIRECTION('ref_axis',(0.,0.,-1.));
#756=CARTESIAN_POINT('',(0.,0.,0.));
#757=CARTESIAN_POINT('Origin',(65.,25.,5.));
#758=CARTESIAN_POINT('',(65.,20.,10.));
#759=CARTESIAN_POINT('',(65.,30.,10.));
#760=CARTESIAN_POINT('',(65.,72.5,10.));
#761=CARTESIAN_POINT('',(65.,20.,0.));
#762=CARTESIAN_POINT('',(65.,20.,5.0000000372529));
#763=CARTESIAN_POINT('',(65.,30.,0.));
#764=CARTESIAN_POINT('',(65.,27.5,0.));
#765=CARTESIAN_POINT('',(65.,30.,10.));
#766=CARTESIAN_POINT('Origin',(40.,120.,10.));
#767=CARTESIAN_POINT('',(70.,30.,10.));
#768=CARTESIAN_POINT('',(55.,30.,10.));
#769=CARTESIAN_POINT('',(70.,140.,10.));
#770=CARTESIAN_POINT('',(70.0000010430813,75.,10.));
#771=CARTESIAN_POINT('',(10.,140.,10.));
#772=CARTESIAN_POINT('Origin',(40.,140.,10.));
#773=CARTESIAN_POINT('',(10.0000001490116,30.,10.0000001490116));
#774=CARTESIAN_POINT('',(10.,145.,10.));
#775=CARTESIAN_POINT('',(15.0000001490116,30.,10.0000001490116));
#776=CARTESIAN_POINT('',(25.0000000745058,30.,10.));
#777=CARTESIAN_POINT('',(15.0000001490116,20.,10.0000001490116));
#778=CARTESIAN_POINT('',(15.0000001490116,72.5,10.));
#779=CARTESIAN_POINT('',(25.000000372529,20.,10.0000001490116));
#780=CARTESIAN_POINT('',(28.7500001303852,20.,10.));
#781=CARTESIAN_POINT('',(25.000000372529,30.,10.0000001490116));
#782=CARTESIAN_POINT('',(25.000000372529,75.,10.));
#783=CARTESIAN_POINT('',(55.0000008195639,30.,10.0000001490116));
#784=CARTESIAN_POINT('',(20.,30.,10.));
#785=CARTESIAN_POINT('',(55.0000008195639,20.,10.));
#786=CARTESIAN_POINT('',(55.0000008195639,75.,10.));
#787=CARTESIAN_POINT('',(51.2500004656613,20.,10.));
#788=CARTESIAN_POINT('',(37.883,150.,10.));
#789=CARTESIAN_POINT('Origin',(40.,150.,10.));
#790=CARTESIAN_POINT('',(56.,82.,10.));
#791=CARTESIAN_POINT('Origin',(40.,82.,10.));
#792=CARTESIAN_POINT('',(57.616994308651,97.499994308651,10.));
#793=CARTESIAN_POINT('Origin',(55.499994308651,97.499994308651,10.));
#794=CARTESIAN_POINT('',(26.6170000005536,97.4999999994463,10.));
#795=CARTESIAN_POINT('Origin',(24.5000000005536,97.4999999994463,10.));
#796=CARTESIAN_POINT('',(26.616999999988,66.499999999988,10.));
#797=CARTESIAN_POINT('Origin',(24.4999999999879,66.499999999988,10.));
#798=CARTESIAN_POINT('',(57.6169999994464,66.5000000005536,10.));
#799=CARTESIAN_POINT('Origin',(55.4999999994464,66.5000000005536,10.));
#800=CARTESIAN_POINT('Origin',(70.,30.,0.));
#801=CARTESIAN_POINT('',(70.,30.,-30.));
#802=CARTESIAN_POINT('',(70.,30.,0.));
#803=CARTESIAN_POINT('',(70.,40.,-30.));
#804=CARTESIAN_POINT('',(70.,32.5,-30.));
#805=CARTESIAN_POINT('',(70.,40.,-10.));
#806=CARTESIAN_POINT('',(70.,40.,0.));
#807=CARTESIAN_POINT('',(70.,50.,0.));
#808=CARTESIAN_POINT('Origin',(70.,50.,-10.));
#809=CARTESIAN_POINT('',(70.,140.,0.));
#810=CARTESIAN_POINT('',(70.,60.,0.));
#811=CARTESIAN_POINT('',(70.,140.,0.));
#812=CARTESIAN_POINT('Origin',(15.0000001490116,25.,5.00000007450581));
#813=CARTESIAN_POINT('',(15.0000001490116,30.,0.));
#814=CARTESIAN_POINT('',(15.0000001490116,30.,10.0000001490116));
#815=CARTESIAN_POINT('',(15.0000001490116,20.,0.));
#816=CARTESIAN_POINT('',(15.0000001490116,27.5,0.));
#817=CARTESIAN_POINT('',(15.0000001490116,20.,5.00000007450581));
#818=CARTESIAN_POINT('Origin',(17.5000002607703,20.,5.00000007450581));
#819=CARTESIAN_POINT('',(25.000000372529,20.,0.));
#820=CARTESIAN_POINT('',(13.750000204891,20.,0.));
#821=CARTESIAN_POINT('',(25.000000372529,20.,2.5000000372529));
#822=CARTESIAN_POINT('Origin',(10.0000001490116,30.,0.));
#823=CARTESIAN_POINT('',(25.000000372529,30.,0.));
#824=CARTESIAN_POINT('',(5.00000007450581,30.,0.));
#825=CARTESIAN_POINT('',(25.000000372529,30.,0.));
#826=CARTESIAN_POINT('Origin',(55.4999999994464,66.5000000005536,7.5));
#827=CARTESIAN_POINT('',(57.6169999994464,66.5000000005536,0.));
#828=CARTESIAN_POINT('Origin',(55.4999999994464,66.5000000005536,0.));
#829=CARTESIAN_POINT('',(57.6169999994464,66.5000000005536,7.5));
#830=CARTESIAN_POINT('Origin',(24.4999999999879,66.499999999988,7.5));
#831=CARTESIAN_POINT('',(26.616999999988,66.499999999988,0.));
#832=CARTESIAN_POINT('Origin',(24.4999999999879,66.499999999988,0.));
#833=CARTESIAN_POINT('',(26.616999999988,66.499999999988,7.5));
#834=CARTESIAN_POINT('Origin',(24.5000000005536,97.4999999994463,7.5));
#835=CARTESIAN_POINT('',(26.6170000005536,97.4999999994463,0.));
#836=CARTESIAN_POINT('Origin',(24.5000000005536,97.4999999994463,0.));
#837=CARTESIAN_POINT('',(26.6170000005536,97.4999999994463,7.5));
#838=CARTESIAN_POINT('Origin',(55.499994308651,97.499994308651,7.5));
#839=CARTESIAN_POINT('',(57.616994308651,97.499994308651,0.));
#840=CARTESIAN_POINT('Origin',(55.499994308651,97.499994308651,0.));
#841=CARTESIAN_POINT('',(57.616994308651,97.499994308651,7.5));
#842=CARTESIAN_POINT('Origin',(25.000000372529,30.,0.));
#843=CARTESIAN_POINT('',(25.000000372529,30.,0.));
#844=CARTESIAN_POINT('Origin',(60.0000008940697,27.5,-25.000000372529));
#845=CARTESIAN_POINT('',(60.0000008940697,40.,-27.117000372529));
#846=CARTESIAN_POINT('Origin',(60.0000008940697,40.,-25.000000372529));
#847=CARTESIAN_POINT('',(60.0000008940697,30.,-27.117000372529));
#848=CARTESIAN_POINT('',(60.0000008940697,27.5,-27.117000372529));
#849=CARTESIAN_POINT('Origin',(60.0000008940697,30.,-25.000000372529));
#850=CARTESIAN_POINT('Origin',(20.0000002980232,27.5,-25.000000372529));
#851=CARTESIAN_POINT('',(20.0000002980232,40.,-27.117000372529));
#852=CARTESIAN_POINT('Origin',(20.0000002980232,40.,-25.000000372529));
#853=CARTESIAN_POINT('',(20.0000002980232,30.,-27.117000372529));
#854=CARTESIAN_POINT('',(20.0000002980232,27.5,-27.117000372529));
#855=CARTESIAN_POINT('Origin',(20.0000002980232,30.,-25.000000372529));
#856=CARTESIAN_POINT('Origin',(40.,90.,0.));
#857=CARTESIAN_POINT('',(10.,50.,0.));
#858=CARTESIAN_POINT('',(20.,50.,0.));
#859=CARTESIAN_POINT('',(10.,140.,0.));
#860=CARTESIAN_POINT('',(10.,130.,0.));
#861=CARTESIAN_POINT('Origin',(40.,140.,0.));
#862=CARTESIAN_POINT('',(52.55,150.,0.));
#863=CARTESIAN_POINT('Origin',(40.,150.,0.));
#864=CARTESIAN_POINT('',(56.,82.,0.));
#865=CARTESIAN_POINT('Origin',(40.,82.,0.));
#866=CARTESIAN_POINT('Origin',(40.,82.,19.));
#867=CARTESIAN_POINT('',(56.,82.,19.));
#868=CARTESIAN_POINT('Origin',(40.,150.,10.));
#869=CARTESIAN_POINT('',(37.883,150.,8.));
#870=CARTESIAN_POINT('',(37.883,150.,10.));
#871=CARTESIAN_POINT('Origin',(40.,150.,8.));
#872=CARTESIAN_POINT('Origin',(40.,150.,4.));
#873=CARTESIAN_POINT('',(52.55,150.,8.));
#874=CARTESIAN_POINT('',(52.55,150.,4.));
#875=CARTESIAN_POINT('Origin',(40.,150.,8.));
#876=CARTESIAN_POINT('Origin',(40.,150.,8.));
#877=CARTESIAN_POINT('Origin',(40.,140.,0.));
#878=CARTESIAN_POINT('',(10.,140.,0.));
#879=CARTESIAN_POINT('Origin',(40.,35.,-30.));
#880=CARTESIAN_POINT('',(10.,30.,-30.));
#881=CARTESIAN_POINT('',(80.,30.,-30.));
#882=CARTESIAN_POINT('',(10.,40.,-30.));
#883=CARTESIAN_POINT('',(10.,102.5,-30.));
#884=CARTESIAN_POINT('',(0.,40.,-30.));
#885=CARTESIAN_POINT('Origin',(0.,40.,0.));
#886=CARTESIAN_POINT('',(10.,40.,-10.));
#887=CARTESIAN_POINT('',(20.,40.,-10.));
#888=CARTESIAN_POINT('',(10.,40.,0.));
#889=CARTESIAN_POINT('Origin',(20.,50.,-10.));
#890=CARTESIAN_POINT('Origin',(10.,50.,-10.));
#891=CARTESIAN_POINT('Origin',(0.,30.,0.));
#892=CARTESIAN_POINT('',(55.0000008195639,30.,0.));
#893=CARTESIAN_POINT('',(27.5000004097819,30.,0.));
#894=CARTESIAN_POINT('',(55.0000008195639,30.,5.00000007450581));
#895=CARTESIAN_POINT('',(10.0000001490116,30.,5.00000007450581));
#896=CARTESIAN_POINT('Origin',(10.0000001490116,30.,10.0000001490116));
#897=CARTESIAN_POINT('Origin',(55.0000008195639,30.,0.));
#898=CARTESIAN_POINT('',(55.0000008195639,20.,0.));
#899=CARTESIAN_POINT('',(58.7500008754432,20.,0.));
#900=CARTESIAN_POINT('',(55.0000008195639,30.,0.));
#901=CARTESIAN_POINT('Origin',(55.0000008195639,30.,10.0000001490116));
#902=CARTESIAN_POINT('',(55.0000008195639,20.,7.50000011175871));
#903=CARTESIAN_POINT('Origin',(62.5000009313226,20.,5.00000007450581));
#904=UNCERTAINTY_MEASURE_WITH_UNIT(LENGTH_MEASURE(0.01),#908,
'DISTANCE_ACCURACY_VALUE',
'Maximum model space distance between geometric entities at asserted c
onnectivities');
#905=UNCERTAINTY_MEASURE_WITH_UNIT(LENGTH_MEASURE(0.01),#908,
'DISTANCE_ACCURACY_VALUE',
'Maximum model space distance between geometric entities at asserted c
onnectivities');
#906=(
GEOMETRIC_REPRESENTATION_CONTEXT(3)
GLOBAL_UNCERTAINTY_ASSIGNED_CONTEXT((#904))
GLOBAL_UNIT_ASSIGNED_CONTEXT((#908,#910,#911))
REPRESENTATION_CONTEXT('','3D')
);
#907=(
GEOMETRIC_REPRESENTATION_CONTEXT(3)
GLOBAL_UNCERTAINTY_ASSIGNED_CONTEXT((#905))
GLOBAL_UNIT_ASSIGNED_CONTEXT((#908,#910,#911))
REPRESENTATION_CONTEXT('','3D')
);
#908=(
LENGTH_UNIT()
NAMED_UNIT(*)
SI_UNIT(.MILLI.,.METRE.)
);
#909=(
LENGTH_UNIT()
NAMED_UNIT(*)
SI_UNIT($,.METRE.)
);
#910=(
NAMED_UNIT(*)
PLANE_ANGLE_UNIT()
SI_UNIT($,.RADIAN.)
);
#911=(
NAMED_UNIT(*)
SI_UNIT($,.STERADIAN.)
SOLID_ANGLE_UNIT()
);
#912=SHAPE_DEFINITION_REPRESENTATION(#913,#914);
#913=PRODUCT_DEFINITION_SHAPE('',$,#916);
#914=SHAPE_REPRESENTATION('',(#556),#906);
#915=PRODUCT_DEFINITION_CONTEXT('part definition',#920,'design');
#916=PRODUCT_DEFINITION('Gear_Side_support','Gear_Side_support v1',#917,
#915);
#917=PRODUCT_DEFINITION_FORMATION('',$,#922);
#918=PRODUCT_RELATED_PRODUCT_CATEGORY('Gear_Side_support v1',
'Gear_Side_support v1',(#922));
#919=APPLICATION_PROTOCOL_DEFINITION('international standard',
'automotive_design',2009,#920);
#920=APPLICATION_CONTEXT(
'Core Data for Automotive Mechanical Design Process');
#921=PRODUCT_CONTEXT('part definition',#920,'mechanical');
#922=PRODUCT('Gear_Side_support','Gear_Side_support v1',$,(#921));
#923=PRESENTATION_STYLE_ASSIGNMENT((#924));
#924=SURFACE_STYLE_USAGE(.BOTH.,#925);
#925=SURFACE_SIDE_STYLE('',(#926));
#926=SURFACE_STYLE_FILL_AREA(#927);
#927=FILL_AREA_STYLE('Steel - Satin',(#928));
#928=FILL_AREA_STYLE_COLOUR('Steel - Satin',#929);
#929=COLOUR_RGB('Steel - Satin',0.627450980392157,0.627450980392157,0.627450980392157);
ENDSEC;
END-ISO-10303-21;
