ISO-10303-21;
HEADER;
/* Generated by software containing ST-Developer
 * from STEP Tools, Inc. (www.steptools.com) 
 */

FILE_DESCRIPTION(
/* description */ (''),
/* implementation_level */ '2;1');

FILE_NAME(
/* name */ 'Side_Support.step',
/* time_stamp */ '2026-05-16T18:23:59+02:00',
/* author */ (''),
/* organization */ (''),
/* preprocessor_version */ 'ST-DEVELOPER v20.1',
/* originating_system */ 'Autodesk Translation Framework v15.8.0.0',
/* authorisation */ '');

FILE_SCHEMA (('AUTOMOTIVE_DESIGN { 1 0 10303 214 3 1 1 }'));
ENDSEC;

DATA;
#10=MECHANICAL_DESIGN_GEOMETRIC_PRESENTATION_REPRESENTATION('',(#13),#1358);
#11=SHAPE_REPRESENTATION_RELATIONSHIP('SRR','None',#1365,#12);
#12=ADVANCED_BREP_SHAPE_REPRESENTATION('',(#14),#1357);
#13=STYLED_ITEM('',(#1374),#14);
#14=MANIFOLD_SOLID_BREP('Body1',#832);
#15=FACE_BOUND('',#93,.T.);
#16=FACE_BOUND('',#121,.T.);
#17=FACE_BOUND('',#122,.T.);
#18=FACE_BOUND('',#126,.T.);
#19=FACE_BOUND('',#127,.T.);
#20=FACE_BOUND('',#130,.T.);
#21=FACE_BOUND('',#135,.T.);
#22=CYLINDRICAL_SURFACE('',#852,1.5);
#23=CYLINDRICAL_SURFACE('',#857,15.);
#24=CYLINDRICAL_SURFACE('',#880,2.117);
#25=CYLINDRICAL_SURFACE('',#883,2.117);
#26=CYLINDRICAL_SURFACE('',#892,10.);
#27=CYLINDRICAL_SURFACE('',#898,2.117);
#28=CYLINDRICAL_SURFACE('',#900,12.5);
#29=CYLINDRICAL_SURFACE('',#903,30.);
#30=CIRCLE('',#848,1.5);
#31=CIRCLE('',#849,10.);
#32=CIRCLE('',#850,15.);
#33=CIRCLE('',#853,1.5);
#34=CIRCLE('',#855,30.);
#35=CIRCLE('',#856,2.117);
#36=CIRCLE('',#858,15.);
#37=CIRCLE('',#881,2.117);
#38=CIRCLE('',#882,2.117);
#39=CIRCLE('',#884,2.117);
#40=CIRCLE('',#885,2.117);
#41=CIRCLE('',#893,10.);
#42=CIRCLE('',#895,30.);
#43=CIRCLE('',#896,12.5);
#44=CIRCLE('',#899,2.117);
#45=CIRCLE('',#901,12.5);
#46=FACE_OUTER_BOUND('',#88,.T.);
#47=FACE_OUTER_BOUND('',#89,.T.);
#48=FACE_OUTER_BOUND('',#90,.T.);
#49=FACE_OUTER_BOUND('',#91,.T.);
#50=FACE_OUTER_BOUND('',#92,.T.);
#51=FACE_OUTER_BOUND('',#94,.T.);
#52=FACE_OUTER_BOUND('',#95,.T.);
#53=FACE_OUTER_BOUND('',#96,.T.);
#54=FACE_OUTER_BOUND('',#97,.T.);
#55=FACE_OUTER_BOUND('',#98,.T.);
#56=FACE_OUTER_BOUND('',#99,.T.);
#57=FACE_OUTER_BOUND('',#100,.T.);
#58=FACE_OUTER_BOUND('',#101,.T.);
#59=FACE_OUTER_BOUND('',#102,.T.);
#60=FACE_OUTER_BOUND('',#103,.T.);
#61=FACE_OUTER_BOUND('',#104,.T.);
#62=FACE_OUTER_BOUND('',#105,.T.);
#63=FACE_OUTER_BOUND('',#106,.T.);
#64=FACE_OUTER_BOUND('',#107,.T.);
#65=FACE_OUTER_BOUND('',#108,.T.);
#66=FACE_OUTER_BOUND('',#109,.T.);
#67=FACE_OUTER_BOUND('',#110,.T.);
#68=FACE_OUTER_BOUND('',#111,.T.);
#69=FACE_OUTER_BOUND('',#112,.T.);
#70=FACE_OUTER_BOUND('',#113,.T.);
#71=FACE_OUTER_BOUND('',#114,.T.);
#72=FACE_OUTER_BOUND('',#115,.T.);
#73=FACE_OUTER_BOUND('',#116,.T.);
#74=FACE_OUTER_BOUND('',#117,.T.);
#75=FACE_OUTER_BOUND('',#118,.T.);
#76=FACE_OUTER_BOUND('',#119,.T.);
#77=FACE_OUTER_BOUND('',#120,.T.);
#78=FACE_OUTER_BOUND('',#123,.T.);
#79=FACE_OUTER_BOUND('',#124,.T.);
#80=FACE_OUTER_BOUND('',#125,.T.);
#81=FACE_OUTER_BOUND('',#128,.T.);
#82=FACE_OUTER_BOUND('',#129,.T.);
#83=FACE_OUTER_BOUND('',#131,.T.);
#84=FACE_OUTER_BOUND('',#132,.T.);
#85=FACE_OUTER_BOUND('',#133,.T.);
#86=FACE_OUTER_BOUND('',#134,.T.);
#87=FACE_OUTER_BOUND('',#136,.T.);
#88=EDGE_LOOP('',(#526,#527,#528,#529,#530,#531));
#89=EDGE_LOOP('',(#532,#533,#534,#535,#536,#537,#538,#539,#540,#541,#542,
#543,#544,#545,#546));
#90=EDGE_LOOP('',(#547,#548,#549,#550));
#91=EDGE_LOOP('',(#551,#552,#553,#554));
#92=EDGE_LOOP('',(#555,#556,#557,#558,#559,#560));
#93=EDGE_LOOP('',(#561));
#94=EDGE_LOOP('',(#562,#563,#564,#565));
#95=EDGE_LOOP('',(#566,#567,#568,#569,#570,#571,#572,#573));
#96=EDGE_LOOP('',(#574,#575,#576,#577,#578,#579));
#97=EDGE_LOOP('',(#580,#581,#582,#583));
#98=EDGE_LOOP('',(#584,#585,#586,#587));
#99=EDGE_LOOP('',(#588,#589,#590,#591,#592,#593,#594,#595));
#100=EDGE_LOOP('',(#596,#597,#598,#599,#600));
#101=EDGE_LOOP('',(#601,#602,#603,#604));
#102=EDGE_LOOP('',(#605,#606,#607,#608));
#103=EDGE_LOOP('',(#609,#610,#611,#612,#613,#614,#615));
#104=EDGE_LOOP('',(#616,#617,#618,#619,#620,#621));
#105=EDGE_LOOP('',(#622,#623,#624,#625));
#106=EDGE_LOOP('',(#626,#627,#628,#629,#630,#631,#632,#633,#634,#635,#636,
#637));
#107=EDGE_LOOP('',(#638,#639,#640,#641,#642,#643));
#108=EDGE_LOOP('',(#644,#645,#646,#647));
#109=EDGE_LOOP('',(#648,#649,#650,#651));
#110=EDGE_LOOP('',(#652,#653,#654,#655,#656,#657));
#111=EDGE_LOOP('',(#658,#659,#660,#661));
#112=EDGE_LOOP('',(#662,#663,#664,#665));
#113=EDGE_LOOP('',(#666,#667,#668,#669));
#114=EDGE_LOOP('',(#670,#671,#672,#673));
#115=EDGE_LOOP('',(#674,#675,#676,#677));
#116=EDGE_LOOP('',(#678,#679,#680,#681));
#117=EDGE_LOOP('',(#682,#683,#684,#685));
#118=EDGE_LOOP('',(#686,#687,#688,#689));
#119=EDGE_LOOP('',(#690,#691,#692,#693));
#120=EDGE_LOOP('',(#694,#695,#696,#697,#698,#699,#700,#701,#702,#703,#704,
#705));
#121=EDGE_LOOP('',(#706));
#122=EDGE_LOOP('',(#707));
#123=EDGE_LOOP('',(#708,#709,#710,#711));
#124=EDGE_LOOP('',(#712,#713,#714,#715));
#125=EDGE_LOOP('',(#716,#717,#718,#719));
#126=EDGE_LOOP('',(#720));
#127=EDGE_LOOP('',(#721));
#128=EDGE_LOOP('',(#722,#723,#724,#725));
#129=EDGE_LOOP('',(#726,#727,#728,#729));
#130=EDGE_LOOP('',(#730));
#131=EDGE_LOOP('',(#731,#732,#733,#734,#735,#736,#737,#738,#739,#740,#741));
#132=EDGE_LOOP('',(#742,#743,#744,#745));
#133=EDGE_LOOP('',(#746,#747,#748,#749));
#134=EDGE_LOOP('',(#750));
#135=EDGE_LOOP('',(#751));
#136=EDGE_LOOP('',(#752,#753,#754,#755));
#137=LINE('',#1125,#236);
#138=LINE('',#1127,#237);
#139=LINE('',#1129,#238);
#140=LINE('',#1131,#239);
#141=LINE('',#1133,#240);
#142=LINE('',#1134,#241);
#143=LINE('',#1137,#242);
#144=LINE('',#1139,#243);
#145=LINE('',#1143,#244);
#146=LINE('',#1145,#245);
#147=LINE('',#1147,#246);
#148=LINE('',#1151,#247);
#149=LINE('',#1153,#248);
#150=LINE('',#1155,#249);
#151=LINE('',#1157,#250);
#152=LINE('',#1161,#251);
#153=LINE('',#1162,#252);
#154=LINE('',#1165,#253);
#155=LINE('',#1166,#254);
#156=LINE('',#1170,#255);
#157=LINE('',#1173,#256);
#158=LINE('',#1175,#257);
#159=LINE('',#1177,#258);
#160=LINE('',#1185,#259);
#161=LINE('',#1186,#260);
#162=LINE('',#1189,#261);
#163=LINE('',#1191,#262);
#164=LINE('',#1193,#263);
#165=LINE('',#1195,#264);
#166=LINE('',#1197,#265);
#167=LINE('',#1198,#266);
#168=LINE('',#1202,#267);
#169=LINE('',#1204,#268);
#170=LINE('',#1206,#269);
#171=LINE('',#1208,#270);
#172=LINE('',#1210,#271);
#173=LINE('',#1211,#272);
#174=LINE('',#1215,#273);
#175=LINE('',#1216,#274);
#176=LINE('',#1217,#275);
#177=LINE('',#1220,#276);
#178=LINE('',#1221,#277);
#179=LINE('',#1223,#278);
#180=LINE('',#1225,#279);
#181=LINE('',#1226,#280);
#182=LINE('',#1229,#281);
#183=LINE('',#1231,#282);
#184=LINE('',#1232,#283);
#185=LINE('',#1234,#284);
#186=LINE('',#1235,#285);
#187=LINE('',#1238,#286);
#188=LINE('',#1239,#287);
#189=LINE('',#1242,#288);
#190=LINE('',#1243,#289);
#191=LINE('',#1246,#290);
#192=LINE('',#1247,#291);
#193=LINE('',#1249,#292);
#194=LINE('',#1252,#293);
#195=LINE('',#1254,#294);
#196=LINE('',#1256,#295);
#197=LINE('',#1258,#296);
#198=LINE('',#1260,#297);
#199=LINE('',#1262,#298);
#200=LINE('',#1264,#299);
#201=LINE('',#1266,#300);
#202=LINE('',#1268,#301);
#203=LINE('',#1269,#302);
#204=LINE('',#1271,#303);
#205=LINE('',#1272,#304);
#206=LINE('',#1275,#305);
#207=LINE('',#1279,#306);
#208=LINE('',#1281,#307);
#209=LINE('',#1282,#308);
#210=LINE('',#1285,#309);
#211=LINE('',#1287,#310);
#212=LINE('',#1288,#311);
#213=LINE('',#1290,#312);
#214=LINE('',#1293,#313);
#215=LINE('',#1295,#314);
#216=LINE('',#1296,#315);
#217=LINE('',#1299,#316);
#218=LINE('',#1300,#317);
#219=LINE('',#1305,#318);
#220=LINE('',#1311,#319);
#221=LINE('',#1316,#320);
#222=LINE('',#1317,#321);
#223=LINE('',#1318,#322);
#224=LINE('',#1320,#323);
#225=LINE('',#1322,#324);
#226=LINE('',#1324,#325);
#227=LINE('',#1325,#326);
#228=LINE('',#1327,#327);
#229=LINE('',#1331,#328);
#230=LINE('',#1332,#329);
#231=LINE('',#1336,#330);
#232=LINE('',#1340,#331);
#233=LINE('',#1344,#332);
#234=LINE('',#1347,#333);
#235=LINE('',#1351,#334);
#236=VECTOR('',#908,10.);
#237=VECTOR('',#909,10.);
#238=VECTOR('',#910,10.);
#239=VECTOR('',#911,10.);
#240=VECTOR('',#912,10.);
#241=VECTOR('',#913,10.);
#242=VECTOR('',#916,10.);
#243=VECTOR('',#917,10.);
#244=VECTOR('',#920,10.);
#245=VECTOR('',#921,10.);
#246=VECTOR('',#922,10.);
#247=VECTOR('',#925,10.);
#248=VECTOR('',#926,10.);
#249=VECTOR('',#927,10.);
#250=VECTOR('',#928,10.);
#251=VECTOR('',#931,10.);
#252=VECTOR('',#932,10.);
#253=VECTOR('',#935,10.);
#254=VECTOR('',#936,10.);
#255=VECTOR('',#941,10.);
#256=VECTOR('',#944,10.);
#257=VECTOR('',#945,10.);
#258=VECTOR('',#946,10.);
#259=VECTOR('',#955,10.);
#260=VECTOR('',#956,10.);
#261=VECTOR('',#959,10.);
#262=VECTOR('',#960,10.);
#263=VECTOR('',#961,10.);
#264=VECTOR('',#962,10.);
#265=VECTOR('',#963,10.);
#266=VECTOR('',#964,10.);
#267=VECTOR('',#967,10.);
#268=VECTOR('',#968,10.);
#269=VECTOR('',#969,10.);
#270=VECTOR('',#970,10.);
#271=VECTOR('',#971,10.);
#272=VECTOR('',#972,10.);
#273=VECTOR('',#975,10.);
#274=VECTOR('',#976,10.);
#275=VECTOR('',#977,10.);
#276=VECTOR('',#980,10.);
#277=VECTOR('',#981,10.);
#278=VECTOR('',#984,10.);
#279=VECTOR('',#985,10.);
#280=VECTOR('',#986,10.);
#281=VECTOR('',#989,10.);
#282=VECTOR('',#990,10.);
#283=VECTOR('',#991,10.);
#284=VECTOR('',#994,10.);
#285=VECTOR('',#995,10.);
#286=VECTOR('',#998,10.);
#287=VECTOR('',#999,10.);
#288=VECTOR('',#1002,10.);
#289=VECTOR('',#1003,10.);
#290=VECTOR('',#1006,10.);
#291=VECTOR('',#1007,10.);
#292=VECTOR('',#1010,10.);
#293=VECTOR('',#1013,10.);
#294=VECTOR('',#1014,10.);
#295=VECTOR('',#1015,10.);
#296=VECTOR('',#1016,10.);
#297=VECTOR('',#1017,10.);
#298=VECTOR('',#1018,10.);
#299=VECTOR('',#1019,10.);
#300=VECTOR('',#1020,10.);
#301=VECTOR('',#1021,10.);
#302=VECTOR('',#1022,10.);
#303=VECTOR('',#1025,10.);
#304=VECTOR('',#1026,10.);
#305=VECTOR('',#1031,10.);
#306=VECTOR('',#1036,10.);
#307=VECTOR('',#1037,10.);
#308=VECTOR('',#1038,10.);
#309=VECTOR('',#1041,10.);
#310=VECTOR('',#1042,10.);
#311=VECTOR('',#1043,10.);
#312=VECTOR('',#1046,10.);
#313=VECTOR('',#1049,10.);
#314=VECTOR('',#1050,10.);
#315=VECTOR('',#1051,10.);
#316=VECTOR('',#1054,10.);
#317=VECTOR('',#1055,10.);
#318=VECTOR('',#1060,2.117);
#319=VECTOR('',#1067,2.117);
#320=VECTOR('',#1072,10.);
#321=VECTOR('',#1073,10.);
#322=VECTOR('',#1074,10.);
#323=VECTOR('',#1077,10.);
#324=VECTOR('',#1080,10.);
#325=VECTOR('',#1081,10.);
#326=VECTOR('',#1082,10.);
#327=VECTOR('',#1085,10.);
#328=VECTOR('',#1090,10.);
#329=VECTOR('',#1091,10.);
#330=VECTOR('',#1096,10.);
#331=VECTOR('',#1101,10.);
#332=VECTOR('',#1106,10.);
#333=VECTOR('',#1109,2.117);
#334=VECTOR('',#1114,12.5);
#335=VERTEX_POINT('',#1123);
#336=VERTEX_POINT('',#1124);
#337=VERTEX_POINT('',#1126);
#338=VERTEX_POINT('',#1128);
#339=VERTEX_POINT('',#1130);
#340=VERTEX_POINT('',#1132);
#341=VERTEX_POINT('',#1136);
#342=VERTEX_POINT('',#1138);
#343=VERTEX_POINT('',#1140);
#344=VERTEX_POINT('',#1142);
#345=VERTEX_POINT('',#1144);
#346=VERTEX_POINT('',#1146);
#347=VERTEX_POINT('',#1148);
#348=VERTEX_POINT('',#1150);
#349=VERTEX_POINT('',#1152);
#350=VERTEX_POINT('',#1154);
#351=VERTEX_POINT('',#1156);
#352=VERTEX_POINT('',#1158);
#353=VERTEX_POINT('',#1160);
#354=VERTEX_POINT('',#1164);
#355=VERTEX_POINT('',#1168);
#356=VERTEX_POINT('',#1172);
#357=VERTEX_POINT('',#1174);
#358=VERTEX_POINT('',#1176);
#359=VERTEX_POINT('',#1179);
#360=VERTEX_POINT('',#1182);
#361=VERTEX_POINT('',#1183);
#362=VERTEX_POINT('',#1188);
#363=VERTEX_POINT('',#1190);
#364=VERTEX_POINT('',#1192);
#365=VERTEX_POINT('',#1194);
#366=VERTEX_POINT('',#1196);
#367=VERTEX_POINT('',#1200);
#368=VERTEX_POINT('',#1201);
#369=VERTEX_POINT('',#1203);
#370=VERTEX_POINT('',#1205);
#371=VERTEX_POINT('',#1207);
#372=VERTEX_POINT('',#1209);
#373=VERTEX_POINT('',#1213);
#374=VERTEX_POINT('',#1214);
#375=VERTEX_POINT('',#1219);
#376=VERTEX_POINT('',#1224);
#377=VERTEX_POINT('',#1228);
#378=VERTEX_POINT('',#1230);
#379=VERTEX_POINT('',#1237);
#380=VERTEX_POINT('',#1241);
#381=VERTEX_POINT('',#1245);
#382=VERTEX_POINT('',#1251);
#383=VERTEX_POINT('',#1253);
#384=VERTEX_POINT('',#1255);
#385=VERTEX_POINT('',#1257);
#386=VERTEX_POINT('',#1259);
#387=VERTEX_POINT('',#1261);
#388=VERTEX_POINT('',#1263);
#389=VERTEX_POINT('',#1265);
#390=VERTEX_POINT('',#1267);
#391=VERTEX_POINT('',#1278);
#392=VERTEX_POINT('',#1280);
#393=VERTEX_POINT('',#1284);
#394=VERTEX_POINT('',#1286);
#395=VERTEX_POINT('',#1292);
#396=VERTEX_POINT('',#1294);
#397=VERTEX_POINT('',#1298);
#398=VERTEX_POINT('',#1302);
#399=VERTEX_POINT('',#1304);
#400=VERTEX_POINT('',#1308);
#401=VERTEX_POINT('',#1310);
#402=VERTEX_POINT('',#1314);
#403=VERTEX_POINT('',#1315);
#404=VERTEX_POINT('',#1323);
#405=VERTEX_POINT('',#1330);
#406=VERTEX_POINT('',#1334);
#407=VERTEX_POINT('',#1338);
#408=VERTEX_POINT('',#1341);
#409=VERTEX_POINT('',#1346);
#410=VERTEX_POINT('',#1350);
#411=EDGE_CURVE('',#335,#336,#137,.T.);
#412=EDGE_CURVE('',#337,#335,#138,.T.);
#413=EDGE_CURVE('',#338,#337,#139,.T.);
#414=EDGE_CURVE('',#339,#338,#140,.T.);
#415=EDGE_CURVE('',#340,#339,#141,.T.);
#416=EDGE_CURVE('',#336,#340,#142,.T.);
#417=EDGE_CURVE('',#337,#341,#143,.T.);
#418=EDGE_CURVE('',#342,#335,#144,.T.);
#419=EDGE_CURVE('',#343,#342,#30,.T.);
#420=EDGE_CURVE('',#344,#343,#145,.F.);
#421=EDGE_CURVE('',#344,#345,#146,.T.);
#422=EDGE_CURVE('',#346,#345,#147,.F.);
#423=EDGE_CURVE('',#347,#346,#31,.F.);
#424=EDGE_CURVE('',#347,#348,#148,.T.);
#425=EDGE_CURVE('',#349,#348,#149,.F.);
#426=EDGE_CURVE('',#349,#350,#150,.T.);
#427=EDGE_CURVE('',#351,#350,#151,.F.);
#428=EDGE_CURVE('',#352,#351,#32,.T.);
#429=EDGE_CURVE('',#353,#352,#152,.T.);
#430=EDGE_CURVE('',#341,#353,#153,.T.);
#431=EDGE_CURVE('',#336,#354,#154,.T.);
#432=EDGE_CURVE('',#342,#354,#155,.T.);
#433=EDGE_CURVE('',#355,#354,#33,.T.);
#434=EDGE_CURVE('',#355,#343,#156,.T.);
#435=EDGE_CURVE('',#355,#356,#157,.T.);
#436=EDGE_CURVE('',#356,#357,#158,.T.);
#437=EDGE_CURVE('',#357,#358,#159,.F.);
#438=EDGE_CURVE('',#358,#344,#34,.F.);
#439=EDGE_CURVE('',#359,#359,#35,.T.);
#440=EDGE_CURVE('',#360,#361,#36,.F.);
#441=EDGE_CURVE('',#360,#352,#160,.T.);
#442=EDGE_CURVE('',#351,#361,#161,.T.);
#443=EDGE_CURVE('',#360,#362,#162,.T.);
#444=EDGE_CURVE('',#362,#363,#163,.T.);
#445=EDGE_CURVE('',#364,#363,#164,.T.);
#446=EDGE_CURVE('',#365,#364,#165,.T.);
#447=EDGE_CURVE('',#366,#365,#166,.T.);
#448=EDGE_CURVE('',#366,#353,#167,.T.);
#449=EDGE_CURVE('',#367,#368,#168,.T.);
#450=EDGE_CURVE('',#369,#368,#169,.T.);
#451=EDGE_CURVE('',#369,#370,#170,.T.);
#452=EDGE_CURVE('',#370,#371,#171,.T.);
#453=EDGE_CURVE('',#371,#372,#172,.T.);
#454=EDGE_CURVE('',#372,#367,#173,.F.);
#455=EDGE_CURVE('',#373,#374,#174,.T.);
#456=EDGE_CURVE('',#340,#374,#175,.T.);
#457=EDGE_CURVE('',#373,#339,#176,.T.);
#458=EDGE_CURVE('',#374,#375,#177,.T.);
#459=EDGE_CURVE('',#375,#336,#178,.T.);
#460=EDGE_CURVE('',#375,#368,#179,.T.);
#461=EDGE_CURVE('',#376,#367,#180,.T.);
#462=EDGE_CURVE('',#356,#376,#181,.T.);
#463=EDGE_CURVE('',#377,#376,#182,.T.);
#464=EDGE_CURVE('',#378,#377,#183,.T.);
#465=EDGE_CURVE('',#378,#357,#184,.T.);
#466=EDGE_CURVE('',#363,#378,#185,.T.);
#467=EDGE_CURVE('',#364,#377,#186,.T.);
#468=EDGE_CURVE('',#379,#338,#187,.T.);
#469=EDGE_CURVE('',#373,#379,#188,.T.);
#470=EDGE_CURVE('',#380,#379,#189,.T.);
#471=EDGE_CURVE('',#380,#369,#190,.T.);
#472=EDGE_CURVE('',#341,#381,#191,.T.);
#473=EDGE_CURVE('',#381,#380,#192,.T.);
#474=EDGE_CURVE('',#362,#357,#193,.F.);
#475=EDGE_CURVE('',#350,#382,#194,.T.);
#476=EDGE_CURVE('',#382,#383,#195,.T.);
#477=EDGE_CURVE('',#383,#384,#196,.T.);
#478=EDGE_CURVE('',#384,#385,#197,.F.);
#479=EDGE_CURVE('',#385,#386,#198,.F.);
#480=EDGE_CURVE('',#386,#387,#199,.F.);
#481=EDGE_CURVE('',#387,#388,#200,.T.);
#482=EDGE_CURVE('',#388,#389,#201,.T.);
#483=EDGE_CURVE('',#389,#390,#202,.T.);
#484=EDGE_CURVE('',#390,#361,#203,.F.);
#485=EDGE_CURVE('',#371,#366,#204,.T.);
#486=EDGE_CURVE('',#381,#370,#205,.T.);
#487=EDGE_CURVE('',#365,#372,#206,.T.);
#488=EDGE_CURVE('',#391,#388,#207,.T.);
#489=EDGE_CURVE('',#392,#391,#208,.T.);
#490=EDGE_CURVE('',#389,#392,#209,.T.);
#491=EDGE_CURVE('',#393,#391,#210,.T.);
#492=EDGE_CURVE('',#394,#393,#211,.T.);
#493=EDGE_CURVE('',#392,#394,#212,.T.);
#494=EDGE_CURVE('',#393,#387,#213,.F.);
#495=EDGE_CURVE('',#395,#382,#214,.T.);
#496=EDGE_CURVE('',#396,#395,#215,.T.);
#497=EDGE_CURVE('',#383,#396,#216,.T.);
#498=EDGE_CURVE('',#397,#396,#217,.T.);
#499=EDGE_CURVE('',#384,#397,#218,.T.);
#500=EDGE_CURVE('',#398,#398,#37,.T.);
#501=EDGE_CURVE('',#398,#399,#219,.T.);
#502=EDGE_CURVE('',#399,#399,#38,.T.);
#503=EDGE_CURVE('',#400,#400,#39,.T.);
#504=EDGE_CURVE('',#400,#401,#220,.T.);
#505=EDGE_CURVE('',#401,#401,#40,.T.);
#506=EDGE_CURVE('',#402,#403,#221,.F.);
#507=EDGE_CURVE('',#403,#349,#222,.T.);
#508=EDGE_CURVE('',#348,#402,#223,.T.);
#509=EDGE_CURVE('',#394,#386,#224,.T.);
#510=EDGE_CURVE('',#390,#403,#225,.T.);
#511=EDGE_CURVE('',#385,#404,#226,.T.);
#512=EDGE_CURVE('',#404,#395,#227,.T.);
#513=EDGE_CURVE('',#404,#397,#228,.T.);
#514=EDGE_CURVE('',#405,#347,#229,.T.);
#515=EDGE_CURVE('',#405,#402,#230,.F.);
#516=EDGE_CURVE('',#406,#405,#41,.F.);
#517=EDGE_CURVE('',#406,#346,#231,.T.);
#518=EDGE_CURVE('',#345,#407,#42,.F.);
#519=EDGE_CURVE('',#407,#406,#232,.F.);
#520=EDGE_CURVE('',#408,#408,#43,.T.);
#521=EDGE_CURVE('',#407,#358,#233,.T.);
#522=EDGE_CURVE('',#359,#409,#234,.T.);
#523=EDGE_CURVE('',#409,#409,#44,.T.);
#524=EDGE_CURVE('',#408,#410,#235,.T.);
#525=EDGE_CURVE('',#410,#410,#45,.T.);
#526=ORIENTED_EDGE('',*,*,#411,.F.);
#527=ORIENTED_EDGE('',*,*,#412,.F.);
#528=ORIENTED_EDGE('',*,*,#413,.F.);
#529=ORIENTED_EDGE('',*,*,#414,.F.);
#530=ORIENTED_EDGE('',*,*,#415,.F.);
#531=ORIENTED_EDGE('',*,*,#416,.F.);
#532=ORIENTED_EDGE('',*,*,#417,.F.);
#533=ORIENTED_EDGE('',*,*,#412,.T.);
#534=ORIENTED_EDGE('',*,*,#418,.F.);
#535=ORIENTED_EDGE('',*,*,#419,.F.);
#536=ORIENTED_EDGE('',*,*,#420,.F.);
#537=ORIENTED_EDGE('',*,*,#421,.T.);
#538=ORIENTED_EDGE('',*,*,#422,.F.);
#539=ORIENTED_EDGE('',*,*,#423,.F.);
#540=ORIENTED_EDGE('',*,*,#424,.T.);
#541=ORIENTED_EDGE('',*,*,#425,.F.);
#542=ORIENTED_EDGE('',*,*,#426,.T.);
#543=ORIENTED_EDGE('',*,*,#427,.F.);
#544=ORIENTED_EDGE('',*,*,#428,.F.);
#545=ORIENTED_EDGE('',*,*,#429,.F.);
#546=ORIENTED_EDGE('',*,*,#430,.F.);
#547=ORIENTED_EDGE('',*,*,#411,.T.);
#548=ORIENTED_EDGE('',*,*,#431,.T.);
#549=ORIENTED_EDGE('',*,*,#432,.F.);
#550=ORIENTED_EDGE('',*,*,#418,.T.);
#551=ORIENTED_EDGE('',*,*,#433,.F.);
#552=ORIENTED_EDGE('',*,*,#434,.T.);
#553=ORIENTED_EDGE('',*,*,#419,.T.);
#554=ORIENTED_EDGE('',*,*,#432,.T.);
#555=ORIENTED_EDGE('',*,*,#434,.F.);
#556=ORIENTED_EDGE('',*,*,#435,.T.);
#557=ORIENTED_EDGE('',*,*,#436,.T.);
#558=ORIENTED_EDGE('',*,*,#437,.T.);
#559=ORIENTED_EDGE('',*,*,#438,.T.);
#560=ORIENTED_EDGE('',*,*,#420,.T.);
#561=ORIENTED_EDGE('',*,*,#439,.T.);
#562=ORIENTED_EDGE('',*,*,#440,.F.);
#563=ORIENTED_EDGE('',*,*,#441,.T.);
#564=ORIENTED_EDGE('',*,*,#428,.T.);
#565=ORIENTED_EDGE('',*,*,#442,.T.);
#566=ORIENTED_EDGE('',*,*,#441,.F.);
#567=ORIENTED_EDGE('',*,*,#443,.T.);
#568=ORIENTED_EDGE('',*,*,#444,.T.);
#569=ORIENTED_EDGE('',*,*,#445,.F.);
#570=ORIENTED_EDGE('',*,*,#446,.F.);
#571=ORIENTED_EDGE('',*,*,#447,.F.);
#572=ORIENTED_EDGE('',*,*,#448,.T.);
#573=ORIENTED_EDGE('',*,*,#429,.T.);
#574=ORIENTED_EDGE('',*,*,#449,.T.);
#575=ORIENTED_EDGE('',*,*,#450,.F.);
#576=ORIENTED_EDGE('',*,*,#451,.T.);
#577=ORIENTED_EDGE('',*,*,#452,.T.);
#578=ORIENTED_EDGE('',*,*,#453,.T.);
#579=ORIENTED_EDGE('',*,*,#454,.T.);
#580=ORIENTED_EDGE('',*,*,#455,.T.);
#581=ORIENTED_EDGE('',*,*,#456,.F.);
#582=ORIENTED_EDGE('',*,*,#415,.T.);
#583=ORIENTED_EDGE('',*,*,#457,.F.);
#584=ORIENTED_EDGE('',*,*,#458,.T.);
#585=ORIENTED_EDGE('',*,*,#459,.T.);
#586=ORIENTED_EDGE('',*,*,#416,.T.);
#587=ORIENTED_EDGE('',*,*,#456,.T.);
#588=ORIENTED_EDGE('',*,*,#433,.T.);
#589=ORIENTED_EDGE('',*,*,#431,.F.);
#590=ORIENTED_EDGE('',*,*,#459,.F.);
#591=ORIENTED_EDGE('',*,*,#460,.T.);
#592=ORIENTED_EDGE('',*,*,#449,.F.);
#593=ORIENTED_EDGE('',*,*,#461,.F.);
#594=ORIENTED_EDGE('',*,*,#462,.F.);
#595=ORIENTED_EDGE('',*,*,#435,.F.);
#596=ORIENTED_EDGE('',*,*,#462,.T.);
#597=ORIENTED_EDGE('',*,*,#463,.F.);
#598=ORIENTED_EDGE('',*,*,#464,.F.);
#599=ORIENTED_EDGE('',*,*,#465,.T.);
#600=ORIENTED_EDGE('',*,*,#436,.F.);
#601=ORIENTED_EDGE('',*,*,#466,.T.);
#602=ORIENTED_EDGE('',*,*,#464,.T.);
#603=ORIENTED_EDGE('',*,*,#467,.F.);
#604=ORIENTED_EDGE('',*,*,#445,.T.);
#605=ORIENTED_EDGE('',*,*,#468,.F.);
#606=ORIENTED_EDGE('',*,*,#469,.F.);
#607=ORIENTED_EDGE('',*,*,#457,.T.);
#608=ORIENTED_EDGE('',*,*,#414,.T.);
#609=ORIENTED_EDGE('',*,*,#469,.T.);
#610=ORIENTED_EDGE('',*,*,#470,.F.);
#611=ORIENTED_EDGE('',*,*,#471,.T.);
#612=ORIENTED_EDGE('',*,*,#450,.T.);
#613=ORIENTED_EDGE('',*,*,#460,.F.);
#614=ORIENTED_EDGE('',*,*,#458,.F.);
#615=ORIENTED_EDGE('',*,*,#455,.F.);
#616=ORIENTED_EDGE('',*,*,#468,.T.);
#617=ORIENTED_EDGE('',*,*,#413,.T.);
#618=ORIENTED_EDGE('',*,*,#417,.T.);
#619=ORIENTED_EDGE('',*,*,#472,.T.);
#620=ORIENTED_EDGE('',*,*,#473,.T.);
#621=ORIENTED_EDGE('',*,*,#470,.T.);
#622=ORIENTED_EDGE('',*,*,#474,.T.);
#623=ORIENTED_EDGE('',*,*,#465,.F.);
#624=ORIENTED_EDGE('',*,*,#466,.F.);
#625=ORIENTED_EDGE('',*,*,#444,.F.);
#626=ORIENTED_EDGE('',*,*,#442,.F.);
#627=ORIENTED_EDGE('',*,*,#427,.T.);
#628=ORIENTED_EDGE('',*,*,#475,.T.);
#629=ORIENTED_EDGE('',*,*,#476,.T.);
#630=ORIENTED_EDGE('',*,*,#477,.T.);
#631=ORIENTED_EDGE('',*,*,#478,.T.);
#632=ORIENTED_EDGE('',*,*,#479,.T.);
#633=ORIENTED_EDGE('',*,*,#480,.T.);
#634=ORIENTED_EDGE('',*,*,#481,.T.);
#635=ORIENTED_EDGE('',*,*,#482,.T.);
#636=ORIENTED_EDGE('',*,*,#483,.T.);
#637=ORIENTED_EDGE('',*,*,#484,.T.);
#638=ORIENTED_EDGE('',*,*,#472,.F.);
#639=ORIENTED_EDGE('',*,*,#430,.T.);
#640=ORIENTED_EDGE('',*,*,#448,.F.);
#641=ORIENTED_EDGE('',*,*,#485,.F.);
#642=ORIENTED_EDGE('',*,*,#452,.F.);
#643=ORIENTED_EDGE('',*,*,#486,.F.);
#644=ORIENTED_EDGE('',*,*,#486,.T.);
#645=ORIENTED_EDGE('',*,*,#451,.F.);
#646=ORIENTED_EDGE('',*,*,#471,.F.);
#647=ORIENTED_EDGE('',*,*,#473,.F.);
#648=ORIENTED_EDGE('',*,*,#485,.T.);
#649=ORIENTED_EDGE('',*,*,#447,.T.);
#650=ORIENTED_EDGE('',*,*,#487,.T.);
#651=ORIENTED_EDGE('',*,*,#453,.F.);
#652=ORIENTED_EDGE('',*,*,#487,.F.);
#653=ORIENTED_EDGE('',*,*,#446,.T.);
#654=ORIENTED_EDGE('',*,*,#467,.T.);
#655=ORIENTED_EDGE('',*,*,#463,.T.);
#656=ORIENTED_EDGE('',*,*,#461,.T.);
#657=ORIENTED_EDGE('',*,*,#454,.F.);
#658=ORIENTED_EDGE('',*,*,#482,.F.);
#659=ORIENTED_EDGE('',*,*,#488,.F.);
#660=ORIENTED_EDGE('',*,*,#489,.F.);
#661=ORIENTED_EDGE('',*,*,#490,.F.);
#662=ORIENTED_EDGE('',*,*,#489,.T.);
#663=ORIENTED_EDGE('',*,*,#491,.F.);
#664=ORIENTED_EDGE('',*,*,#492,.F.);
#665=ORIENTED_EDGE('',*,*,#493,.F.);
#666=ORIENTED_EDGE('',*,*,#488,.T.);
#667=ORIENTED_EDGE('',*,*,#481,.F.);
#668=ORIENTED_EDGE('',*,*,#494,.F.);
#669=ORIENTED_EDGE('',*,*,#491,.T.);
#670=ORIENTED_EDGE('',*,*,#495,.F.);
#671=ORIENTED_EDGE('',*,*,#496,.F.);
#672=ORIENTED_EDGE('',*,*,#497,.F.);
#673=ORIENTED_EDGE('',*,*,#476,.F.);
#674=ORIENTED_EDGE('',*,*,#497,.T.);
#675=ORIENTED_EDGE('',*,*,#498,.F.);
#676=ORIENTED_EDGE('',*,*,#499,.F.);
#677=ORIENTED_EDGE('',*,*,#477,.F.);
#678=ORIENTED_EDGE('',*,*,#500,.F.);
#679=ORIENTED_EDGE('',*,*,#501,.T.);
#680=ORIENTED_EDGE('',*,*,#502,.F.);
#681=ORIENTED_EDGE('',*,*,#501,.F.);
#682=ORIENTED_EDGE('',*,*,#503,.F.);
#683=ORIENTED_EDGE('',*,*,#504,.T.);
#684=ORIENTED_EDGE('',*,*,#505,.F.);
#685=ORIENTED_EDGE('',*,*,#504,.F.);
#686=ORIENTED_EDGE('',*,*,#506,.T.);
#687=ORIENTED_EDGE('',*,*,#507,.T.);
#688=ORIENTED_EDGE('',*,*,#425,.T.);
#689=ORIENTED_EDGE('',*,*,#508,.T.);
#690=ORIENTED_EDGE('',*,*,#509,.F.);
#691=ORIENTED_EDGE('',*,*,#492,.T.);
#692=ORIENTED_EDGE('',*,*,#494,.T.);
#693=ORIENTED_EDGE('',*,*,#480,.F.);
#694=ORIENTED_EDGE('',*,*,#510,.F.);
#695=ORIENTED_EDGE('',*,*,#483,.F.);
#696=ORIENTED_EDGE('',*,*,#490,.T.);
#697=ORIENTED_EDGE('',*,*,#493,.T.);
#698=ORIENTED_EDGE('',*,*,#509,.T.);
#699=ORIENTED_EDGE('',*,*,#479,.F.);
#700=ORIENTED_EDGE('',*,*,#511,.T.);
#701=ORIENTED_EDGE('',*,*,#512,.T.);
#702=ORIENTED_EDGE('',*,*,#495,.T.);
#703=ORIENTED_EDGE('',*,*,#475,.F.);
#704=ORIENTED_EDGE('',*,*,#426,.F.);
#705=ORIENTED_EDGE('',*,*,#507,.F.);
#706=ORIENTED_EDGE('',*,*,#502,.T.);
#707=ORIENTED_EDGE('',*,*,#505,.T.);
#708=ORIENTED_EDGE('',*,*,#496,.T.);
#709=ORIENTED_EDGE('',*,*,#512,.F.);
#710=ORIENTED_EDGE('',*,*,#513,.T.);
#711=ORIENTED_EDGE('',*,*,#498,.T.);
#712=ORIENTED_EDGE('',*,*,#499,.T.);
#713=ORIENTED_EDGE('',*,*,#513,.F.);
#714=ORIENTED_EDGE('',*,*,#511,.F.);
#715=ORIENTED_EDGE('',*,*,#478,.F.);
#716=ORIENTED_EDGE('',*,*,#514,.F.);
#717=ORIENTED_EDGE('',*,*,#515,.T.);
#718=ORIENTED_EDGE('',*,*,#508,.F.);
#719=ORIENTED_EDGE('',*,*,#424,.F.);
#720=ORIENTED_EDGE('',*,*,#500,.T.);
#721=ORIENTED_EDGE('',*,*,#503,.T.);
#722=ORIENTED_EDGE('',*,*,#516,.T.);
#723=ORIENTED_EDGE('',*,*,#514,.T.);
#724=ORIENTED_EDGE('',*,*,#423,.T.);
#725=ORIENTED_EDGE('',*,*,#517,.F.);
#726=ORIENTED_EDGE('',*,*,#517,.T.);
#727=ORIENTED_EDGE('',*,*,#422,.T.);
#728=ORIENTED_EDGE('',*,*,#518,.T.);
#729=ORIENTED_EDGE('',*,*,#519,.T.);
#730=ORIENTED_EDGE('',*,*,#520,.T.);
#731=ORIENTED_EDGE('',*,*,#510,.T.);
#732=ORIENTED_EDGE('',*,*,#506,.F.);
#733=ORIENTED_EDGE('',*,*,#515,.F.);
#734=ORIENTED_EDGE('',*,*,#516,.F.);
#735=ORIENTED_EDGE('',*,*,#519,.F.);
#736=ORIENTED_EDGE('',*,*,#521,.T.);
#737=ORIENTED_EDGE('',*,*,#437,.F.);
#738=ORIENTED_EDGE('',*,*,#474,.F.);
#739=ORIENTED_EDGE('',*,*,#443,.F.);
#740=ORIENTED_EDGE('',*,*,#440,.T.);
#741=ORIENTED_EDGE('',*,*,#484,.F.);
#742=ORIENTED_EDGE('',*,*,#439,.F.);
#743=ORIENTED_EDGE('',*,*,#522,.T.);
#744=ORIENTED_EDGE('',*,*,#523,.F.);
#745=ORIENTED_EDGE('',*,*,#522,.F.);
#746=ORIENTED_EDGE('',*,*,#520,.F.);
#747=ORIENTED_EDGE('',*,*,#524,.T.);
#748=ORIENTED_EDGE('',*,*,#525,.T.);
#749=ORIENTED_EDGE('',*,*,#524,.F.);
#750=ORIENTED_EDGE('',*,*,#525,.F.);
#751=ORIENTED_EDGE('',*,*,#523,.T.);
#752=ORIENTED_EDGE('',*,*,#518,.F.);
#753=ORIENTED_EDGE('',*,*,#421,.F.);
#754=ORIENTED_EDGE('',*,*,#438,.F.);
#755=ORIENTED_EDGE('',*,*,#521,.F.);
#756=PLANE('',#846);
#757=PLANE('',#847);
#758=PLANE('',#851);
#759=PLANE('',#854);
#760=PLANE('',#859);
#761=PLANE('',#860);
#762=PLANE('',#861);
#763=PLANE('',#862);
#764=PLANE('',#863);
#765=PLANE('',#864);
#766=PLANE('',#865);
#767=PLANE('',#866);
#768=PLANE('',#867);
#769=PLANE('',#868);
#770=PLANE('',#869);
#771=PLANE('',#870);
#772=PLANE('',#871);
#773=PLANE('',#872);
#774=PLANE('',#873);
#775=PLANE('',#874);
#776=PLANE('',#875);
#777=PLANE('',#876);
#778=PLANE('',#877);
#779=PLANE('',#878);
#780=PLANE('',#879);
#781=PLANE('',#886);
#782=PLANE('',#887);
#783=PLANE('',#888);
#784=PLANE('',#889);
#785=PLANE('',#890);
#786=PLANE('',#891);
#787=PLANE('',#894);
#788=PLANE('',#897);
#789=PLANE('',#902);
#790=ADVANCED_FACE('',(#46),#756,.F.);
#791=ADVANCED_FACE('',(#47),#757,.T.);
#792=ADVANCED_FACE('',(#48),#758,.T.);
#793=ADVANCED_FACE('',(#49),#22,.F.);
#794=ADVANCED_FACE('',(#50,#15),#759,.F.);
#795=ADVANCED_FACE('',(#51),#23,.F.);
#796=ADVANCED_FACE('',(#52),#760,.T.);
#797=ADVANCED_FACE('',(#53),#761,.T.);
#798=ADVANCED_FACE('',(#54),#762,.T.);
#799=ADVANCED_FACE('',(#55),#763,.T.);
#800=ADVANCED_FACE('',(#56),#764,.T.);
#801=ADVANCED_FACE('',(#57),#765,.T.);
#802=ADVANCED_FACE('',(#58),#766,.T.);
#803=ADVANCED_FACE('',(#59),#767,.T.);
#804=ADVANCED_FACE('',(#60),#768,.T.);
#805=ADVANCED_FACE('',(#61),#769,.T.);
#806=ADVANCED_FACE('',(#62),#770,.T.);
#807=ADVANCED_FACE('',(#63),#771,.F.);
#808=ADVANCED_FACE('',(#64),#772,.F.);
#809=ADVANCED_FACE('',(#65),#773,.T.);
#810=ADVANCED_FACE('',(#66),#774,.T.);
#811=ADVANCED_FACE('',(#67),#775,.T.);
#812=ADVANCED_FACE('',(#68),#776,.F.);
#813=ADVANCED_FACE('',(#69),#777,.T.);
#814=ADVANCED_FACE('',(#70),#778,.T.);
#815=ADVANCED_FACE('',(#71),#779,.F.);
#816=ADVANCED_FACE('',(#72),#780,.F.);
#817=ADVANCED_FACE('',(#73),#24,.F.);
#818=ADVANCED_FACE('',(#74),#25,.F.);
#819=ADVANCED_FACE('',(#75),#781,.T.);
#820=ADVANCED_FACE('',(#76),#782,.T.);
#821=ADVANCED_FACE('',(#77,#16,#17),#783,.T.);
#822=ADVANCED_FACE('',(#78),#784,.T.);
#823=ADVANCED_FACE('',(#79),#785,.T.);
#824=ADVANCED_FACE('',(#80,#18,#19),#786,.T.);
#825=ADVANCED_FACE('',(#81),#26,.F.);
#826=ADVANCED_FACE('',(#82,#20),#787,.T.);
#827=ADVANCED_FACE('',(#83),#788,.T.);
#828=ADVANCED_FACE('',(#84),#27,.F.);
#829=ADVANCED_FACE('',(#85),#28,.F.);
#830=ADVANCED_FACE('',(#86,#21),#789,.F.);
#831=ADVANCED_FACE('',(#87),#29,.T.);
#832=CLOSED_SHELL('',(#790,#791,#792,#793,#794,#795,#796,#797,#798,#799,
#800,#801,#802,#803,#804,#805,#806,#807,#808,#809,#810,#811,#812,#813,#814,
#815,#816,#817,#818,#819,#820,#821,#822,#823,#824,#825,#826,#827,#828,#829,
#830,#831));
#833=DERIVED_UNIT_ELEMENT(#835,1.);
#834=DERIVED_UNIT_ELEMENT(#1360,-3.);
#835=(
MASS_UNIT()
NAMED_UNIT(*)
SI_UNIT(.KILO.,.GRAM.)
);
#836=DERIVED_UNIT((#833,#834));
#837=MEASURE_REPRESENTATION_ITEM('density measure',
POSITIVE_RATIO_MEASURE(7850.),#836);
#838=PROPERTY_DEFINITION_REPRESENTATION(#843,#840);
#839=PROPERTY_DEFINITION_REPRESENTATION(#844,#841);
#840=REPRESENTATION('material name',(#842),#1357);
#841=REPRESENTATION('density',(#837),#1357);
#842=DESCRIPTIVE_REPRESENTATION_ITEM('Steel','Steel');
#843=PROPERTY_DEFINITION('material property','material name',#1367);
#844=PROPERTY_DEFINITION('material property','density of part',#1367);
#845=AXIS2_PLACEMENT_3D('',#1121,#904,#905);
#846=AXIS2_PLACEMENT_3D('',#1122,#906,#907);
#847=AXIS2_PLACEMENT_3D('',#1135,#914,#915);
#848=AXIS2_PLACEMENT_3D('',#1141,#918,#919);
#849=AXIS2_PLACEMENT_3D('',#1149,#923,#924);
#850=AXIS2_PLACEMENT_3D('',#1159,#929,#930);
#851=AXIS2_PLACEMENT_3D('',#1163,#933,#934);
#852=AXIS2_PLACEMENT_3D('',#1167,#937,#938);
#853=AXIS2_PLACEMENT_3D('',#1169,#939,#940);
#854=AXIS2_PLACEMENT_3D('',#1171,#942,#943);
#855=AXIS2_PLACEMENT_3D('',#1178,#947,#948);
#856=AXIS2_PLACEMENT_3D('',#1180,#949,#950);
#857=AXIS2_PLACEMENT_3D('',#1181,#951,#952);
#858=AXIS2_PLACEMENT_3D('',#1184,#953,#954);
#859=AXIS2_PLACEMENT_3D('',#1187,#957,#958);
#860=AXIS2_PLACEMENT_3D('',#1199,#965,#966);
#861=AXIS2_PLACEMENT_3D('',#1212,#973,#974);
#862=AXIS2_PLACEMENT_3D('',#1218,#978,#979);
#863=AXIS2_PLACEMENT_3D('',#1222,#982,#983);
#864=AXIS2_PLACEMENT_3D('',#1227,#987,#988);
#865=AXIS2_PLACEMENT_3D('',#1233,#992,#993);
#866=AXIS2_PLACEMENT_3D('',#1236,#996,#997);
#867=AXIS2_PLACEMENT_3D('',#1240,#1000,#1001);
#868=AXIS2_PLACEMENT_3D('',#1244,#1004,#1005);
#869=AXIS2_PLACEMENT_3D('',#1248,#1008,#1009);
#870=AXIS2_PLACEMENT_3D('',#1250,#1011,#1012);
#871=AXIS2_PLACEMENT_3D('',#1270,#1023,#1024);
#872=AXIS2_PLACEMENT_3D('',#1273,#1027,#1028);
#873=AXIS2_PLACEMENT_3D('',#1274,#1029,#1030);
#874=AXIS2_PLACEMENT_3D('',#1276,#1032,#1033);
#875=AXIS2_PLACEMENT_3D('',#1277,#1034,#1035);
#876=AXIS2_PLACEMENT_3D('',#1283,#1039,#1040);
#877=AXIS2_PLACEMENT_3D('',#1289,#1044,#1045);
#878=AXIS2_PLACEMENT_3D('',#1291,#1047,#1048);
#879=AXIS2_PLACEMENT_3D('',#1297,#1052,#1053);
#880=AXIS2_PLACEMENT_3D('',#1301,#1056,#1057);
#881=AXIS2_PLACEMENT_3D('',#1303,#1058,#1059);
#882=AXIS2_PLACEMENT_3D('',#1306,#1061,#1062);
#883=AXIS2_PLACEMENT_3D('',#1307,#1063,#1064);
#884=AXIS2_PLACEMENT_3D('',#1309,#1065,#1066);
#885=AXIS2_PLACEMENT_3D('',#1312,#1068,#1069);
#886=AXIS2_PLACEMENT_3D('',#1313,#1070,#1071);
#887=AXIS2_PLACEMENT_3D('',#1319,#1075,#1076);
#888=AXIS2_PLACEMENT_3D('',#1321,#1078,#1079);
#889=AXIS2_PLACEMENT_3D('',#1326,#1083,#1084);
#890=AXIS2_PLACEMENT_3D('',#1328,#1086,#1087);
#891=AXIS2_PLACEMENT_3D('',#1329,#1088,#1089);
#892=AXIS2_PLACEMENT_3D('',#1333,#1092,#1093);
#893=AXIS2_PLACEMENT_3D('',#1335,#1094,#1095);
#894=AXIS2_PLACEMENT_3D('',#1337,#1097,#1098);
#895=AXIS2_PLACEMENT_3D('',#1339,#1099,#1100);
#896=AXIS2_PLACEMENT_3D('',#1342,#1102,#1103);
#897=AXIS2_PLACEMENT_3D('',#1343,#1104,#1105);
#898=AXIS2_PLACEMENT_3D('',#1345,#1107,#1108);
#899=AXIS2_PLACEMENT_3D('',#1348,#1110,#1111);
#900=AXIS2_PLACEMENT_3D('',#1349,#1112,#1113);
#901=AXIS2_PLACEMENT_3D('',#1352,#1115,#1116);
#902=AXIS2_PLACEMENT_3D('',#1353,#1117,#1118);
#903=AXIS2_PLACEMENT_3D('',#1354,#1119,#1120);
#904=DIRECTION('axis',(0.,0.,1.));
#905=DIRECTION('refdir',(1.,0.,0.));
#906=DIRECTION('center_axis',(0.,0.,1.));
#907=DIRECTION('ref_axis',(1.,0.,0.));
#908=DIRECTION('',(-1.,0.,0.));
#909=DIRECTION('',(0.,1.,0.));
#910=DIRECTION('',(1.,0.,0.));
#911=DIRECTION('',(0.,-1.,0.));
#912=DIRECTION('',(1.03961587322738E-9,-1.,0.));
#913=DIRECTION('',(-1.,0.,0.));
#914=DIRECTION('center_axis',(1.,0.,0.));
#915=DIRECTION('ref_axis',(0.,0.,1.));
#916=DIRECTION('',(0.,0.,-1.));
#917=DIRECTION('',(0.,0.,-1.));
#918=DIRECTION('center_axis',(1.,0.,0.));
#919=DIRECTION('ref_axis',(0.,-0.707106781186553,0.707106781186543));
#920=DIRECTION('',(0.,1.,0.));
#921=DIRECTION('',(0.,0.,1.));
#922=DIRECTION('',(0.,-1.,0.));
#923=DIRECTION('center_axis',(-1.,0.,0.));
#924=DIRECTION('ref_axis',(0.,-0.707106781186547,-0.707106781186547));
#925=DIRECTION('',(0.,0.,1.));
#926=DIRECTION('',(0.,-1.,0.));
#927=DIRECTION('',(0.,0.,-1.));
#928=DIRECTION('',(0.,1.,0.));
#929=DIRECTION('center_axis',(1.,0.,0.));
#930=DIRECTION('ref_axis',(0.,0.707106781186547,0.707106781186547));
#931=DIRECTION('',(0.,0.,1.));
#932=DIRECTION('',(0.,-0.999999999999999,-4.4703483248476E-8));
#933=DIRECTION('center_axis',(0.,1.,0.));
#934=DIRECTION('ref_axis',(0.,0.,1.));
#935=DIRECTION('',(0.,0.,1.));
#936=DIRECTION('',(-1.,0.,0.));
#937=DIRECTION('center_axis',(-1.,0.,0.));
#938=DIRECTION('ref_axis',(0.,-0.707106781186553,0.707106781186543));
#939=DIRECTION('center_axis',(1.,0.,0.));
#940=DIRECTION('ref_axis',(0.,-0.707106781186553,0.707106781186543));
#941=DIRECTION('',(1.,0.,0.));
#942=DIRECTION('center_axis',(0.,0.,1.));
#943=DIRECTION('ref_axis',(1.,0.,0.));
#944=DIRECTION('',(0.,1.,0.));
#945=DIRECTION('',(-1.,0.,0.));
#946=DIRECTION('',(0.,-1.,0.));
#947=DIRECTION('center_axis',(0.,0.,1.));
#948=DIRECTION('ref_axis',(-1.,0.,0.));
#949=DIRECTION('center_axis',(0.,0.,1.));
#950=DIRECTION('ref_axis',(-1.,0.,0.));
#951=DIRECTION('center_axis',(1.,0.,0.));
#952=DIRECTION('ref_axis',(0.,0.707106781186547,0.707106781186547));
#953=DIRECTION('center_axis',(-1.,0.,0.));
#954=DIRECTION('ref_axis',(0.,0.707106781186547,0.707106781186547));
#955=DIRECTION('',(1.,0.,0.));
#956=DIRECTION('',(-1.,0.,0.));
#957=DIRECTION('center_axis',(0.,-1.,0.));
#958=DIRECTION('ref_axis',(-1.,0.,0.));
#959=DIRECTION('',(0.,0.,1.));
#960=DIRECTION('',(-1.,0.,0.));
#961=DIRECTION('',(0.,0.,1.));
#962=DIRECTION('',(-1.,0.,0.));
#963=DIRECTION('',(0.,0.,-1.));
#964=DIRECTION('',(-1.,0.,0.));
#965=DIRECTION('center_axis',(0.,1.,0.));
#966=DIRECTION('ref_axis',(0.,0.,1.));
#967=DIRECTION('',(0.,0.,1.));
#968=DIRECTION('',(-1.,0.,0.));
#969=DIRECTION('',(0.,0.,1.));
#970=DIRECTION('',(1.,0.,0.));
#971=DIRECTION('',(0.,0.,-1.));
#972=DIRECTION('',(1.,0.,0.));
#973=DIRECTION('center_axis',(1.,1.03961587322738E-9,0.));
#974=DIRECTION('ref_axis',(1.03961587322738E-9,-1.,0.));
#975=DIRECTION('',(-1.03961587322738E-9,1.,0.));
#976=DIRECTION('',(0.,0.,-1.));
#977=DIRECTION('',(0.,0.,1.));
#978=DIRECTION('center_axis',(0.,-1.,0.));
#979=DIRECTION('ref_axis',(-1.,0.,0.));
#980=DIRECTION('',(1.,0.,0.));
#981=DIRECTION('',(0.,0.,1.));
#982=DIRECTION('center_axis',(1.,0.,0.));
#983=DIRECTION('ref_axis',(0.,0.,-1.));
#984=DIRECTION('',(0.,-1.,0.));
#985=DIRECTION('',(0.,-1.,0.));
#986=DIRECTION('',(0.,0.,-1.));
#987=DIRECTION('center_axis',(0.,1.,0.));
#988=DIRECTION('ref_axis',(0.,0.,1.));
#989=DIRECTION('',(1.,0.,0.));
#990=DIRECTION('',(0.,0.,-1.));
#991=DIRECTION('',(1.,0.,0.));
#992=DIRECTION('center_axis',(-1.,0.,0.));
#993=DIRECTION('ref_axis',(0.,0.,1.));
#994=DIRECTION('',(0.,1.,0.));
#995=DIRECTION('',(4.18952080288188E-17,1.,0.));
#996=DIRECTION('center_axis',(1.,0.,0.));
#997=DIRECTION('ref_axis',(0.,0.,-1.));
#998=DIRECTION('',(0.,0.,1.));
#999=DIRECTION('',(0.,-1.,0.));
#1000=DIRECTION('center_axis',(0.,0.,1.));
#1001=DIRECTION('ref_axis',(1.,0.,0.));
#1002=DIRECTION('',(-1.,0.,0.));
#1003=DIRECTION('',(0.,1.,0.));
#1004=DIRECTION('center_axis',(0.,1.,0.));
#1005=DIRECTION('ref_axis',(1.,0.,0.));
#1006=DIRECTION('',(1.,0.,0.));
#1007=DIRECTION('',(0.,0.,-1.));
#1008=DIRECTION('center_axis',(0.,0.,1.));
#1009=DIRECTION('ref_axis',(0.,1.,0.));
#1010=DIRECTION('',(0.,-1.,0.));
#1011=DIRECTION('center_axis',(0.,0.,1.));
#1012=DIRECTION('ref_axis',(1.,0.,0.));
#1013=DIRECTION('',(-1.,0.,0.));
#1014=DIRECTION('',(0.,-1.,0.));
#1015=DIRECTION('',(-1.,0.,0.));
#1016=DIRECTION('',(0.,-1.,0.));
#1017=DIRECTION('',(1.,0.,0.));
#1018=DIRECTION('',(0.,1.,0.));
#1019=DIRECTION('',(-1.,0.,0.));
#1020=DIRECTION('',(0.,1.,0.));
#1021=DIRECTION('',(-1.,0.,0.));
#1022=DIRECTION('',(0.,-1.,0.));
#1023=DIRECTION('center_axis',(0.,4.4703483248476E-8,-0.999999999999999));
#1024=DIRECTION('ref_axis',(0.,-0.999999999999999,-4.4703483248476E-8));
#1025=DIRECTION('',(0.,-0.999999999999999,-4.4703483248476E-8));
#1026=DIRECTION('',(0.,0.999999999999999,4.4703483248476E-8));
#1027=DIRECTION('center_axis',(-1.,0.,0.));
#1028=DIRECTION('ref_axis',(0.,0.,1.));
#1029=DIRECTION('center_axis',(1.,0.,0.));
#1030=DIRECTION('ref_axis',(0.,-1.,0.));
#1031=DIRECTION('',(0.,1.,0.));
#1032=DIRECTION('center_axis',(0.,0.,-1.));
#1033=DIRECTION('ref_axis',(-1.,0.,0.));
#1034=DIRECTION('center_axis',(1.,0.,0.));
#1035=DIRECTION('ref_axis',(0.,0.,-1.));
#1036=DIRECTION('',(0.,0.,-1.));
#1037=DIRECTION('',(0.,-1.,0.));
#1038=DIRECTION('',(0.,0.,1.));
#1039=DIRECTION('center_axis',(0.,0.,1.));
#1040=DIRECTION('ref_axis',(-1.,0.,0.));
#1041=DIRECTION('',(-1.,0.,0.));
#1042=DIRECTION('',(0.,-1.,0.));
#1043=DIRECTION('',(1.,0.,0.));
#1044=DIRECTION('center_axis',(0.,-1.,0.));
#1045=DIRECTION('ref_axis',(0.,0.,-1.));
#1046=DIRECTION('',(0.,0.,1.));
#1047=DIRECTION('center_axis',(-1.,0.,0.));
#1048=DIRECTION('ref_axis',(0.,0.,1.));
#1049=DIRECTION('',(0.,0.,-1.));
#1050=DIRECTION('',(0.,1.,0.));
#1051=DIRECTION('',(0.,0.,1.));
#1052=DIRECTION('center_axis',(0.,1.,0.));
#1053=DIRECTION('ref_axis',(0.,0.,1.));
#1054=DIRECTION('',(1.,0.,0.));
#1055=DIRECTION('',(0.,0.,1.));
#1056=DIRECTION('center_axis',(0.,-1.,0.));
#1057=DIRECTION('ref_axis',(0.,0.,1.));
#1058=DIRECTION('center_axis',(0.,-1.,0.));
#1059=DIRECTION('ref_axis',(0.,0.,1.));
#1060=DIRECTION('',(0.,-1.,0.));
#1061=DIRECTION('center_axis',(0.,1.,0.));
#1062=DIRECTION('ref_axis',(0.,0.,1.));
#1063=DIRECTION('center_axis',(0.,-1.,0.));
#1064=DIRECTION('ref_axis',(0.,0.,1.));
#1065=DIRECTION('center_axis',(0.,-1.,0.));
#1066=DIRECTION('ref_axis',(0.,0.,1.));
#1067=DIRECTION('',(0.,-1.,0.));
#1068=DIRECTION('center_axis',(0.,1.,0.));
#1069=DIRECTION('ref_axis',(0.,0.,1.));
#1070=DIRECTION('center_axis',(0.,0.,1.));
#1071=DIRECTION('ref_axis',(1.,0.,0.));
#1072=DIRECTION('',(0.,1.,0.));
#1073=DIRECTION('',(1.,0.,0.));
#1074=DIRECTION('',(-1.,0.,0.));
#1075=DIRECTION('center_axis',(1.,0.,0.));
#1076=DIRECTION('ref_axis',(0.,0.,1.));
#1077=DIRECTION('',(0.,0.,-1.));
#1078=DIRECTION('center_axis',(0.,-1.,0.));
#1079=DIRECTION('ref_axis',(1.,0.,0.));
#1080=DIRECTION('',(0.,0.,1.));
#1081=DIRECTION('',(0.,0.,1.));
#1082=DIRECTION('',(1.,0.,0.));
#1083=DIRECTION('center_axis',(0.,0.,1.));
#1084=DIRECTION('ref_axis',(-1.,0.,0.));
#1085=DIRECTION('',(0.,-1.,0.));
#1086=DIRECTION('center_axis',(-1.,0.,0.));
#1087=DIRECTION('ref_axis',(0.,0.,-1.));
#1088=DIRECTION('center_axis',(0.,1.,0.));
#1089=DIRECTION('ref_axis',(-1.,0.,0.));
#1090=DIRECTION('',(1.,0.,0.));
#1091=DIRECTION('',(0.,0.,-1.));
#1092=DIRECTION('center_axis',(1.,0.,0.));
#1093=DIRECTION('ref_axis',(0.,-0.707106781186547,-0.707106781186547));
#1094=DIRECTION('center_axis',(1.,0.,0.));
#1095=DIRECTION('ref_axis',(0.,-0.707106781186547,-0.707106781186547));
#1096=DIRECTION('',(1.,0.,0.));
#1097=DIRECTION('center_axis',(0.,0.,1.));
#1098=DIRECTION('ref_axis',(1.,0.,0.));
#1099=DIRECTION('center_axis',(0.,0.,-1.));
#1100=DIRECTION('ref_axis',(-1.,0.,0.));
#1101=DIRECTION('',(0.,1.,0.));
#1102=DIRECTION('center_axis',(0.,0.,-1.));
#1103=DIRECTION('ref_axis',(1.,0.,0.));
#1104=DIRECTION('center_axis',(-1.,0.,0.));
#1105=DIRECTION('ref_axis',(0.,-1.,0.));
#1106=DIRECTION('',(0.,0.,-1.));
#1107=DIRECTION('center_axis',(0.,0.,1.));
#1108=DIRECTION('ref_axis',(-1.,0.,0.));
#1109=DIRECTION('',(0.,0.,1.));
#1110=DIRECTION('center_axis',(0.,0.,-1.));
#1111=DIRECTION('ref_axis',(-1.,0.,0.));
#1112=DIRECTION('center_axis',(0.,0.,-1.));
#1113=DIRECTION('ref_axis',(1.,0.,0.));
#1114=DIRECTION('',(0.,0.,-1.));
#1115=DIRECTION('center_axis',(0.,0.,-1.));
#1116=DIRECTION('ref_axis',(1.,0.,0.));
#1117=DIRECTION('center_axis',(0.,0.,-1.));
#1118=DIRECTION('ref_axis',(1.,0.,0.));
#1119=DIRECTION('center_axis',(0.,0.,-1.));
#1120=DIRECTION('ref_axis',(-1.,0.,0.));
#1121=CARTESIAN_POINT('',(0.,0.,0.));
#1122=CARTESIAN_POINT('Origin',(40.0000005960464,54.5000008121133,-2.));
#1123=CARTESIAN_POINT('',(70.0000009685755,86.0000011324883,-2.));
#1124=CARTESIAN_POINT('',(15.0000002235174,86.0000011324883,-2.));
#1125=CARTESIAN_POINT('',(27.5000004097819,86.0000011324883,-2.));
#1126=CARTESIAN_POINT('',(70.0000009685755,38.0000005662441,-2.));
#1127=CARTESIAN_POINT('',(70.0000010430813,17.2500004060566,-2.));
#1128=CARTESIAN_POINT('',(-3.,38.0000005662441,-2.));
#1129=CARTESIAN_POINT('',(15.0000002235174,38.0000005662441,-2.));
#1130=CARTESIAN_POINT('',(-3.,43.0000005662441,-2.));
#1131=CARTESIAN_POINT('',(-3.,46.2500006891787,-2.));
#1132=CARTESIAN_POINT('',(-3.00000004470348,86.0000011324883,-2.));
#1133=CARTESIAN_POINT('',(-3.00000002832953,70.250000949949,-2.));
#1134=CARTESIAN_POINT('',(27.5000004097819,86.0000011324883,-2.));
#1135=CARTESIAN_POINT('Origin',(70.0000010430813,-20.,0.));
#1136=CARTESIAN_POINT('',(70.0000009685755,38.0000005662441,-30.0000002235174));
#1137=CARTESIAN_POINT('',(70.0000009685755,38.0000005662441,-10.0000001117587));
#1138=CARTESIAN_POINT('',(70.0000009685755,86.0000011324883,-1.5));
#1139=CARTESIAN_POINT('',(70.0000009685755,86.0000011324883,-7.50000011175871));
#1140=CARTESIAN_POINT('',(70.0000010430813,87.5000011324883,0.));
#1141=CARTESIAN_POINT('Origin',(70.0000010430813,87.5000011324883,-1.5));
#1142=CARTESIAN_POINT('',(70.,120.,0.));
#1143=CARTESIAN_POINT('',(70.0000010430813,20.,0.));
#1144=CARTESIAN_POINT('',(70.,120.,10.));
#1145=CARTESIAN_POINT('',(70.,120.,0.));
#1146=CARTESIAN_POINT('',(70.,30.,10.));
#1147=CARTESIAN_POINT('',(70.,30.,10.));
#1148=CARTESIAN_POINT('',(70.,20.,20.));
#1149=CARTESIAN_POINT('Origin',(70.,30.,20.));
#1150=CARTESIAN_POINT('',(70.,20.,40.));
#1151=CARTESIAN_POINT('',(70.,20.,5.));
#1152=CARTESIAN_POINT('',(70.,10.,40.));
#1153=CARTESIAN_POINT('',(70.,22.5,40.));
#1154=CARTESIAN_POINT('',(70.0000010430813,10.,0.));
#1155=CARTESIAN_POINT('',(70.0000010430813,10.,5.00000007450581));
#1156=CARTESIAN_POINT('',(70.0000010430813,18.0000004917383,0.));
#1157=CARTESIAN_POINT('',(70.0000010430813,20.,0.));
#1158=CARTESIAN_POINT('',(70.0000009685755,33.0000004917383,-15.));
#1159=CARTESIAN_POINT('Origin',(70.0000010430813,18.0000004917383,-15.));
#1160=CARTESIAN_POINT('',(70.0000009685755,33.0000004917383,-30.0000004470348));
#1161=CARTESIAN_POINT('',(70.0000009685755,33.0000004917383,-7.50000011175871));
#1162=CARTESIAN_POINT('',(70.0000009685755,33.0000004917383,-30.0000004470348));
#1163=CARTESIAN_POINT('Origin',(15.0000002235174,86.0000011324883,0.));
#1164=CARTESIAN_POINT('',(15.0000002235174,86.0000011324883,-1.5));
#1165=CARTESIAN_POINT('',(15.0000002235174,86.0000011324883,0.));
#1166=CARTESIAN_POINT('',(27.5000001117587,86.0000011324883,-1.5));
#1167=CARTESIAN_POINT('Origin',(27.5000001117587,87.5000011324883,-1.5));
#1168=CARTESIAN_POINT('',(15.0000002235174,87.5000011324883,0.));
#1169=CARTESIAN_POINT('Origin',(15.0000002235174,87.5000011324883,-1.5));
#1170=CARTESIAN_POINT('',(27.5000001117587,87.5000011324883,0.));
#1171=CARTESIAN_POINT('Origin',(40.,60.,0.));
#1172=CARTESIAN_POINT('',(15.0000002235174,96.0000011324883,0.));
#1173=CARTESIAN_POINT('',(15.0000002235174,73.0000005662441,0.));
#1174=CARTESIAN_POINT('',(10.,96.0000011324883,0.));
#1175=CARTESIAN_POINT('',(21.7500001117587,96.0000011324883,0.));
#1176=CARTESIAN_POINT('',(10.,120.,0.));
#1177=CARTESIAN_POINT('',(10.,90.,0.));
#1178=CARTESIAN_POINT('Origin',(40.,120.,0.));
#1179=CARTESIAN_POINT('',(42.117,130.,0.));
#1180=CARTESIAN_POINT('Origin',(40.,130.,0.));
#1181=CARTESIAN_POINT('Origin',(52.5000004842877,18.0000004917383,-15.));
#1182=CARTESIAN_POINT('',(10.,33.0000004917383,-15.));
#1183=CARTESIAN_POINT('',(10.,18.0000004917383,0.));
#1184=CARTESIAN_POINT('Origin',(10.,18.0000004917383,-15.));
#1185=CARTESIAN_POINT('',(52.5000004842877,33.0000004917383,-15.));
#1186=CARTESIAN_POINT('',(52.5000004842877,18.0000004917383,0.));
#1187=CARTESIAN_POINT('Origin',(65.0000009685755,33.0000004917383,0.));
#1188=CARTESIAN_POINT('',(10.,33.0000004917383,0.));
#1189=CARTESIAN_POINT('',(10.,33.0000004917383,0.));
#1190=CARTESIAN_POINT('',(-7.99999977648258,33.0000004917383,0.));
#1191=CARTESIAN_POINT('',(15.0000002235174,33.0000004917383,0.));
#1192=CARTESIAN_POINT('',(-7.99999977648258,33.0000004917383,-55.));
#1193=CARTESIAN_POINT('',(-7.99999977648258,33.0000004917383,0.));
#1194=CARTESIAN_POINT('',(82.0000009685755,33.0000004917383,-55.));
#1195=CARTESIAN_POINT('',(52.500000782311,33.0000004917383,-55.));
#1196=CARTESIAN_POINT('',(82.0000009685755,33.0000004917383,-30.0000004470348));
#1197=CARTESIAN_POINT('',(82.0000009685755,33.0000004917383,0.));
#1198=CARTESIAN_POINT('',(73.5000009685755,33.0000004917383,-30.0000004470348));
#1199=CARTESIAN_POINT('Origin',(40.0000005960464,43.0000005662441,-49.5000003352761));
#1200=CARTESIAN_POINT('',(15.0000000447035,43.0000005662441,-55.));
#1201=CARTESIAN_POINT('',(15.0000000447035,43.0000005662441,-49.0000006705523));
#1202=CARTESIAN_POINT('',(15.0000000447035,43.0000005662441,-50.7500003352761));
#1203=CARTESIAN_POINT('',(77.0000009685755,43.0000005662441,-49.0000007301569));
#1204=CARTESIAN_POINT('',(15.0000002235174,43.0000005662441,-49.0000006705523));
#1205=CARTESIAN_POINT('',(77.0000009685755,43.0000005662441,-30.));
#1206=CARTESIAN_POINT('',(77.0000009685755,43.0000005662441,-5.));
#1207=CARTESIAN_POINT('',(82.0000009685755,43.0000005662441,-30.));
#1208=CARTESIAN_POINT('',(61.000000782311,43.0000005662441,-30.));
#1209=CARTESIAN_POINT('',(82.0000009685755,43.0000005662441,-55.));
#1210=CARTESIAN_POINT('',(82.0000009685755,43.0000005662441,-49.0000007301569));
#1211=CARTESIAN_POINT('',(40.0000005960464,43.0000005662441,-55.));
#1212=CARTESIAN_POINT('Origin',(-3.00000004470348,86.0000011324883,-5.));
#1213=CARTESIAN_POINT('',(-3.,43.0000005662441,-49.0000006705523));
#1214=CARTESIAN_POINT('',(-2.99999995529652,86.0000011324883,-49.0000006705523));
#1215=CARTESIAN_POINT('',(-3.00000004470348,86.0000011324883,-49.0000006705523));
#1216=CARTESIAN_POINT('',(-3.00000004470348,86.0000011324883,-5.));
#1217=CARTESIAN_POINT('',(-3.,43.0000005662441,-5.));
#1218=CARTESIAN_POINT('Origin',(15.0000002235174,86.0000011324883,-5.));
#1219=CARTESIAN_POINT('',(15.0000000447035,86.0000011324883,-49.0000006705523));
#1220=CARTESIAN_POINT('',(6.00000013411045,86.0000011324883,-49.0000006705523));
#1221=CARTESIAN_POINT('',(15.0000002235174,86.0000011324883,0.));
#1222=CARTESIAN_POINT('Origin',(15.0000002235174,86.0000011324883,0.));
#1223=CARTESIAN_POINT('',(15.0000000447035,43.0000005662441,-49.0000006705523));
#1224=CARTESIAN_POINT('',(15.0000002235174,96.0000011324883,-55.));
#1225=CARTESIAN_POINT('',(15.0000002235174,96.0000011324883,-55.));
#1226=CARTESIAN_POINT('',(15.0000002235174,96.0000011324883,0.));
#1227=CARTESIAN_POINT('Origin',(3.50000022351742,96.0000011324883,-2.5));
#1228=CARTESIAN_POINT('',(-7.99999977648258,96.0000011324883,-55.));
#1229=CARTESIAN_POINT('',(-7.99999977648258,96.0000011324883,-55.));
#1230=CARTESIAN_POINT('',(-7.99999977648258,96.0000011324883,0.));
#1231=CARTESIAN_POINT('',(-7.99999977648258,96.0000011324883,-5.));
#1232=CARTESIAN_POINT('',(-7.99999977648258,96.0000011324883,0.));
#1233=CARTESIAN_POINT('Origin',(-7.99999977648258,33.0000004917383,0.));
#1234=CARTESIAN_POINT('',(-7.99999977648258,46.5000002458692,0.));
#1235=CARTESIAN_POINT('',(-7.99999977648258,43.0000005662441,-55.));
#1236=CARTESIAN_POINT('Origin',(-3.,38.0000005662441,-5.));
#1237=CARTESIAN_POINT('',(-3.,38.0000005662441,-49.0000006705523));
#1238=CARTESIAN_POINT('',(-3.,38.0000005662441,-5.));
#1239=CARTESIAN_POINT('',(-3.,38.0000005662441,-49.0000006705523));
#1240=CARTESIAN_POINT('Origin',(15.0000002235174,38.0000005662441,-49.0000006705523));
#1241=CARTESIAN_POINT('',(77.0000009685755,38.0000005662441,-49.0000007301569));
#1242=CARTESIAN_POINT('',(15.0000002235174,38.0000005662441,-49.0000006705523));
#1243=CARTESIAN_POINT('',(77.0000009685755,38.0000005662441,-49.0000006705523));
#1244=CARTESIAN_POINT('Origin',(15.0000002235174,38.0000005662441,-5.));
#1245=CARTESIAN_POINT('',(77.0000009685755,38.0000005662441,-30.0000002235174));
#1246=CARTESIAN_POINT('',(48.5000005960464,38.0000005662441,-30.0000002235174));
#1247=CARTESIAN_POINT('',(77.0000009685755,38.0000005662441,-27.0000003650784));
#1248=CARTESIAN_POINT('Origin',(15.0000002235174,33.0000004917383,0.));
#1249=CARTESIAN_POINT('',(10.,90.,0.));
#1250=CARTESIAN_POINT('Origin',(40.,60.,0.));
#1251=CARTESIAN_POINT('',(65.0000010430813,10.,0.));
#1252=CARTESIAN_POINT('',(55.0000005215406,10.,0.));
#1253=CARTESIAN_POINT('',(65.0000010430813,0.,0.));
#1254=CARTESIAN_POINT('',(65.0000010430813,32.5,0.));
#1255=CARTESIAN_POINT('',(55.0000008195639,0.,0.));
#1256=CARTESIAN_POINT('',(51.2500004656613,0.,0.));
#1257=CARTESIAN_POINT('',(55.0000008195639,10.,0.));
#1258=CARTESIAN_POINT('',(55.0000008195639,35.,0.));
#1259=CARTESIAN_POINT('',(25.000000372529,10.,0.));
#1260=CARTESIAN_POINT('',(20.,10.,0.));
#1261=CARTESIAN_POINT('',(25.000000372529,0.,0.));
#1262=CARTESIAN_POINT('',(25.000000372529,35.,0.));
#1263=CARTESIAN_POINT('',(15.,0.,0.));
#1264=CARTESIAN_POINT('',(28.7500001303852,0.,0.));
#1265=CARTESIAN_POINT('',(15.,10.,0.));
#1266=CARTESIAN_POINT('',(15.,32.5,0.));
#1267=CARTESIAN_POINT('',(10.,10.,0.));
#1268=CARTESIAN_POINT('',(25.,10.,0.));
#1269=CARTESIAN_POINT('',(10.,90.,0.));
#1270=CARTESIAN_POINT('Origin',(82.0000009685755,43.0000005662441,-30.));
#1271=CARTESIAN_POINT('',(82.0000009685755,59.5000015199184,-29.9999992623925));
#1272=CARTESIAN_POINT('',(77.0000009685755,40.500000141561,-30.0000001117587));
#1273=CARTESIAN_POINT('Origin',(77.0000009685755,38.0000005662441,-49.0000007301569));
#1274=CARTESIAN_POINT('Origin',(82.0000009685755,76.0000011324883,0.));
#1275=CARTESIAN_POINT('',(82.0000009685755,55.7500008307397,-55.));
#1276=CARTESIAN_POINT('Origin',(40.0000005960464,35.5000005289912,-55.));
#1277=CARTESIAN_POINT('Origin',(15.,5.,5.00000007450581));
#1278=CARTESIAN_POINT('',(15.,0.,10.0000001490116));
#1279=CARTESIAN_POINT('',(15.,0.,5.00000007450581));
#1280=CARTESIAN_POINT('',(15.,10.,10.0000001490116));
#1281=CARTESIAN_POINT('',(15.,7.5,10.0000001490116));
#1282=CARTESIAN_POINT('',(15.,10.,0.));
#1283=CARTESIAN_POINT('Origin',(25.000000372529,10.,10.0000001490116));
#1284=CARTESIAN_POINT('',(25.000000372529,0.,10.0000001490116));
#1285=CARTESIAN_POINT('',(21.2500003166497,0.,10.0000001490116));
#1286=CARTESIAN_POINT('',(25.000000372529,10.,10.0000001490116));
#1287=CARTESIAN_POINT('',(25.000000372529,10.,10.0000001490116));
#1288=CARTESIAN_POINT('',(12.5000001862645,10.,10.0000001490116));
#1289=CARTESIAN_POINT('Origin',(17.5000002607703,0.,5.00000007450581));
#1290=CARTESIAN_POINT('',(25.000000372529,0.,2.5000000372529));
#1291=CARTESIAN_POINT('Origin',(65.0000010430813,5.,5.00000007450581));
#1292=CARTESIAN_POINT('',(65.0000010430813,10.,10.0000001490116));
#1293=CARTESIAN_POINT('',(65.0000010430813,10.,0.));
#1294=CARTESIAN_POINT('',(65.0000010430813,0.,10.0000001490116));
#1295=CARTESIAN_POINT('',(65.0000010430813,7.5,10.0000001490116));
#1296=CARTESIAN_POINT('',(65.0000010430813,0.,5.00000007450581));
#1297=CARTESIAN_POINT('Origin',(62.5000009313226,0.,5.00000007450581));
#1298=CARTESIAN_POINT('',(55.0000008195639,0.,10.0000001490116));
#1299=CARTESIAN_POINT('',(66.2500009872019,0.,10.0000001490116));
#1300=CARTESIAN_POINT('',(55.0000008195639,0.,7.50000011175871));
#1301=CARTESIAN_POINT('Origin',(60.0000008940697,7.5,35.0000005215406));
#1302=CARTESIAN_POINT('',(60.0000008940697,20.,32.8830005215406));
#1303=CARTESIAN_POINT('Origin',(60.0000008940697,20.,35.0000005215406));
#1304=CARTESIAN_POINT('',(60.0000008940697,10.,32.8830005215406));
#1305=CARTESIAN_POINT('',(60.0000008940697,7.5,32.8830005215406));
#1306=CARTESIAN_POINT('Origin',(60.0000008940697,10.,35.0000005215406));
#1307=CARTESIAN_POINT('Origin',(20.0000002980232,7.5,35.0000005215406));
#1308=CARTESIAN_POINT('',(20.0000002980232,20.,32.8830005215406));
#1309=CARTESIAN_POINT('Origin',(20.0000002980232,20.,35.0000005215406));
#1310=CARTESIAN_POINT('',(20.0000002980232,10.,32.8830005215406));
#1311=CARTESIAN_POINT('',(20.0000002980232,7.5,32.8830005215406));
#1312=CARTESIAN_POINT('Origin',(20.0000002980232,10.,35.0000005215406));
#1313=CARTESIAN_POINT('Origin',(40.,15.,40.));
#1314=CARTESIAN_POINT('',(10.,20.,40.));
#1315=CARTESIAN_POINT('',(10.,10.,40.));
#1316=CARTESIAN_POINT('',(10.,82.5,40.));
#1317=CARTESIAN_POINT('',(0.,10.,40.));
#1318=CARTESIAN_POINT('',(80.,20.,40.));
#1319=CARTESIAN_POINT('Origin',(25.000000372529,10.,0.));
#1320=CARTESIAN_POINT('',(25.000000372529,10.,0.));
#1321=CARTESIAN_POINT('Origin',(0.,10.,0.));
#1322=CARTESIAN_POINT('',(10.,10.,0.));
#1323=CARTESIAN_POINT('',(55.0000008195639,10.,10.0000001490116));
#1324=CARTESIAN_POINT('',(55.0000008195639,10.,5.00000007450581));
#1325=CARTESIAN_POINT('',(35.0000005215406,10.,10.0000001490116));
#1326=CARTESIAN_POINT('Origin',(70.0000010430813,10.,10.0000001490116));
#1327=CARTESIAN_POINT('',(55.0000008195639,10.,10.0000001490116));
#1328=CARTESIAN_POINT('Origin',(55.0000008195639,10.,10.0000001490116));
#1329=CARTESIAN_POINT('Origin',(80.,20.,10.));
#1330=CARTESIAN_POINT('',(10.,20.,20.));
#1331=CARTESIAN_POINT('',(60.,20.,20.));
#1332=CARTESIAN_POINT('',(10.,20.,5.));
#1333=CARTESIAN_POINT('Origin',(60.,30.,20.));
#1334=CARTESIAN_POINT('',(10.,30.,10.));
#1335=CARTESIAN_POINT('Origin',(10.,30.,20.));
#1336=CARTESIAN_POINT('',(25.,30.,10.));
#1337=CARTESIAN_POINT('Origin',(40.,60.,10.));
#1338=CARTESIAN_POINT('',(10.,120.,10.));
#1339=CARTESIAN_POINT('Origin',(40.,120.,10.));
#1340=CARTESIAN_POINT('',(10.,90.,10.));
#1341=CARTESIAN_POINT('',(27.5000005960464,130.000001937151,10.));
#1342=CARTESIAN_POINT('Origin',(40.0000005960464,130.000001937151,10.));
#1343=CARTESIAN_POINT('Origin',(10.,120.,0.));
#1344=CARTESIAN_POINT('',(10.,120.,0.));
#1345=CARTESIAN_POINT('Origin',(40.,130.,12.5));
#1346=CARTESIAN_POINT('',(42.117,130.,2.));
#1347=CARTESIAN_POINT('',(42.117,130.,12.5));
#1348=CARTESIAN_POINT('Origin',(40.,130.,2.));
#1349=CARTESIAN_POINT('Origin',(40.0000005960464,130.000001937151,6.));
#1350=CARTESIAN_POINT('',(27.5000005960464,130.000001937151,2.));
#1351=CARTESIAN_POINT('',(27.5000005960464,130.000001937151,6.));
#1352=CARTESIAN_POINT('Origin',(40.0000005960464,130.000001937151,2.));
#1353=CARTESIAN_POINT('Origin',(40.0000005960464,130.000001937151,2.));
#1354=CARTESIAN_POINT('Origin',(40.,120.,10.));
#1355=UNCERTAINTY_MEASURE_WITH_UNIT(LENGTH_MEASURE(0.01),#1359,
'DISTANCE_ACCURACY_VALUE',
'Maximum model space distance between geometric entities at asserted c
onnectivities');
#1356=UNCERTAINTY_MEASURE_WITH_UNIT(LENGTH_MEASURE(0.01),#1359,
'DISTANCE_ACCURACY_VALUE',
'Maximum model space distance between geometric entities at asserted c
onnectivities');
#1357=(
GEOMETRIC_REPRESENTATION_CONTEXT(3)
GLOBAL_UNCERTAINTY_ASSIGNED_CONTEXT((#1355))
GLOBAL_UNIT_ASSIGNED_CONTEXT((#1359,#1361,#1362))
REPRESENTATION_CONTEXT('','3D')
);
#1358=(
GEOMETRIC_REPRESENTATION_CONTEXT(3)
GLOBAL_UNCERTAINTY_ASSIGNED_CONTEXT((#1356))
GLOBAL_UNIT_ASSIGNED_CONTEXT((#1359,#1361,#1362))
REPRESENTATION_CONTEXT('','3D')
);
#1359=(
LENGTH_UNIT()
NAMED_UNIT(*)
SI_UNIT(.MILLI.,.METRE.)
);
#1360=(
LENGTH_UNIT()
NAMED_UNIT(*)
SI_UNIT($,.METRE.)
);
#1361=(
NAMED_UNIT(*)
PLANE_ANGLE_UNIT()
SI_UNIT($,.RADIAN.)
);
#1362=(
NAMED_UNIT(*)
SI_UNIT($,.STERADIAN.)
SOLID_ANGLE_UNIT()
);
#1363=SHAPE_DEFINITION_REPRESENTATION(#1364,#1365);
#1364=PRODUCT_DEFINITION_SHAPE('',$,#1367);
#1365=SHAPE_REPRESENTATION('',(#845),#1357);
#1366=PRODUCT_DEFINITION_CONTEXT('part definition',#1371,'design');
#1367=PRODUCT_DEFINITION('Side_Support','Side_Support v1',#1368,#1366);
#1368=PRODUCT_DEFINITION_FORMATION('',$,#1373);
#1369=PRODUCT_RELATED_PRODUCT_CATEGORY('Side_Support v1',
'Side_Support v1',(#1373));
#1370=APPLICATION_PROTOCOL_DEFINITION('international standard',
'automotive_design',2009,#1371);
#1371=APPLICATION_CONTEXT(
'Core Data for Automotive Mechanical Design Process');
#1372=PRODUCT_CONTEXT('part definition',#1371,'mechanical');
#1373=PRODUCT('Side_Support','Side_Support v1',$,(#1372));
#1374=PRESENTATION_STYLE_ASSIGNMENT((#1375));
#1375=SURFACE_STYLE_USAGE(.BOTH.,#1376);
#1376=SURFACE_SIDE_STYLE('',(#1377));
#1377=SURFACE_STYLE_FILL_AREA(#1378);
#1378=FILL_AREA_STYLE('Steel - Satin',(#1379));
#1379=FILL_AREA_STYLE_COLOUR('Steel - Satin',#1380);
#1380=COLOUR_RGB('Steel - Satin',0.627450980392157,0.627450980392157,0.627450980392157);
ENDSEC;
END-ISO-10303-21;
