ISO-10303-21;
HEADER;
/* Generated by software containing ST-Developer
 * from STEP Tools, Inc. (www.steptools.com) 
 */

FILE_DESCRIPTION(
/* description */ (''),
/* implementation_level */ '2;1');

FILE_NAME(
/* name */ 'Pan_to_Microphone_Mount.step',
/* time_stamp */ '2026-05-16T18:21:37+02:00',
/* author */ (''),
/* organization */ (''),
/* preprocessor_version */ 'ST-DEVELOPER v20.1',
/* originating_system */ 'Autodesk Translation Framework v15.8.0.0',
/* authorisation */ '');

FILE_SCHEMA (('AUTOMOTIVE_DESIGN { 1 0 10303 214 3 1 1 }'));
ENDSEC;

DATA;
#10=MECHANICAL_DESIGN_GEOMETRIC_PRESENTATION_REPRESENTATION('',(#13),#514);
#11=SHAPE_REPRESENTATION_RELATIONSHIP('SRR','None',#521,#12);
#12=ADVANCED_BREP_SHAPE_REPRESENTATION('',(#14),#513);
#13=STYLED_ITEM('',(#530),#14);
#14=MANIFOLD_SOLID_BREP('Body1',#294);
#15=FACE_BOUND('',#53,.T.);
#16=FACE_BOUND('',#54,.T.);
#17=FACE_BOUND('',#55,.T.);
#18=FACE_BOUND('',#56,.T.);
#19=FACE_BOUND('',#65,.T.);
#20=FACE_BOUND('',#66,.T.);
#21=FACE_BOUND('',#67,.T.);
#22=FACE_BOUND('',#68,.T.);
#23=PLANE('',#320);
#24=PLANE('',#321);
#25=PLANE('',#322);
#26=PLANE('',#329);
#27=PLANE('',#331);
#28=PLANE('',#332);
#29=PLANE('',#335);
#30=PLANE('',#340);
#31=FACE_OUTER_BOUND('',#46,.T.);
#32=FACE_OUTER_BOUND('',#47,.T.);
#33=FACE_OUTER_BOUND('',#48,.T.);
#34=FACE_OUTER_BOUND('',#49,.T.);
#35=FACE_OUTER_BOUND('',#50,.T.);
#36=FACE_OUTER_BOUND('',#51,.T.);
#37=FACE_OUTER_BOUND('',#52,.T.);
#38=FACE_OUTER_BOUND('',#57,.T.);
#39=FACE_OUTER_BOUND('',#58,.T.);
#40=FACE_OUTER_BOUND('',#59,.T.);
#41=FACE_OUTER_BOUND('',#60,.T.);
#42=FACE_OUTER_BOUND('',#61,.T.);
#43=FACE_OUTER_BOUND('',#62,.T.);
#44=FACE_OUTER_BOUND('',#63,.T.);
#45=FACE_OUTER_BOUND('',#64,.T.);
#46=EDGE_LOOP('',(#194,#195,#196,#197));
#47=EDGE_LOOP('',(#198,#199,#200,#201));
#48=EDGE_LOOP('',(#202,#203,#204,#205));
#49=EDGE_LOOP('',(#206,#207,#208,#209));
#50=EDGE_LOOP('',(#210,#211,#212,#213));
#51=EDGE_LOOP('',(#214,#215,#216,#217));
#52=EDGE_LOOP('',(#218,#219,#220,#221,#222,#223,#224,#225));
#53=EDGE_LOOP('',(#226));
#54=EDGE_LOOP('',(#227));
#55=EDGE_LOOP('',(#228));
#56=EDGE_LOOP('',(#229));
#57=EDGE_LOOP('',(#230,#231,#232,#233));
#58=EDGE_LOOP('',(#234,#235,#236,#237));
#59=EDGE_LOOP('',(#238,#239,#240,#241));
#60=EDGE_LOOP('',(#242,#243,#244,#245));
#61=EDGE_LOOP('',(#246,#247,#248,#249));
#62=EDGE_LOOP('',(#250,#251,#252,#253,#254));
#63=EDGE_LOOP('',(#255,#256,#257,#258,#259,#260,#261,#262,#263,#264,#265,
#266));
#64=EDGE_LOOP('',(#267));
#65=EDGE_LOOP('',(#268));
#66=EDGE_LOOP('',(#269));
#67=EDGE_LOOP('',(#270));
#68=EDGE_LOOP('',(#271));
#69=LINE('',#435,#90);
#70=LINE('',#441,#91);
#71=LINE('',#447,#92);
#72=LINE('',#453,#93);
#73=LINE('',#458,#94);
#74=LINE('',#460,#95);
#75=LINE('',#462,#96);
#76=LINE('',#463,#97);
#77=LINE('',#467,#98);
#78=LINE('',#469,#99);
#79=LINE('',#471,#100);
#80=LINE('',#472,#101);
#81=LINE('',#477,#102);
#82=LINE('',#481,#103);
#83=LINE('',#487,#104);
#84=LINE('',#491,#105);
#85=LINE('',#494,#106);
#86=LINE('',#496,#107);
#87=LINE('',#497,#108);
#88=LINE('',#499,#109);
#89=LINE('',#509,#110);
#90=VECTOR('',#347,2.5);
#91=VECTOR('',#354,2.5);
#92=VECTOR('',#361,2.5);
#93=VECTOR('',#368,2.5);
#94=VECTOR('',#373,10.);
#95=VECTOR('',#374,10.);
#96=VECTOR('',#375,10.);
#97=VECTOR('',#376,10.);
#98=VECTOR('',#379,10.);
#99=VECTOR('',#380,10.);
#100=VECTOR('',#381,10.);
#101=VECTOR('',#382,10.);
#102=VECTOR('',#387,10.);
#103=VECTOR('',#390,10.);
#104=VECTOR('',#399,10.);
#105=VECTOR('',#404,10.);
#106=VECTOR('',#407,10.);
#107=VECTOR('',#408,10.);
#108=VECTOR('',#409,10.);
#109=VECTOR('',#412,10.);
#110=VECTOR('',#427,105.);
#111=CIRCLE('',#309,2.5);
#112=CIRCLE('',#310,2.5);
#113=CIRCLE('',#312,2.5);
#114=CIRCLE('',#313,2.5);
#115=CIRCLE('',#315,2.5);
#116=CIRCLE('',#316,2.5);
#117=CIRCLE('',#318,2.5);
#118=CIRCLE('',#319,2.5);
#119=CIRCLE('',#323,100.5);
#120=CIRCLE('',#324,105.);
#121=CIRCLE('',#325,100.5);
#122=CIRCLE('',#326,105.);
#123=CIRCLE('',#328,100.5);
#124=CIRCLE('',#330,105.);
#125=CIRCLE('',#334,100.5);
#126=CIRCLE('',#336,105.);
#127=CIRCLE('',#337,105.);
#128=CIRCLE('',#339,105.);
#129=VERTEX_POINT('',#432);
#130=VERTEX_POINT('',#434);
#131=VERTEX_POINT('',#438);
#132=VERTEX_POINT('',#440);
#133=VERTEX_POINT('',#444);
#134=VERTEX_POINT('',#446);
#135=VERTEX_POINT('',#450);
#136=VERTEX_POINT('',#452);
#137=VERTEX_POINT('',#456);
#138=VERTEX_POINT('',#457);
#139=VERTEX_POINT('',#459);
#140=VERTEX_POINT('',#461);
#141=VERTEX_POINT('',#465);
#142=VERTEX_POINT('',#466);
#143=VERTEX_POINT('',#468);
#144=VERTEX_POINT('',#470);
#145=VERTEX_POINT('',#474);
#146=VERTEX_POINT('',#476);
#147=VERTEX_POINT('',#478);
#148=VERTEX_POINT('',#480);
#149=VERTEX_POINT('',#485);
#150=VERTEX_POINT('',#489);
#151=VERTEX_POINT('',#493);
#152=VERTEX_POINT('',#495);
#153=VERTEX_POINT('',#503);
#154=VERTEX_POINT('',#507);
#155=EDGE_CURVE('',#129,#129,#111,.T.);
#156=EDGE_CURVE('',#129,#130,#69,.T.);
#157=EDGE_CURVE('',#130,#130,#112,.T.);
#158=EDGE_CURVE('',#131,#131,#113,.T.);
#159=EDGE_CURVE('',#131,#132,#70,.T.);
#160=EDGE_CURVE('',#132,#132,#114,.T.);
#161=EDGE_CURVE('',#133,#133,#115,.T.);
#162=EDGE_CURVE('',#133,#134,#71,.T.);
#163=EDGE_CURVE('',#134,#134,#116,.T.);
#164=EDGE_CURVE('',#135,#135,#117,.T.);
#165=EDGE_CURVE('',#135,#136,#72,.T.);
#166=EDGE_CURVE('',#136,#136,#118,.T.);
#167=EDGE_CURVE('',#137,#138,#73,.T.);
#168=EDGE_CURVE('',#137,#139,#74,.T.);
#169=EDGE_CURVE('',#140,#139,#75,.T.);
#170=EDGE_CURVE('',#138,#140,#76,.T.);
#171=EDGE_CURVE('',#141,#142,#77,.T.);
#172=EDGE_CURVE('',#143,#141,#78,.T.);
#173=EDGE_CURVE('',#144,#143,#79,.T.);
#174=EDGE_CURVE('',#142,#144,#80,.T.);
#175=EDGE_CURVE('',#137,#145,#119,.T.);
#176=EDGE_CURVE('',#145,#146,#81,.T.);
#177=EDGE_CURVE('',#147,#146,#120,.T.);
#178=EDGE_CURVE('',#148,#147,#82,.T.);
#179=EDGE_CURVE('',#148,#142,#121,.T.);
#180=EDGE_CURVE('',#139,#144,#122,.T.);
#181=EDGE_CURVE('',#149,#138,#123,.T.);
#182=EDGE_CURVE('',#149,#145,#83,.T.);
#183=EDGE_CURVE('',#140,#150,#124,.T.);
#184=EDGE_CURVE('',#150,#149,#84,.T.);
#185=EDGE_CURVE('',#148,#151,#85,.T.);
#186=EDGE_CURVE('',#152,#147,#86,.T.);
#187=EDGE_CURVE('',#151,#152,#87,.T.);
#188=EDGE_CURVE('',#146,#150,#88,.T.);
#189=EDGE_CURVE('',#141,#151,#125,.T.);
#190=EDGE_CURVE('',#152,#153,#126,.T.);
#191=EDGE_CURVE('',#153,#143,#127,.T.);
#192=EDGE_CURVE('',#154,#154,#128,.T.);
#193=EDGE_CURVE('',#154,#153,#89,.T.);
#194=ORIENTED_EDGE('',*,*,#155,.F.);
#195=ORIENTED_EDGE('',*,*,#156,.T.);
#196=ORIENTED_EDGE('',*,*,#157,.F.);
#197=ORIENTED_EDGE('',*,*,#156,.F.);
#198=ORIENTED_EDGE('',*,*,#158,.F.);
#199=ORIENTED_EDGE('',*,*,#159,.T.);
#200=ORIENTED_EDGE('',*,*,#160,.F.);
#201=ORIENTED_EDGE('',*,*,#159,.F.);
#202=ORIENTED_EDGE('',*,*,#161,.F.);
#203=ORIENTED_EDGE('',*,*,#162,.T.);
#204=ORIENTED_EDGE('',*,*,#163,.F.);
#205=ORIENTED_EDGE('',*,*,#162,.F.);
#206=ORIENTED_EDGE('',*,*,#164,.F.);
#207=ORIENTED_EDGE('',*,*,#165,.T.);
#208=ORIENTED_EDGE('',*,*,#166,.F.);
#209=ORIENTED_EDGE('',*,*,#165,.F.);
#210=ORIENTED_EDGE('',*,*,#167,.F.);
#211=ORIENTED_EDGE('',*,*,#168,.T.);
#212=ORIENTED_EDGE('',*,*,#169,.F.);
#213=ORIENTED_EDGE('',*,*,#170,.F.);
#214=ORIENTED_EDGE('',*,*,#171,.F.);
#215=ORIENTED_EDGE('',*,*,#172,.F.);
#216=ORIENTED_EDGE('',*,*,#173,.F.);
#217=ORIENTED_EDGE('',*,*,#174,.F.);
#218=ORIENTED_EDGE('',*,*,#175,.T.);
#219=ORIENTED_EDGE('',*,*,#176,.T.);
#220=ORIENTED_EDGE('',*,*,#177,.F.);
#221=ORIENTED_EDGE('',*,*,#178,.F.);
#222=ORIENTED_EDGE('',*,*,#179,.T.);
#223=ORIENTED_EDGE('',*,*,#174,.T.);
#224=ORIENTED_EDGE('',*,*,#180,.F.);
#225=ORIENTED_EDGE('',*,*,#168,.F.);
#226=ORIENTED_EDGE('',*,*,#157,.T.);
#227=ORIENTED_EDGE('',*,*,#160,.T.);
#228=ORIENTED_EDGE('',*,*,#163,.T.);
#229=ORIENTED_EDGE('',*,*,#166,.T.);
#230=ORIENTED_EDGE('',*,*,#167,.T.);
#231=ORIENTED_EDGE('',*,*,#181,.F.);
#232=ORIENTED_EDGE('',*,*,#182,.T.);
#233=ORIENTED_EDGE('',*,*,#175,.F.);
#234=ORIENTED_EDGE('',*,*,#170,.T.);
#235=ORIENTED_EDGE('',*,*,#183,.T.);
#236=ORIENTED_EDGE('',*,*,#184,.T.);
#237=ORIENTED_EDGE('',*,*,#181,.T.);
#238=ORIENTED_EDGE('',*,*,#185,.F.);
#239=ORIENTED_EDGE('',*,*,#178,.T.);
#240=ORIENTED_EDGE('',*,*,#186,.F.);
#241=ORIENTED_EDGE('',*,*,#187,.F.);
#242=ORIENTED_EDGE('',*,*,#182,.F.);
#243=ORIENTED_EDGE('',*,*,#184,.F.);
#244=ORIENTED_EDGE('',*,*,#188,.F.);
#245=ORIENTED_EDGE('',*,*,#176,.F.);
#246=ORIENTED_EDGE('',*,*,#171,.T.);
#247=ORIENTED_EDGE('',*,*,#179,.F.);
#248=ORIENTED_EDGE('',*,*,#185,.T.);
#249=ORIENTED_EDGE('',*,*,#189,.F.);
#250=ORIENTED_EDGE('',*,*,#172,.T.);
#251=ORIENTED_EDGE('',*,*,#189,.T.);
#252=ORIENTED_EDGE('',*,*,#187,.T.);
#253=ORIENTED_EDGE('',*,*,#190,.T.);
#254=ORIENTED_EDGE('',*,*,#191,.T.);
#255=ORIENTED_EDGE('',*,*,#192,.F.);
#256=ORIENTED_EDGE('',*,*,#193,.T.);
#257=ORIENTED_EDGE('',*,*,#190,.F.);
#258=ORIENTED_EDGE('',*,*,#186,.T.);
#259=ORIENTED_EDGE('',*,*,#177,.T.);
#260=ORIENTED_EDGE('',*,*,#188,.T.);
#261=ORIENTED_EDGE('',*,*,#183,.F.);
#262=ORIENTED_EDGE('',*,*,#169,.T.);
#263=ORIENTED_EDGE('',*,*,#180,.T.);
#264=ORIENTED_EDGE('',*,*,#173,.T.);
#265=ORIENTED_EDGE('',*,*,#191,.F.);
#266=ORIENTED_EDGE('',*,*,#193,.F.);
#267=ORIENTED_EDGE('',*,*,#192,.T.);
#268=ORIENTED_EDGE('',*,*,#155,.T.);
#269=ORIENTED_EDGE('',*,*,#158,.T.);
#270=ORIENTED_EDGE('',*,*,#161,.T.);
#271=ORIENTED_EDGE('',*,*,#164,.T.);
#272=CYLINDRICAL_SURFACE('',#308,2.5);
#273=CYLINDRICAL_SURFACE('',#311,2.5);
#274=CYLINDRICAL_SURFACE('',#314,2.5);
#275=CYLINDRICAL_SURFACE('',#317,2.5);
#276=CYLINDRICAL_SURFACE('',#327,100.5);
#277=CYLINDRICAL_SURFACE('',#333,100.5);
#278=CYLINDRICAL_SURFACE('',#338,105.);
#279=ADVANCED_FACE('',(#31),#272,.F.);
#280=ADVANCED_FACE('',(#32),#273,.F.);
#281=ADVANCED_FACE('',(#33),#274,.F.);
#282=ADVANCED_FACE('',(#34),#275,.F.);
#283=ADVANCED_FACE('',(#35),#23,.F.);
#284=ADVANCED_FACE('',(#36),#24,.F.);
#285=ADVANCED_FACE('',(#37,#15,#16,#17,#18),#25,.F.);
#286=ADVANCED_FACE('',(#38),#276,.F.);
#287=ADVANCED_FACE('',(#39),#26,.T.);
#288=ADVANCED_FACE('',(#40),#27,.F.);
#289=ADVANCED_FACE('',(#41),#28,.F.);
#290=ADVANCED_FACE('',(#42),#277,.F.);
#291=ADVANCED_FACE('',(#43),#29,.T.);
#292=ADVANCED_FACE('',(#44),#278,.T.);
#293=ADVANCED_FACE('',(#45,#19,#20,#21,#22),#30,.T.);
#294=CLOSED_SHELL('',(#279,#280,#281,#282,#283,#284,#285,#286,#287,#288,
#289,#290,#291,#292,#293));
#295=DERIVED_UNIT_ELEMENT(#297,1.);
#296=DERIVED_UNIT_ELEMENT(#516,-3.);
#297=(
MASS_UNIT()
NAMED_UNIT(*)
SI_UNIT(.KILO.,.GRAM.)
);
#298=DERIVED_UNIT((#295,#296));
#299=MEASURE_REPRESENTATION_ITEM('density measure',
POSITIVE_RATIO_MEASURE(7850.),#298);
#300=PROPERTY_DEFINITION_REPRESENTATION(#305,#302);
#301=PROPERTY_DEFINITION_REPRESENTATION(#306,#303);
#302=REPRESENTATION('material name',(#304),#513);
#303=REPRESENTATION('density',(#299),#513);
#304=DESCRIPTIVE_REPRESENTATION_ITEM('Steel','Steel');
#305=PROPERTY_DEFINITION('material property','material name',#523);
#306=PROPERTY_DEFINITION('material property','density of part',#523);
#307=AXIS2_PLACEMENT_3D('',#430,#341,#342);
#308=AXIS2_PLACEMENT_3D('',#431,#343,#344);
#309=AXIS2_PLACEMENT_3D('',#433,#345,#346);
#310=AXIS2_PLACEMENT_3D('',#436,#348,#349);
#311=AXIS2_PLACEMENT_3D('',#437,#350,#351);
#312=AXIS2_PLACEMENT_3D('',#439,#352,#353);
#313=AXIS2_PLACEMENT_3D('',#442,#355,#356);
#314=AXIS2_PLACEMENT_3D('',#443,#357,#358);
#315=AXIS2_PLACEMENT_3D('',#445,#359,#360);
#316=AXIS2_PLACEMENT_3D('',#448,#362,#363);
#317=AXIS2_PLACEMENT_3D('',#449,#364,#365);
#318=AXIS2_PLACEMENT_3D('',#451,#366,#367);
#319=AXIS2_PLACEMENT_3D('',#454,#369,#370);
#320=AXIS2_PLACEMENT_3D('',#455,#371,#372);
#321=AXIS2_PLACEMENT_3D('',#464,#377,#378);
#322=AXIS2_PLACEMENT_3D('',#473,#383,#384);
#323=AXIS2_PLACEMENT_3D('',#475,#385,#386);
#324=AXIS2_PLACEMENT_3D('',#479,#388,#389);
#325=AXIS2_PLACEMENT_3D('',#482,#391,#392);
#326=AXIS2_PLACEMENT_3D('',#483,#393,#394);
#327=AXIS2_PLACEMENT_3D('',#484,#395,#396);
#328=AXIS2_PLACEMENT_3D('',#486,#397,#398);
#329=AXIS2_PLACEMENT_3D('',#488,#400,#401);
#330=AXIS2_PLACEMENT_3D('',#490,#402,#403);
#331=AXIS2_PLACEMENT_3D('',#492,#405,#406);
#332=AXIS2_PLACEMENT_3D('',#498,#410,#411);
#333=AXIS2_PLACEMENT_3D('',#500,#413,#414);
#334=AXIS2_PLACEMENT_3D('',#501,#415,#416);
#335=AXIS2_PLACEMENT_3D('',#502,#417,#418);
#336=AXIS2_PLACEMENT_3D('',#504,#419,#420);
#337=AXIS2_PLACEMENT_3D('',#505,#421,#422);
#338=AXIS2_PLACEMENT_3D('',#506,#423,#424);
#339=AXIS2_PLACEMENT_3D('',#508,#425,#426);
#340=AXIS2_PLACEMENT_3D('',#510,#428,#429);
#341=DIRECTION('axis',(0.,0.,1.));
#342=DIRECTION('refdir',(1.,0.,0.));
#343=DIRECTION('center_axis',(0.,0.,-1.));
#344=DIRECTION('ref_axis',(1.,0.,0.));
#345=DIRECTION('center_axis',(0.,0.,-1.));
#346=DIRECTION('ref_axis',(1.,0.,0.));
#347=DIRECTION('',(0.,0.,-1.));
#348=DIRECTION('center_axis',(0.,0.,1.));
#349=DIRECTION('ref_axis',(1.,0.,0.));
#350=DIRECTION('center_axis',(0.,0.,-1.));
#351=DIRECTION('ref_axis',(1.,0.,0.));
#352=DIRECTION('center_axis',(0.,0.,-1.));
#353=DIRECTION('ref_axis',(1.,0.,0.));
#354=DIRECTION('',(0.,0.,-1.));
#355=DIRECTION('center_axis',(0.,0.,1.));
#356=DIRECTION('ref_axis',(1.,0.,0.));
#357=DIRECTION('center_axis',(0.,0.,-1.));
#358=DIRECTION('ref_axis',(1.,0.,0.));
#359=DIRECTION('center_axis',(0.,0.,-1.));
#360=DIRECTION('ref_axis',(1.,0.,0.));
#361=DIRECTION('',(0.,0.,-1.));
#362=DIRECTION('center_axis',(0.,0.,1.));
#363=DIRECTION('ref_axis',(1.,0.,0.));
#364=DIRECTION('center_axis',(0.,0.,-1.));
#365=DIRECTION('ref_axis',(1.,0.,0.));
#366=DIRECTION('center_axis',(0.,0.,-1.));
#367=DIRECTION('ref_axis',(1.,0.,0.));
#368=DIRECTION('',(0.,0.,-1.));
#369=DIRECTION('center_axis',(0.,0.,1.));
#370=DIRECTION('ref_axis',(1.,0.,0.));
#371=DIRECTION('center_axis',(0.,-1.,0.));
#372=DIRECTION('ref_axis',(0.,0.,-1.));
#373=DIRECTION('',(0.,0.,-1.));
#374=DIRECTION('',(1.,0.,0.));
#375=DIRECTION('',(0.,0.,1.));
#376=DIRECTION('',(1.,0.,0.));
#377=DIRECTION('center_axis',(0.,1.,0.));
#378=DIRECTION('ref_axis',(0.,0.,1.));
#379=DIRECTION('',(0.,0.,1.));
#380=DIRECTION('',(-1.,0.,0.));
#381=DIRECTION('',(0.,0.,-1.));
#382=DIRECTION('',(1.,0.,0.));
#383=DIRECTION('center_axis',(0.,0.,1.));
#384=DIRECTION('ref_axis',(1.,0.,0.));
#385=DIRECTION('center_axis',(0.,0.,-1.));
#386=DIRECTION('ref_axis',(1.,0.,0.));
#387=DIRECTION('',(1.,0.,0.));
#388=DIRECTION('center_axis',(0.,0.,1.));
#389=DIRECTION('ref_axis',(1.,0.,0.));
#390=DIRECTION('',(1.,0.,0.));
#391=DIRECTION('center_axis',(0.,0.,-1.));
#392=DIRECTION('ref_axis',(1.,0.,0.));
#393=DIRECTION('center_axis',(0.,0.,1.));
#394=DIRECTION('ref_axis',(1.,0.,0.));
#395=DIRECTION('center_axis',(0.,0.,-1.));
#396=DIRECTION('ref_axis',(1.,0.,0.));
#397=DIRECTION('center_axis',(0.,0.,1.));
#398=DIRECTION('ref_axis',(1.,0.,0.));
#399=DIRECTION('',(0.,0.,1.));
#400=DIRECTION('center_axis',(0.,0.,-1.));
#401=DIRECTION('ref_axis',(1.,0.,0.));
#402=DIRECTION('center_axis',(0.,0.,-1.));
#403=DIRECTION('ref_axis',(1.,0.,0.));
#404=DIRECTION('',(-1.,0.,0.));
#405=DIRECTION('center_axis',(0.,-1.,0.));
#406=DIRECTION('ref_axis',(0.,0.,-1.));
#407=DIRECTION('',(0.,0.,-1.));
#408=DIRECTION('',(0.,0.,1.));
#409=DIRECTION('',(1.,0.,0.));
#410=DIRECTION('center_axis',(0.,1.,0.));
#411=DIRECTION('ref_axis',(0.,0.,1.));
#412=DIRECTION('',(0.,0.,-1.));
#413=DIRECTION('center_axis',(0.,0.,-1.));
#414=DIRECTION('ref_axis',(-1.,1.22464679914735E-16,0.));
#415=DIRECTION('center_axis',(0.,0.,1.));
#416=DIRECTION('ref_axis',(1.,0.,0.));
#417=DIRECTION('center_axis',(0.,0.,-1.));
#418=DIRECTION('ref_axis',(1.,0.,0.));
#419=DIRECTION('center_axis',(0.,0.,-1.));
#420=DIRECTION('ref_axis',(1.,0.,0.));
#421=DIRECTION('center_axis',(0.,0.,-1.));
#422=DIRECTION('ref_axis',(1.,0.,0.));
#423=DIRECTION('center_axis',(0.,0.,1.));
#424=DIRECTION('ref_axis',(1.,0.,0.));
#425=DIRECTION('center_axis',(0.,0.,1.));
#426=DIRECTION('ref_axis',(1.,0.,0.));
#427=DIRECTION('',(0.,0.,-1.));
#428=DIRECTION('center_axis',(0.,0.,1.));
#429=DIRECTION('ref_axis',(1.,0.,0.));
#430=CARTESIAN_POINT('',(0.,0.,0.));
#431=CARTESIAN_POINT('Origin',(-43.025408491563,45.6154051330974,5.));
#432=CARTESIAN_POINT('',(-45.525408491563,45.6154051330974,10.));
#433=CARTESIAN_POINT('Origin',(-43.025408491563,45.6154051330974,10.));
#434=CARTESIAN_POINT('',(-45.525408491563,45.6154051330974,0.));
#435=CARTESIAN_POINT('',(-45.525408491563,45.6154051330974,5.));
#436=CARTESIAN_POINT('Origin',(-43.025408491563,45.6154051330974,0.));
#437=CARTESIAN_POINT('Origin',(46.974591508437,45.6154051330974,5.));
#438=CARTESIAN_POINT('',(44.474591508437,45.6154051330974,10.));
#439=CARTESIAN_POINT('Origin',(46.974591508437,45.6154051330974,10.));
#440=CARTESIAN_POINT('',(44.474591508437,45.6154051330974,0.));
#441=CARTESIAN_POINT('',(44.474591508437,45.6154051330974,5.));
#442=CARTESIAN_POINT('Origin',(46.974591508437,45.6154051330974,0.));
#443=CARTESIAN_POINT('Origin',(46.974591508437,-49.3845948669026,5.));
#444=CARTESIAN_POINT('',(44.474591508437,-49.3845948669026,10.));
#445=CARTESIAN_POINT('Origin',(46.974591508437,-49.3845948669026,10.));
#446=CARTESIAN_POINT('',(44.474591508437,-49.3845948669026,0.));
#447=CARTESIAN_POINT('',(44.474591508437,-49.3845948669026,5.));
#448=CARTESIAN_POINT('Origin',(46.974591508437,-49.3845948669026,0.));
#449=CARTESIAN_POINT('Origin',(-43.025408491563,-49.3845948669026,5.));
#450=CARTESIAN_POINT('',(-45.525408491563,-49.3845948669026,10.));
#451=CARTESIAN_POINT('Origin',(-43.025408491563,-49.3845948669026,10.));
#452=CARTESIAN_POINT('',(-45.525408491563,-49.3845948669026,0.));
#453=CARTESIAN_POINT('',(-45.525408491563,-49.3845948669026,5.));
#454=CARTESIAN_POINT('Origin',(-43.025408491563,-49.3845948669026,0.));
#455=CARTESIAN_POINT('Origin',(0.,25.,0.));
#456=CARTESIAN_POINT('',(97.3408958249306,25.,0.));
#457=CARTESIAN_POINT('',(97.3408958249306,25.,-10.));
#458=CARTESIAN_POINT('',(97.3408958249306,25.,0.));
#459=CARTESIAN_POINT('',(101.980390271856,25.,0.));
#460=CARTESIAN_POINT('',(0.,25.,0.));
#461=CARTESIAN_POINT('',(101.980390271856,25.,-10.));
#462=CARTESIAN_POINT('',(101.980390271856,25.,0.));
#463=CARTESIAN_POINT('',(0.,25.,-10.));
#464=CARTESIAN_POINT('Origin',(0.,50.,-10.));
#465=CARTESIAN_POINT('',(87.1794127073588,50.,-10.));
#466=CARTESIAN_POINT('',(87.1794127073588,50.,0.));
#467=CARTESIAN_POINT('',(87.1794127073588,50.,0.));
#468=CARTESIAN_POINT('',(92.3309265630969,50.,-10.));
#469=CARTESIAN_POINT('',(0.,50.,-10.));
#470=CARTESIAN_POINT('',(92.3309265630969,50.,0.));
#471=CARTESIAN_POINT('',(92.3309265630969,50.,0.));
#472=CARTESIAN_POINT('',(0.,50.,0.));
#473=CARTESIAN_POINT('Origin',(0.,0.,0.));
#474=CARTESIAN_POINT('',(97.3408958249306,-25.,0.));
#475=CARTESIAN_POINT('Origin',(0.,0.,0.));
#476=CARTESIAN_POINT('',(101.980390271856,-25.,0.));
#477=CARTESIAN_POINT('',(0.,-25.,0.));
#478=CARTESIAN_POINT('',(92.3309265630969,-50.,0.));
#479=CARTESIAN_POINT('Origin',(0.,0.,0.));
#480=CARTESIAN_POINT('',(87.1794127073588,-50.,0.));
#481=CARTESIAN_POINT('',(0.,-50.,0.));
#482=CARTESIAN_POINT('Origin',(0.,0.,0.));
#483=CARTESIAN_POINT('Origin',(0.,0.,0.));
#484=CARTESIAN_POINT('Origin',(0.,0.,0.));
#485=CARTESIAN_POINT('',(97.3408958249306,-25.,-10.));
#486=CARTESIAN_POINT('Origin',(0.,0.,-10.));
#487=CARTESIAN_POINT('',(97.3408958249306,-25.,0.));
#488=CARTESIAN_POINT('Origin',(0.,0.,-10.));
#489=CARTESIAN_POINT('',(101.980390271856,-25.,-10.));
#490=CARTESIAN_POINT('Origin',(0.,0.,-10.));
#491=CARTESIAN_POINT('',(0.,-25.,-10.));
#492=CARTESIAN_POINT('Origin',(0.,-50.,0.));
#493=CARTESIAN_POINT('',(87.1794127073588,-50.,-10.));
#494=CARTESIAN_POINT('',(87.1794127073588,-50.,0.));
#495=CARTESIAN_POINT('',(92.3309265630969,-50.,-10.));
#496=CARTESIAN_POINT('',(92.3309265630969,-50.,0.));
#497=CARTESIAN_POINT('',(0.,-50.,-10.));
#498=CARTESIAN_POINT('Origin',(0.,-25.,-10.));
#499=CARTESIAN_POINT('',(101.980390271856,-25.,0.));
#500=CARTESIAN_POINT('Origin',(0.,0.,0.));
#501=CARTESIAN_POINT('Origin',(0.,0.,-10.));
#502=CARTESIAN_POINT('Origin',(0.,0.,-10.));
#503=CARTESIAN_POINT('',(-105.,-1.28587913910472E-14,-10.));
#504=CARTESIAN_POINT('Origin',(0.,0.,-10.));
#505=CARTESIAN_POINT('Origin',(0.,0.,-10.));
#506=CARTESIAN_POINT('Origin',(0.,0.,0.));
#507=CARTESIAN_POINT('',(-105.,-1.28587913910472E-14,10.));
#508=CARTESIAN_POINT('Origin',(0.,0.,10.));
#509=CARTESIAN_POINT('',(-105.,-1.28587913910472E-14,0.));
#510=CARTESIAN_POINT('Origin',(0.,0.,10.));
#511=UNCERTAINTY_MEASURE_WITH_UNIT(LENGTH_MEASURE(0.01),#515,
'DISTANCE_ACCURACY_VALUE',
'Maximum model space distance between geometric entities at asserted c
onnectivities');
#512=UNCERTAINTY_MEASURE_WITH_UNIT(LENGTH_MEASURE(0.01),#515,
'DISTANCE_ACCURACY_VALUE',
'Maximum model space distance between geometric entities at asserted c
onnectivities');
#513=(
GEOMETRIC_REPRESENTATION_CONTEXT(3)
GLOBAL_UNCERTAINTY_ASSIGNED_CONTEXT((#511))
GLOBAL_UNIT_ASSIGNED_CONTEXT((#515,#517,#518))
REPRESENTATION_CONTEXT('','3D')
);
#514=(
GEOMETRIC_REPRESENTATION_CONTEXT(3)
GLOBAL_UNCERTAINTY_ASSIGNED_CONTEXT((#512))
GLOBAL_UNIT_ASSIGNED_CONTEXT((#515,#517,#518))
REPRESENTATION_CONTEXT('','3D')
);
#515=(
LENGTH_UNIT()
NAMED_UNIT(*)
SI_UNIT(.MILLI.,.METRE.)
);
#516=(
LENGTH_UNIT()
NAMED_UNIT(*)
SI_UNIT($,.METRE.)
);
#517=(
NAMED_UNIT(*)
PLANE_ANGLE_UNIT()
SI_UNIT($,.RADIAN.)
);
#518=(
NAMED_UNIT(*)
SI_UNIT($,.STERADIAN.)
SOLID_ANGLE_UNIT()
);
#519=SHAPE_DEFINITION_REPRESENTATION(#520,#521);
#520=PRODUCT_DEFINITION_SHAPE('',$,#523);
#521=SHAPE_REPRESENTATION('',(#307),#513);
#522=PRODUCT_DEFINITION_CONTEXT('part definition',#527,'design');
#523=PRODUCT_DEFINITION('Pan_to_Microphone_Mount',
'Pan_to_Microphone_Mount v1',#524,#522);
#524=PRODUCT_DEFINITION_FORMATION('',$,#529);
#525=PRODUCT_RELATED_PRODUCT_CATEGORY('Pan_to_Microphone_Mount v1',
'Pan_to_Microphone_Mount v1',(#529));
#526=APPLICATION_PROTOCOL_DEFINITION('international standard',
'automotive_design',2009,#527);
#527=APPLICATION_CONTEXT(
'Core Data for Automotive Mechanical Design Process');
#528=PRODUCT_CONTEXT('part definition',#527,'mechanical');
#529=PRODUCT('Pan_to_Microphone_Mount','Pan_to_Microphone_Mount v1',$,(#528));
#530=PRESENTATION_STYLE_ASSIGNMENT((#531));
#531=SURFACE_STYLE_USAGE(.BOTH.,#532);
#532=SURFACE_SIDE_STYLE('',(#533));
#533=SURFACE_STYLE_FILL_AREA(#534);
#534=FILL_AREA_STYLE('Steel - Satin',(#535));
#535=FILL_AREA_STYLE_COLOUR('Steel - Satin',#536);
#536=COLOUR_RGB('Steel - Satin',0.627450980392157,0.627450980392157,0.627450980392157);
ENDSEC;
END-ISO-10303-21;
