ISO-10303-21;
HEADER;
/* Generated by software containing ST-Developer
 * from STEP Tools, Inc. (www.steptools.com) 
 */

FILE_DESCRIPTION(
/* description */ (''),
/* implementation_level */ '2;1');

FILE_NAME(
/* name */ 'Pan_platform_V3.step',
/* time_stamp */ '2026-05-16T18:25:19+02:00',
/* author */ (''),
/* organization */ (''),
/* preprocessor_version */ 'ST-DEVELOPER v20.1',
/* originating_system */ 'Autodesk Translation Framework v15.8.0.0',
/* authorisation */ '');

FILE_SCHEMA (('AUTOMOTIVE_DESIGN { 1 0 10303 214 3 1 1 }'));
ENDSEC;

DATA;
#10=MECHANICAL_DESIGN_GEOMETRIC_PRESENTATION_REPRESENTATION('',(#13),#1641);
#11=SHAPE_REPRESENTATION_RELATIONSHIP('SRR','None',#1648,#12);
#12=ADVANCED_BREP_SHAPE_REPRESENTATION('',(#14),#1640);
#13=STYLED_ITEM('',(#1657),#14);
#14=MANIFOLD_SOLID_BREP('Body1',#981);
#15=FACE_BOUND('',#179,.T.);
#16=FACE_BOUND('',#180,.T.);
#17=FACE_BOUND('',#181,.T.);
#18=FACE_BOUND('',#182,.T.);
#19=FACE_BOUND('',#183,.T.);
#20=FACE_BOUND('',#184,.T.);
#21=FACE_BOUND('',#185,.T.);
#22=FACE_BOUND('',#186,.T.);
#23=FACE_BOUND('',#187,.T.);
#24=FACE_BOUND('',#188,.T.);
#25=FACE_BOUND('',#189,.T.);
#26=FACE_BOUND('',#190,.T.);
#27=FACE_BOUND('',#191,.T.);
#28=FACE_BOUND('',#192,.T.);
#29=FACE_BOUND('',#193,.T.);
#30=FACE_BOUND('',#194,.T.);
#31=FACE_BOUND('',#195,.T.);
#32=FACE_BOUND('',#196,.T.);
#33=FACE_BOUND('',#197,.T.);
#34=FACE_BOUND('',#198,.T.);
#35=FACE_BOUND('',#199,.T.);
#36=FACE_BOUND('',#200,.T.);
#37=FACE_BOUND('',#201,.T.);
#38=FACE_BOUND('',#202,.T.);
#39=FACE_BOUND('',#204,.T.);
#40=FACE_BOUND('',#205,.T.);
#41=FACE_BOUND('',#206,.T.);
#42=FACE_BOUND('',#207,.T.);
#43=FACE_BOUND('',#208,.T.);
#44=FACE_BOUND('',#209,.T.);
#45=FACE_BOUND('',#210,.T.);
#46=FACE_BOUND('',#211,.T.);
#47=FACE_BOUND('',#212,.T.);
#48=FACE_BOUND('',#213,.T.);
#49=FACE_BOUND('',#214,.T.);
#50=FACE_BOUND('',#215,.T.);
#51=FACE_BOUND('',#216,.T.);
#52=FACE_BOUND('',#217,.T.);
#53=FACE_BOUND('',#218,.T.);
#54=FACE_BOUND('',#219,.T.);
#55=FACE_BOUND('',#220,.T.);
#56=FACE_BOUND('',#221,.T.);
#57=FACE_BOUND('',#222,.T.);
#58=FACE_BOUND('',#223,.T.);
#59=FACE_BOUND('',#224,.T.);
#60=FACE_BOUND('',#225,.T.);
#61=FACE_BOUND('',#226,.T.);
#62=FACE_BOUND('',#227,.T.);
#63=FACE_BOUND('',#228,.T.);
#64=FACE_BOUND('',#229,.T.);
#65=FACE_BOUND('',#230,.T.);
#66=FACE_BOUND('',#242,.T.);
#67=PLANE('',#998);
#68=PLANE('',#1002);
#69=PLANE('',#1006);
#70=PLANE('',#1010);
#71=PLANE('',#1068);
#72=PLANE('',#1069);
#73=PLANE('',#1070);
#74=PLANE('',#1071);
#75=PLANE('',#1072);
#76=PLANE('',#1073);
#77=PLANE('',#1074);
#78=PLANE('',#1075);
#79=PLANE('',#1076);
#80=PLANE('',#1077);
#81=PLANE('',#1078);
#82=PLANE('',#1081);
#83=PLANE('',#1083);
#84=PLANE('',#1084);
#85=PLANE('',#1085);
#86=PLANE('',#1087);
#87=PLANE('',#1088);
#88=PLANE('',#1089);
#89=PLANE('',#1095);
#90=PLANE('',#1096);
#91=FACE_OUTER_BOUND('',#141,.T.);
#92=FACE_OUTER_BOUND('',#142,.T.);
#93=FACE_OUTER_BOUND('',#143,.T.);
#94=FACE_OUTER_BOUND('',#144,.T.);
#95=FACE_OUTER_BOUND('',#145,.T.);
#96=FACE_OUTER_BOUND('',#146,.T.);
#97=FACE_OUTER_BOUND('',#147,.T.);
#98=FACE_OUTER_BOUND('',#148,.T.);
#99=FACE_OUTER_BOUND('',#149,.T.);
#100=FACE_OUTER_BOUND('',#150,.T.);
#101=FACE_OUTER_BOUND('',#151,.T.);
#102=FACE_OUTER_BOUND('',#152,.T.);
#103=FACE_OUTER_BOUND('',#153,.T.);
#104=FACE_OUTER_BOUND('',#154,.T.);
#105=FACE_OUTER_BOUND('',#155,.T.);
#106=FACE_OUTER_BOUND('',#156,.T.);
#107=FACE_OUTER_BOUND('',#157,.T.);
#108=FACE_OUTER_BOUND('',#158,.T.);
#109=FACE_OUTER_BOUND('',#159,.T.);
#110=FACE_OUTER_BOUND('',#160,.T.);
#111=FACE_OUTER_BOUND('',#161,.T.);
#112=FACE_OUTER_BOUND('',#162,.T.);
#113=FACE_OUTER_BOUND('',#163,.T.);
#114=FACE_OUTER_BOUND('',#164,.T.);
#115=FACE_OUTER_BOUND('',#165,.T.);
#116=FACE_OUTER_BOUND('',#166,.T.);
#117=FACE_OUTER_BOUND('',#167,.T.);
#118=FACE_OUTER_BOUND('',#168,.T.);
#119=FACE_OUTER_BOUND('',#169,.T.);
#120=FACE_OUTER_BOUND('',#170,.T.);
#121=FACE_OUTER_BOUND('',#171,.T.);
#122=FACE_OUTER_BOUND('',#172,.T.);
#123=FACE_OUTER_BOUND('',#173,.T.);
#124=FACE_OUTER_BOUND('',#174,.T.);
#125=FACE_OUTER_BOUND('',#175,.T.);
#126=FACE_OUTER_BOUND('',#176,.T.);
#127=FACE_OUTER_BOUND('',#177,.T.);
#128=FACE_OUTER_BOUND('',#178,.T.);
#129=FACE_OUTER_BOUND('',#203,.T.);
#130=FACE_OUTER_BOUND('',#231,.T.);
#131=FACE_OUTER_BOUND('',#232,.T.);
#132=FACE_OUTER_BOUND('',#233,.T.);
#133=FACE_OUTER_BOUND('',#234,.T.);
#134=FACE_OUTER_BOUND('',#235,.T.);
#135=FACE_OUTER_BOUND('',#236,.T.);
#136=FACE_OUTER_BOUND('',#237,.T.);
#137=FACE_OUTER_BOUND('',#238,.T.);
#138=FACE_OUTER_BOUND('',#239,.T.);
#139=FACE_OUTER_BOUND('',#240,.T.);
#140=FACE_OUTER_BOUND('',#241,.T.);
#141=EDGE_LOOP('',(#653,#654,#655,#656));
#142=EDGE_LOOP('',(#657));
#143=EDGE_LOOP('',(#658,#659,#660,#661));
#144=EDGE_LOOP('',(#662));
#145=EDGE_LOOP('',(#663,#664,#665,#666));
#146=EDGE_LOOP('',(#667));
#147=EDGE_LOOP('',(#668,#669,#670,#671));
#148=EDGE_LOOP('',(#672));
#149=EDGE_LOOP('',(#673,#674,#675,#676));
#150=EDGE_LOOP('',(#677,#678,#679,#680));
#151=EDGE_LOOP('',(#681,#682,#683,#684));
#152=EDGE_LOOP('',(#685,#686,#687,#688));
#153=EDGE_LOOP('',(#689,#690,#691,#692));
#154=EDGE_LOOP('',(#693,#694,#695,#696));
#155=EDGE_LOOP('',(#697,#698,#699,#700));
#156=EDGE_LOOP('',(#701,#702,#703,#704));
#157=EDGE_LOOP('',(#705,#706,#707,#708));
#158=EDGE_LOOP('',(#709,#710,#711,#712));
#159=EDGE_LOOP('',(#713,#714,#715,#716));
#160=EDGE_LOOP('',(#717,#718,#719,#720));
#161=EDGE_LOOP('',(#721,#722,#723,#724));
#162=EDGE_LOOP('',(#725,#726,#727,#728));
#163=EDGE_LOOP('',(#729,#730,#731,#732));
#164=EDGE_LOOP('',(#733,#734,#735,#736));
#165=EDGE_LOOP('',(#737,#738,#739,#740));
#166=EDGE_LOOP('',(#741,#742,#743,#744));
#167=EDGE_LOOP('',(#745,#746,#747,#748));
#168=EDGE_LOOP('',(#749,#750,#751,#752));
#169=EDGE_LOOP('',(#753,#754,#755,#756));
#170=EDGE_LOOP('',(#757,#758,#759,#760));
#171=EDGE_LOOP('',(#761,#762,#763,#764));
#172=EDGE_LOOP('',(#765,#766,#767,#768));
#173=EDGE_LOOP('',(#769,#770,#771,#772));
#174=EDGE_LOOP('',(#773,#774,#775,#776));
#175=EDGE_LOOP('',(#777,#778,#779,#780));
#176=EDGE_LOOP('',(#781,#782,#783,#784));
#177=EDGE_LOOP('',(#785,#786,#787,#788));
#178=EDGE_LOOP('',(#789));
#179=EDGE_LOOP('',(#790));
#180=EDGE_LOOP('',(#791));
#181=EDGE_LOOP('',(#792));
#182=EDGE_LOOP('',(#793));
#183=EDGE_LOOP('',(#794));
#184=EDGE_LOOP('',(#795));
#185=EDGE_LOOP('',(#796));
#186=EDGE_LOOP('',(#797));
#187=EDGE_LOOP('',(#798));
#188=EDGE_LOOP('',(#799));
#189=EDGE_LOOP('',(#800));
#190=EDGE_LOOP('',(#801));
#191=EDGE_LOOP('',(#802));
#192=EDGE_LOOP('',(#803));
#193=EDGE_LOOP('',(#804));
#194=EDGE_LOOP('',(#805));
#195=EDGE_LOOP('',(#806));
#196=EDGE_LOOP('',(#807));
#197=EDGE_LOOP('',(#808));
#198=EDGE_LOOP('',(#809,#810,#811,#812));
#199=EDGE_LOOP('',(#813,#814,#815,#816));
#200=EDGE_LOOP('',(#817));
#201=EDGE_LOOP('',(#818,#819,#820,#821));
#202=EDGE_LOOP('',(#822,#823,#824,#825));
#203=EDGE_LOOP('',(#826));
#204=EDGE_LOOP('',(#827));
#205=EDGE_LOOP('',(#828));
#206=EDGE_LOOP('',(#829));
#207=EDGE_LOOP('',(#830));
#208=EDGE_LOOP('',(#831));
#209=EDGE_LOOP('',(#832));
#210=EDGE_LOOP('',(#833));
#211=EDGE_LOOP('',(#834));
#212=EDGE_LOOP('',(#835));
#213=EDGE_LOOP('',(#836));
#214=EDGE_LOOP('',(#837));
#215=EDGE_LOOP('',(#838));
#216=EDGE_LOOP('',(#839));
#217=EDGE_LOOP('',(#840));
#218=EDGE_LOOP('',(#841));
#219=EDGE_LOOP('',(#842));
#220=EDGE_LOOP('',(#843));
#221=EDGE_LOOP('',(#844));
#222=EDGE_LOOP('',(#845));
#223=EDGE_LOOP('',(#846));
#224=EDGE_LOOP('',(#847));
#225=EDGE_LOOP('',(#848));
#226=EDGE_LOOP('',(#849));
#227=EDGE_LOOP('',(#850,#851,#852,#853));
#228=EDGE_LOOP('',(#854,#855,#856,#857));
#229=EDGE_LOOP('',(#858,#859,#860,#861));
#230=EDGE_LOOP('',(#862,#863,#864,#865));
#231=EDGE_LOOP('',(#866,#867,#868,#869));
#232=EDGE_LOOP('',(#870,#871,#872,#873));
#233=EDGE_LOOP('',(#874,#875,#876,#877));
#234=EDGE_LOOP('',(#878,#879,#880,#881));
#235=EDGE_LOOP('',(#882,#883,#884,#885));
#236=EDGE_LOOP('',(#886,#887,#888,#889));
#237=EDGE_LOOP('',(#890,#891,#892,#893));
#238=EDGE_LOOP('',(#894,#895,#896,#897));
#239=EDGE_LOOP('',(#898,#899,#900,#901));
#240=EDGE_LOOP('',(#902));
#241=EDGE_LOOP('',(#903));
#242=EDGE_LOOP('',(#904));
#243=LINE('',#1382,#317);
#244=LINE('',#1389,#318);
#245=LINE('',#1396,#319);
#246=LINE('',#1403,#320);
#247=LINE('',#1410,#321);
#248=LINE('',#1416,#322);
#249=LINE('',#1422,#323);
#250=LINE('',#1428,#324);
#251=LINE('',#1434,#325);
#252=LINE('',#1440,#326);
#253=LINE('',#1446,#327);
#254=LINE('',#1452,#328);
#255=LINE('',#1458,#329);
#256=LINE('',#1464,#330);
#257=LINE('',#1470,#331);
#258=LINE('',#1476,#332);
#259=LINE('',#1482,#333);
#260=LINE('',#1488,#334);
#261=LINE('',#1494,#335);
#262=LINE('',#1500,#336);
#263=LINE('',#1506,#337);
#264=LINE('',#1512,#338);
#265=LINE('',#1518,#339);
#266=LINE('',#1523,#340);
#267=LINE('',#1525,#341);
#268=LINE('',#1527,#342);
#269=LINE('',#1528,#343);
#270=LINE('',#1531,#344);
#271=LINE('',#1533,#345);
#272=LINE('',#1534,#346);
#273=LINE('',#1537,#347);
#274=LINE('',#1539,#348);
#275=LINE('',#1540,#349);
#276=LINE('',#1542,#350);
#277=LINE('',#1543,#351);
#278=LINE('',#1547,#352);
#279=LINE('',#1549,#353);
#280=LINE('',#1551,#354);
#281=LINE('',#1552,#355);
#282=LINE('',#1555,#356);
#283=LINE('',#1557,#357);
#284=LINE('',#1558,#358);
#285=LINE('',#1561,#359);
#286=LINE('',#1563,#360);
#287=LINE('',#1564,#361);
#288=LINE('',#1566,#362);
#289=LINE('',#1567,#363);
#290=LINE('',#1571,#364);
#291=LINE('',#1573,#365);
#292=LINE('',#1575,#366);
#293=LINE('',#1576,#367);
#294=LINE('',#1580,#368);
#295=LINE('',#1582,#369);
#296=LINE('',#1584,#370);
#297=LINE('',#1585,#371);
#298=LINE('',#1592,#372);
#299=LINE('',#1594,#373);
#300=LINE('',#1595,#374);
#301=LINE('',#1597,#375);
#302=LINE('',#1599,#376);
#303=LINE('',#1600,#377);
#304=LINE('',#1605,#378);
#305=LINE('',#1607,#379);
#306=LINE('',#1608,#380);
#307=LINE('',#1610,#381);
#308=LINE('',#1612,#382);
#309=LINE('',#1613,#383);
#310=LINE('',#1615,#384);
#311=LINE('',#1617,#385);
#312=LINE('',#1620,#386);
#313=LINE('',#1622,#387);
#314=LINE('',#1623,#388);
#315=LINE('',#1629,#389);
#316=LINE('',#1634,#390);
#317=VECTOR('',#1103,5.);
#318=VECTOR('',#1112,5.);
#319=VECTOR('',#1121,5.);
#320=VECTOR('',#1130,5.);
#321=VECTOR('',#1139,2.117);
#322=VECTOR('',#1146,2.117);
#323=VECTOR('',#1153,2.117);
#324=VECTOR('',#1160,2.117);
#325=VECTOR('',#1167,2.117);
#326=VECTOR('',#1174,2.117);
#327=VECTOR('',#1181,2.117);
#328=VECTOR('',#1188,2.117);
#329=VECTOR('',#1195,2.117);
#330=VECTOR('',#1202,2.117);
#331=VECTOR('',#1209,2.117);
#332=VECTOR('',#1216,2.117);
#333=VECTOR('',#1223,2.117);
#334=VECTOR('',#1230,2.117);
#335=VECTOR('',#1237,2.117);
#336=VECTOR('',#1244,2.117);
#337=VECTOR('',#1251,2.117);
#338=VECTOR('',#1258,2.117);
#339=VECTOR('',#1265,15.);
#340=VECTOR('',#1270,10.);
#341=VECTOR('',#1271,10.);
#342=VECTOR('',#1272,10.);
#343=VECTOR('',#1273,10.);
#344=VECTOR('',#1276,10.);
#345=VECTOR('',#1277,10.);
#346=VECTOR('',#1278,10.);
#347=VECTOR('',#1281,10.);
#348=VECTOR('',#1282,10.);
#349=VECTOR('',#1283,10.);
#350=VECTOR('',#1286,10.);
#351=VECTOR('',#1287,10.);
#352=VECTOR('',#1290,10.);
#353=VECTOR('',#1291,10.);
#354=VECTOR('',#1292,10.);
#355=VECTOR('',#1293,10.);
#356=VECTOR('',#1296,10.);
#357=VECTOR('',#1297,10.);
#358=VECTOR('',#1298,10.);
#359=VECTOR('',#1301,10.);
#360=VECTOR('',#1302,10.);
#361=VECTOR('',#1303,10.);
#362=VECTOR('',#1306,10.);
#363=VECTOR('',#1307,10.);
#364=VECTOR('',#1310,10.);
#365=VECTOR('',#1311,10.);
#366=VECTOR('',#1312,10.);
#367=VECTOR('',#1313,10.);
#368=VECTOR('',#1316,10.);
#369=VECTOR('',#1317,10.);
#370=VECTOR('',#1318,10.);
#371=VECTOR('',#1319,10.);
#372=VECTOR('',#1326,10.);
#373=VECTOR('',#1327,10.);
#374=VECTOR('',#1328,10.);
#375=VECTOR('',#1329,10.);
#376=VECTOR('',#1330,10.);
#377=VECTOR('',#1331,10.);
#378=VECTOR('',#1336,10.);
#379=VECTOR('',#1337,10.);
#380=VECTOR('',#1338,10.);
#381=VECTOR('',#1339,10.);
#382=VECTOR('',#1340,10.);
#383=VECTOR('',#1341,10.);
#384=VECTOR('',#1344,10.);
#385=VECTOR('',#1347,10.);
#386=VECTOR('',#1352,95.);
#387=VECTOR('',#1355,10.);
#388=VECTOR('',#1356,10.);
#389=VECTOR('',#1365,27.5);
#390=VECTOR('',#1370,23.55);
#391=CIRCLE('',#996,5.);
#392=CIRCLE('',#997,5.);
#393=CIRCLE('',#1000,5.);
#394=CIRCLE('',#1001,5.);
#395=CIRCLE('',#1004,5.);
#396=CIRCLE('',#1005,5.);
#397=CIRCLE('',#1008,5.);
#398=CIRCLE('',#1009,5.);
#399=CIRCLE('',#1012,2.117);
#400=CIRCLE('',#1013,2.117);
#401=CIRCLE('',#1015,2.117);
#402=CIRCLE('',#1016,2.117);
#403=CIRCLE('',#1018,2.117);
#404=CIRCLE('',#1019,2.117);
#405=CIRCLE('',#1021,2.117);
#406=CIRCLE('',#1022,2.117);
#407=CIRCLE('',#1024,2.117);
#408=CIRCLE('',#1025,2.117);
#409=CIRCLE('',#1027,2.117);
#410=CIRCLE('',#1028,2.117);
#411=CIRCLE('',#1030,2.117);
#412=CIRCLE('',#1031,2.117);
#413=CIRCLE('',#1033,2.117);
#414=CIRCLE('',#1034,2.117);
#415=CIRCLE('',#1036,2.117);
#416=CIRCLE('',#1037,2.117);
#417=CIRCLE('',#1039,2.117);
#418=CIRCLE('',#1040,2.117);
#419=CIRCLE('',#1042,2.117);
#420=CIRCLE('',#1043,2.117);
#421=CIRCLE('',#1045,2.117);
#422=CIRCLE('',#1046,2.117);
#423=CIRCLE('',#1048,2.117);
#424=CIRCLE('',#1049,2.117);
#425=CIRCLE('',#1051,2.117);
#426=CIRCLE('',#1052,2.117);
#427=CIRCLE('',#1054,2.117);
#428=CIRCLE('',#1055,2.117);
#429=CIRCLE('',#1057,2.117);
#430=CIRCLE('',#1058,2.117);
#431=CIRCLE('',#1060,2.117);
#432=CIRCLE('',#1061,2.117);
#433=CIRCLE('',#1063,2.117);
#434=CIRCLE('',#1064,2.117);
#435=CIRCLE('',#1066,15.);
#436=CIRCLE('',#1067,15.);
#437=CIRCLE('',#1079,100.);
#438=CIRCLE('',#1080,27.5);
#439=CIRCLE('',#1082,100.);
#440=CIRCLE('',#1091,27.5);
#441=CIRCLE('',#1093,23.55);
#442=CIRCLE('',#1094,23.55);
#443=VERTEX_POINT('',#1379);
#444=VERTEX_POINT('',#1381);
#445=VERTEX_POINT('',#1386);
#446=VERTEX_POINT('',#1388);
#447=VERTEX_POINT('',#1393);
#448=VERTEX_POINT('',#1395);
#449=VERTEX_POINT('',#1400);
#450=VERTEX_POINT('',#1402);
#451=VERTEX_POINT('',#1407);
#452=VERTEX_POINT('',#1409);
#453=VERTEX_POINT('',#1413);
#454=VERTEX_POINT('',#1415);
#455=VERTEX_POINT('',#1419);
#456=VERTEX_POINT('',#1421);
#457=VERTEX_POINT('',#1425);
#458=VERTEX_POINT('',#1427);
#459=VERTEX_POINT('',#1431);
#460=VERTEX_POINT('',#1433);
#461=VERTEX_POINT('',#1437);
#462=VERTEX_POINT('',#1439);
#463=VERTEX_POINT('',#1443);
#464=VERTEX_POINT('',#1445);
#465=VERTEX_POINT('',#1449);
#466=VERTEX_POINT('',#1451);
#467=VERTEX_POINT('',#1455);
#468=VERTEX_POINT('',#1457);
#469=VERTEX_POINT('',#1461);
#470=VERTEX_POINT('',#1463);
#471=VERTEX_POINT('',#1467);
#472=VERTEX_POINT('',#1469);
#473=VERTEX_POINT('',#1473);
#474=VERTEX_POINT('',#1475);
#475=VERTEX_POINT('',#1479);
#476=VERTEX_POINT('',#1481);
#477=VERTEX_POINT('',#1485);
#478=VERTEX_POINT('',#1487);
#479=VERTEX_POINT('',#1491);
#480=VERTEX_POINT('',#1493);
#481=VERTEX_POINT('',#1497);
#482=VERTEX_POINT('',#1499);
#483=VERTEX_POINT('',#1503);
#484=VERTEX_POINT('',#1505);
#485=VERTEX_POINT('',#1509);
#486=VERTEX_POINT('',#1511);
#487=VERTEX_POINT('',#1515);
#488=VERTEX_POINT('',#1517);
#489=VERTEX_POINT('',#1521);
#490=VERTEX_POINT('',#1522);
#491=VERTEX_POINT('',#1524);
#492=VERTEX_POINT('',#1526);
#493=VERTEX_POINT('',#1530);
#494=VERTEX_POINT('',#1532);
#495=VERTEX_POINT('',#1536);
#496=VERTEX_POINT('',#1538);
#497=VERTEX_POINT('',#1545);
#498=VERTEX_POINT('',#1546);
#499=VERTEX_POINT('',#1548);
#500=VERTEX_POINT('',#1550);
#501=VERTEX_POINT('',#1554);
#502=VERTEX_POINT('',#1556);
#503=VERTEX_POINT('',#1560);
#504=VERTEX_POINT('',#1562);
#505=VERTEX_POINT('',#1569);
#506=VERTEX_POINT('',#1570);
#507=VERTEX_POINT('',#1572);
#508=VERTEX_POINT('',#1574);
#509=VERTEX_POINT('',#1578);
#510=VERTEX_POINT('',#1579);
#511=VERTEX_POINT('',#1581);
#512=VERTEX_POINT('',#1583);
#513=VERTEX_POINT('',#1587);
#514=VERTEX_POINT('',#1589);
#515=VERTEX_POINT('',#1591);
#516=VERTEX_POINT('',#1593);
#517=VERTEX_POINT('',#1596);
#518=VERTEX_POINT('',#1598);
#519=VERTEX_POINT('',#1602);
#520=VERTEX_POINT('',#1604);
#521=VERTEX_POINT('',#1606);
#522=VERTEX_POINT('',#1609);
#523=VERTEX_POINT('',#1611);
#524=VERTEX_POINT('',#1627);
#525=VERTEX_POINT('',#1631);
#526=VERTEX_POINT('',#1633);
#527=EDGE_CURVE('',#443,#443,#391,.T.);
#528=EDGE_CURVE('',#443,#444,#243,.T.);
#529=EDGE_CURVE('',#444,#444,#392,.T.);
#530=EDGE_CURVE('',#445,#445,#393,.T.);
#531=EDGE_CURVE('',#445,#446,#244,.T.);
#532=EDGE_CURVE('',#446,#446,#394,.T.);
#533=EDGE_CURVE('',#447,#447,#395,.T.);
#534=EDGE_CURVE('',#447,#448,#245,.T.);
#535=EDGE_CURVE('',#448,#448,#396,.T.);
#536=EDGE_CURVE('',#449,#449,#397,.T.);
#537=EDGE_CURVE('',#449,#450,#246,.T.);
#538=EDGE_CURVE('',#450,#450,#398,.T.);
#539=EDGE_CURVE('',#451,#451,#399,.T.);
#540=EDGE_CURVE('',#451,#452,#247,.T.);
#541=EDGE_CURVE('',#452,#452,#400,.T.);
#542=EDGE_CURVE('',#453,#453,#401,.T.);
#543=EDGE_CURVE('',#453,#454,#248,.T.);
#544=EDGE_CURVE('',#454,#454,#402,.T.);
#545=EDGE_CURVE('',#455,#455,#403,.T.);
#546=EDGE_CURVE('',#455,#456,#249,.T.);
#547=EDGE_CURVE('',#456,#456,#404,.T.);
#548=EDGE_CURVE('',#457,#457,#405,.T.);
#549=EDGE_CURVE('',#457,#458,#250,.T.);
#550=EDGE_CURVE('',#458,#458,#406,.T.);
#551=EDGE_CURVE('',#459,#459,#407,.T.);
#552=EDGE_CURVE('',#459,#460,#251,.T.);
#553=EDGE_CURVE('',#460,#460,#408,.T.);
#554=EDGE_CURVE('',#461,#461,#409,.T.);
#555=EDGE_CURVE('',#461,#462,#252,.T.);
#556=EDGE_CURVE('',#462,#462,#410,.T.);
#557=EDGE_CURVE('',#463,#463,#411,.T.);
#558=EDGE_CURVE('',#463,#464,#253,.T.);
#559=EDGE_CURVE('',#464,#464,#412,.T.);
#560=EDGE_CURVE('',#465,#465,#413,.T.);
#561=EDGE_CURVE('',#465,#466,#254,.T.);
#562=EDGE_CURVE('',#466,#466,#414,.T.);
#563=EDGE_CURVE('',#467,#467,#415,.T.);
#564=EDGE_CURVE('',#467,#468,#255,.T.);
#565=EDGE_CURVE('',#468,#468,#416,.T.);
#566=EDGE_CURVE('',#469,#469,#417,.T.);
#567=EDGE_CURVE('',#469,#470,#256,.T.);
#568=EDGE_CURVE('',#470,#470,#418,.T.);
#569=EDGE_CURVE('',#471,#471,#419,.T.);
#570=EDGE_CURVE('',#471,#472,#257,.T.);
#571=EDGE_CURVE('',#472,#472,#420,.T.);
#572=EDGE_CURVE('',#473,#473,#421,.T.);
#573=EDGE_CURVE('',#473,#474,#258,.T.);
#574=EDGE_CURVE('',#474,#474,#422,.T.);
#575=EDGE_CURVE('',#475,#475,#423,.T.);
#576=EDGE_CURVE('',#475,#476,#259,.T.);
#577=EDGE_CURVE('',#476,#476,#424,.T.);
#578=EDGE_CURVE('',#477,#477,#425,.T.);
#579=EDGE_CURVE('',#477,#478,#260,.T.);
#580=EDGE_CURVE('',#478,#478,#426,.T.);
#581=EDGE_CURVE('',#479,#479,#427,.T.);
#582=EDGE_CURVE('',#479,#480,#261,.T.);
#583=EDGE_CURVE('',#480,#480,#428,.T.);
#584=EDGE_CURVE('',#481,#481,#429,.T.);
#585=EDGE_CURVE('',#481,#482,#262,.T.);
#586=EDGE_CURVE('',#482,#482,#430,.T.);
#587=EDGE_CURVE('',#483,#483,#431,.T.);
#588=EDGE_CURVE('',#483,#484,#263,.T.);
#589=EDGE_CURVE('',#484,#484,#432,.T.);
#590=EDGE_CURVE('',#485,#485,#433,.T.);
#591=EDGE_CURVE('',#485,#486,#264,.T.);
#592=EDGE_CURVE('',#486,#486,#434,.T.);
#593=EDGE_CURVE('',#487,#487,#435,.T.);
#594=EDGE_CURVE('',#487,#488,#265,.T.);
#595=EDGE_CURVE('',#488,#488,#436,.T.);
#596=EDGE_CURVE('',#489,#490,#266,.T.);
#597=EDGE_CURVE('',#489,#491,#267,.F.);
#598=EDGE_CURVE('',#492,#491,#268,.F.);
#599=EDGE_CURVE('',#490,#492,#269,.F.);
#600=EDGE_CURVE('',#493,#489,#270,.T.);
#601=EDGE_CURVE('',#493,#494,#271,.T.);
#602=EDGE_CURVE('',#491,#494,#272,.T.);
#603=EDGE_CURVE('',#495,#493,#273,.T.);
#604=EDGE_CURVE('',#495,#496,#274,.T.);
#605=EDGE_CURVE('',#494,#496,#275,.T.);
#606=EDGE_CURVE('',#490,#495,#276,.T.);
#607=EDGE_CURVE('',#496,#492,#277,.F.);
#608=EDGE_CURVE('',#497,#498,#278,.T.);
#609=EDGE_CURVE('',#497,#499,#279,.T.);
#610=EDGE_CURVE('',#500,#499,#280,.T.);
#611=EDGE_CURVE('',#498,#500,#281,.T.);
#612=EDGE_CURVE('',#501,#497,#282,.T.);
#613=EDGE_CURVE('',#501,#502,#283,.T.);
#614=EDGE_CURVE('',#499,#502,#284,.F.);
#615=EDGE_CURVE('',#503,#501,#285,.T.);
#616=EDGE_CURVE('',#503,#504,#286,.F.);
#617=EDGE_CURVE('',#502,#504,#287,.F.);
#618=EDGE_CURVE('',#498,#503,#288,.T.);
#619=EDGE_CURVE('',#504,#500,#289,.T.);
#620=EDGE_CURVE('',#505,#506,#290,.T.);
#621=EDGE_CURVE('',#507,#505,#291,.T.);
#622=EDGE_CURVE('',#507,#508,#292,.T.);
#623=EDGE_CURVE('',#506,#508,#293,.T.);
#624=EDGE_CURVE('',#509,#510,#294,.T.);
#625=EDGE_CURVE('',#511,#509,#295,.T.);
#626=EDGE_CURVE('',#512,#511,#296,.F.);
#627=EDGE_CURVE('',#510,#512,#297,.T.);
#628=EDGE_CURVE('',#513,#513,#437,.F.);
#629=EDGE_CURVE('',#514,#514,#438,.T.);
#630=EDGE_CURVE('',#509,#515,#298,.T.);
#631=EDGE_CURVE('',#515,#516,#299,.F.);
#632=EDGE_CURVE('',#516,#511,#300,.F.);
#633=EDGE_CURVE('',#508,#517,#301,.F.);
#634=EDGE_CURVE('',#517,#518,#302,.F.);
#635=EDGE_CURVE('',#518,#506,#303,.T.);
#636=EDGE_CURVE('',#519,#519,#439,.F.);
#637=EDGE_CURVE('',#512,#520,#304,.T.);
#638=EDGE_CURVE('',#520,#521,#305,.T.);
#639=EDGE_CURVE('',#521,#510,#306,.T.);
#640=EDGE_CURVE('',#505,#522,#307,.T.);
#641=EDGE_CURVE('',#522,#523,#308,.T.);
#642=EDGE_CURVE('',#523,#507,#309,.T.);
#643=EDGE_CURVE('',#521,#515,#310,.T.);
#644=EDGE_CURVE('',#520,#516,#311,.T.);
#645=EDGE_CURVE('',#519,#513,#312,.T.);
#646=EDGE_CURVE('',#522,#518,#313,.F.);
#647=EDGE_CURVE('',#523,#517,#314,.T.);
#648=EDGE_CURVE('',#524,#524,#440,.T.);
#649=EDGE_CURVE('',#524,#514,#315,.T.);
#650=EDGE_CURVE('',#525,#525,#441,.T.);
#651=EDGE_CURVE('',#525,#526,#316,.T.);
#652=EDGE_CURVE('',#526,#526,#442,.T.);
#653=ORIENTED_EDGE('',*,*,#527,.F.);
#654=ORIENTED_EDGE('',*,*,#528,.T.);
#655=ORIENTED_EDGE('',*,*,#529,.T.);
#656=ORIENTED_EDGE('',*,*,#528,.F.);
#657=ORIENTED_EDGE('',*,*,#529,.F.);
#658=ORIENTED_EDGE('',*,*,#530,.F.);
#659=ORIENTED_EDGE('',*,*,#531,.T.);
#660=ORIENTED_EDGE('',*,*,#532,.T.);
#661=ORIENTED_EDGE('',*,*,#531,.F.);
#662=ORIENTED_EDGE('',*,*,#532,.F.);
#663=ORIENTED_EDGE('',*,*,#533,.F.);
#664=ORIENTED_EDGE('',*,*,#534,.T.);
#665=ORIENTED_EDGE('',*,*,#535,.T.);
#666=ORIENTED_EDGE('',*,*,#534,.F.);
#667=ORIENTED_EDGE('',*,*,#535,.F.);
#668=ORIENTED_EDGE('',*,*,#536,.F.);
#669=ORIENTED_EDGE('',*,*,#537,.T.);
#670=ORIENTED_EDGE('',*,*,#538,.T.);
#671=ORIENTED_EDGE('',*,*,#537,.F.);
#672=ORIENTED_EDGE('',*,*,#538,.F.);
#673=ORIENTED_EDGE('',*,*,#539,.F.);
#674=ORIENTED_EDGE('',*,*,#540,.T.);
#675=ORIENTED_EDGE('',*,*,#541,.F.);
#676=ORIENTED_EDGE('',*,*,#540,.F.);
#677=ORIENTED_EDGE('',*,*,#542,.F.);
#678=ORIENTED_EDGE('',*,*,#543,.T.);
#679=ORIENTED_EDGE('',*,*,#544,.F.);
#680=ORIENTED_EDGE('',*,*,#543,.F.);
#681=ORIENTED_EDGE('',*,*,#545,.F.);
#682=ORIENTED_EDGE('',*,*,#546,.T.);
#683=ORIENTED_EDGE('',*,*,#547,.F.);
#684=ORIENTED_EDGE('',*,*,#546,.F.);
#685=ORIENTED_EDGE('',*,*,#548,.F.);
#686=ORIENTED_EDGE('',*,*,#549,.T.);
#687=ORIENTED_EDGE('',*,*,#550,.F.);
#688=ORIENTED_EDGE('',*,*,#549,.F.);
#689=ORIENTED_EDGE('',*,*,#551,.F.);
#690=ORIENTED_EDGE('',*,*,#552,.T.);
#691=ORIENTED_EDGE('',*,*,#553,.F.);
#692=ORIENTED_EDGE('',*,*,#552,.F.);
#693=ORIENTED_EDGE('',*,*,#554,.F.);
#694=ORIENTED_EDGE('',*,*,#555,.T.);
#695=ORIENTED_EDGE('',*,*,#556,.F.);
#696=ORIENTED_EDGE('',*,*,#555,.F.);
#697=ORIENTED_EDGE('',*,*,#557,.F.);
#698=ORIENTED_EDGE('',*,*,#558,.T.);
#699=ORIENTED_EDGE('',*,*,#559,.F.);
#700=ORIENTED_EDGE('',*,*,#558,.F.);
#701=ORIENTED_EDGE('',*,*,#560,.F.);
#702=ORIENTED_EDGE('',*,*,#561,.T.);
#703=ORIENTED_EDGE('',*,*,#562,.F.);
#704=ORIENTED_EDGE('',*,*,#561,.F.);
#705=ORIENTED_EDGE('',*,*,#563,.F.);
#706=ORIENTED_EDGE('',*,*,#564,.T.);
#707=ORIENTED_EDGE('',*,*,#565,.F.);
#708=ORIENTED_EDGE('',*,*,#564,.F.);
#709=ORIENTED_EDGE('',*,*,#566,.F.);
#710=ORIENTED_EDGE('',*,*,#567,.T.);
#711=ORIENTED_EDGE('',*,*,#568,.F.);
#712=ORIENTED_EDGE('',*,*,#567,.F.);
#713=ORIENTED_EDGE('',*,*,#569,.F.);
#714=ORIENTED_EDGE('',*,*,#570,.T.);
#715=ORIENTED_EDGE('',*,*,#571,.F.);
#716=ORIENTED_EDGE('',*,*,#570,.F.);
#717=ORIENTED_EDGE('',*,*,#572,.F.);
#718=ORIENTED_EDGE('',*,*,#573,.T.);
#719=ORIENTED_EDGE('',*,*,#574,.F.);
#720=ORIENTED_EDGE('',*,*,#573,.F.);
#721=ORIENTED_EDGE('',*,*,#575,.F.);
#722=ORIENTED_EDGE('',*,*,#576,.T.);
#723=ORIENTED_EDGE('',*,*,#577,.F.);
#724=ORIENTED_EDGE('',*,*,#576,.F.);
#725=ORIENTED_EDGE('',*,*,#578,.F.);
#726=ORIENTED_EDGE('',*,*,#579,.T.);
#727=ORIENTED_EDGE('',*,*,#580,.F.);
#728=ORIENTED_EDGE('',*,*,#579,.F.);
#729=ORIENTED_EDGE('',*,*,#581,.F.);
#730=ORIENTED_EDGE('',*,*,#582,.T.);
#731=ORIENTED_EDGE('',*,*,#583,.F.);
#732=ORIENTED_EDGE('',*,*,#582,.F.);
#733=ORIENTED_EDGE('',*,*,#584,.F.);
#734=ORIENTED_EDGE('',*,*,#585,.T.);
#735=ORIENTED_EDGE('',*,*,#586,.F.);
#736=ORIENTED_EDGE('',*,*,#585,.F.);
#737=ORIENTED_EDGE('',*,*,#587,.F.);
#738=ORIENTED_EDGE('',*,*,#588,.T.);
#739=ORIENTED_EDGE('',*,*,#589,.F.);
#740=ORIENTED_EDGE('',*,*,#588,.F.);
#741=ORIENTED_EDGE('',*,*,#590,.F.);
#742=ORIENTED_EDGE('',*,*,#591,.T.);
#743=ORIENTED_EDGE('',*,*,#592,.F.);
#744=ORIENTED_EDGE('',*,*,#591,.F.);
#745=ORIENTED_EDGE('',*,*,#593,.F.);
#746=ORIENTED_EDGE('',*,*,#594,.T.);
#747=ORIENTED_EDGE('',*,*,#595,.F.);
#748=ORIENTED_EDGE('',*,*,#594,.F.);
#749=ORIENTED_EDGE('',*,*,#596,.F.);
#750=ORIENTED_EDGE('',*,*,#597,.T.);
#751=ORIENTED_EDGE('',*,*,#598,.F.);
#752=ORIENTED_EDGE('',*,*,#599,.F.);
#753=ORIENTED_EDGE('',*,*,#600,.F.);
#754=ORIENTED_EDGE('',*,*,#601,.T.);
#755=ORIENTED_EDGE('',*,*,#602,.F.);
#756=ORIENTED_EDGE('',*,*,#597,.F.);
#757=ORIENTED_EDGE('',*,*,#603,.F.);
#758=ORIENTED_EDGE('',*,*,#604,.T.);
#759=ORIENTED_EDGE('',*,*,#605,.F.);
#760=ORIENTED_EDGE('',*,*,#601,.F.);
#761=ORIENTED_EDGE('',*,*,#606,.F.);
#762=ORIENTED_EDGE('',*,*,#599,.T.);
#763=ORIENTED_EDGE('',*,*,#607,.F.);
#764=ORIENTED_EDGE('',*,*,#604,.F.);
#765=ORIENTED_EDGE('',*,*,#608,.F.);
#766=ORIENTED_EDGE('',*,*,#609,.T.);
#767=ORIENTED_EDGE('',*,*,#610,.F.);
#768=ORIENTED_EDGE('',*,*,#611,.F.);
#769=ORIENTED_EDGE('',*,*,#612,.F.);
#770=ORIENTED_EDGE('',*,*,#613,.T.);
#771=ORIENTED_EDGE('',*,*,#614,.F.);
#772=ORIENTED_EDGE('',*,*,#609,.F.);
#773=ORIENTED_EDGE('',*,*,#615,.F.);
#774=ORIENTED_EDGE('',*,*,#616,.T.);
#775=ORIENTED_EDGE('',*,*,#617,.F.);
#776=ORIENTED_EDGE('',*,*,#613,.F.);
#777=ORIENTED_EDGE('',*,*,#618,.F.);
#778=ORIENTED_EDGE('',*,*,#611,.T.);
#779=ORIENTED_EDGE('',*,*,#619,.F.);
#780=ORIENTED_EDGE('',*,*,#616,.F.);
#781=ORIENTED_EDGE('',*,*,#620,.F.);
#782=ORIENTED_EDGE('',*,*,#621,.F.);
#783=ORIENTED_EDGE('',*,*,#622,.T.);
#784=ORIENTED_EDGE('',*,*,#623,.F.);
#785=ORIENTED_EDGE('',*,*,#624,.F.);
#786=ORIENTED_EDGE('',*,*,#625,.F.);
#787=ORIENTED_EDGE('',*,*,#626,.F.);
#788=ORIENTED_EDGE('',*,*,#627,.F.);
#789=ORIENTED_EDGE('',*,*,#628,.F.);
#790=ORIENTED_EDGE('',*,*,#541,.T.);
#791=ORIENTED_EDGE('',*,*,#544,.T.);
#792=ORIENTED_EDGE('',*,*,#547,.T.);
#793=ORIENTED_EDGE('',*,*,#550,.T.);
#794=ORIENTED_EDGE('',*,*,#553,.T.);
#795=ORIENTED_EDGE('',*,*,#556,.T.);
#796=ORIENTED_EDGE('',*,*,#559,.T.);
#797=ORIENTED_EDGE('',*,*,#562,.T.);
#798=ORIENTED_EDGE('',*,*,#565,.T.);
#799=ORIENTED_EDGE('',*,*,#568,.T.);
#800=ORIENTED_EDGE('',*,*,#571,.T.);
#801=ORIENTED_EDGE('',*,*,#574,.T.);
#802=ORIENTED_EDGE('',*,*,#577,.T.);
#803=ORIENTED_EDGE('',*,*,#580,.T.);
#804=ORIENTED_EDGE('',*,*,#583,.T.);
#805=ORIENTED_EDGE('',*,*,#586,.T.);
#806=ORIENTED_EDGE('',*,*,#589,.T.);
#807=ORIENTED_EDGE('',*,*,#592,.T.);
#808=ORIENTED_EDGE('',*,*,#595,.T.);
#809=ORIENTED_EDGE('',*,*,#598,.T.);
#810=ORIENTED_EDGE('',*,*,#602,.T.);
#811=ORIENTED_EDGE('',*,*,#605,.T.);
#812=ORIENTED_EDGE('',*,*,#607,.T.);
#813=ORIENTED_EDGE('',*,*,#610,.T.);
#814=ORIENTED_EDGE('',*,*,#614,.T.);
#815=ORIENTED_EDGE('',*,*,#617,.T.);
#816=ORIENTED_EDGE('',*,*,#619,.T.);
#817=ORIENTED_EDGE('',*,*,#629,.T.);
#818=ORIENTED_EDGE('',*,*,#630,.T.);
#819=ORIENTED_EDGE('',*,*,#631,.T.);
#820=ORIENTED_EDGE('',*,*,#632,.T.);
#821=ORIENTED_EDGE('',*,*,#625,.T.);
#822=ORIENTED_EDGE('',*,*,#623,.T.);
#823=ORIENTED_EDGE('',*,*,#633,.T.);
#824=ORIENTED_EDGE('',*,*,#634,.T.);
#825=ORIENTED_EDGE('',*,*,#635,.T.);
#826=ORIENTED_EDGE('',*,*,#636,.T.);
#827=ORIENTED_EDGE('',*,*,#527,.T.);
#828=ORIENTED_EDGE('',*,*,#530,.T.);
#829=ORIENTED_EDGE('',*,*,#533,.T.);
#830=ORIENTED_EDGE('',*,*,#536,.T.);
#831=ORIENTED_EDGE('',*,*,#539,.T.);
#832=ORIENTED_EDGE('',*,*,#542,.T.);
#833=ORIENTED_EDGE('',*,*,#545,.T.);
#834=ORIENTED_EDGE('',*,*,#548,.T.);
#835=ORIENTED_EDGE('',*,*,#551,.T.);
#836=ORIENTED_EDGE('',*,*,#554,.T.);
#837=ORIENTED_EDGE('',*,*,#557,.T.);
#838=ORIENTED_EDGE('',*,*,#560,.T.);
#839=ORIENTED_EDGE('',*,*,#563,.T.);
#840=ORIENTED_EDGE('',*,*,#566,.T.);
#841=ORIENTED_EDGE('',*,*,#569,.T.);
#842=ORIENTED_EDGE('',*,*,#572,.T.);
#843=ORIENTED_EDGE('',*,*,#575,.T.);
#844=ORIENTED_EDGE('',*,*,#578,.T.);
#845=ORIENTED_EDGE('',*,*,#581,.T.);
#846=ORIENTED_EDGE('',*,*,#584,.T.);
#847=ORIENTED_EDGE('',*,*,#587,.T.);
#848=ORIENTED_EDGE('',*,*,#590,.T.);
#849=ORIENTED_EDGE('',*,*,#593,.T.);
#850=ORIENTED_EDGE('',*,*,#596,.T.);
#851=ORIENTED_EDGE('',*,*,#606,.T.);
#852=ORIENTED_EDGE('',*,*,#603,.T.);
#853=ORIENTED_EDGE('',*,*,#600,.T.);
#854=ORIENTED_EDGE('',*,*,#608,.T.);
#855=ORIENTED_EDGE('',*,*,#618,.T.);
#856=ORIENTED_EDGE('',*,*,#615,.T.);
#857=ORIENTED_EDGE('',*,*,#612,.T.);
#858=ORIENTED_EDGE('',*,*,#627,.T.);
#859=ORIENTED_EDGE('',*,*,#637,.T.);
#860=ORIENTED_EDGE('',*,*,#638,.T.);
#861=ORIENTED_EDGE('',*,*,#639,.T.);
#862=ORIENTED_EDGE('',*,*,#640,.T.);
#863=ORIENTED_EDGE('',*,*,#641,.T.);
#864=ORIENTED_EDGE('',*,*,#642,.T.);
#865=ORIENTED_EDGE('',*,*,#621,.T.);
#866=ORIENTED_EDGE('',*,*,#624,.T.);
#867=ORIENTED_EDGE('',*,*,#639,.F.);
#868=ORIENTED_EDGE('',*,*,#643,.T.);
#869=ORIENTED_EDGE('',*,*,#630,.F.);
#870=ORIENTED_EDGE('',*,*,#638,.F.);
#871=ORIENTED_EDGE('',*,*,#644,.T.);
#872=ORIENTED_EDGE('',*,*,#631,.F.);
#873=ORIENTED_EDGE('',*,*,#643,.F.);
#874=ORIENTED_EDGE('',*,*,#637,.F.);
#875=ORIENTED_EDGE('',*,*,#626,.T.);
#876=ORIENTED_EDGE('',*,*,#632,.F.);
#877=ORIENTED_EDGE('',*,*,#644,.F.);
#878=ORIENTED_EDGE('',*,*,#636,.F.);
#879=ORIENTED_EDGE('',*,*,#645,.T.);
#880=ORIENTED_EDGE('',*,*,#628,.T.);
#881=ORIENTED_EDGE('',*,*,#645,.F.);
#882=ORIENTED_EDGE('',*,*,#641,.F.);
#883=ORIENTED_EDGE('',*,*,#646,.T.);
#884=ORIENTED_EDGE('',*,*,#634,.F.);
#885=ORIENTED_EDGE('',*,*,#647,.F.);
#886=ORIENTED_EDGE('',*,*,#620,.T.);
#887=ORIENTED_EDGE('',*,*,#635,.F.);
#888=ORIENTED_EDGE('',*,*,#646,.F.);
#889=ORIENTED_EDGE('',*,*,#640,.F.);
#890=ORIENTED_EDGE('',*,*,#642,.F.);
#891=ORIENTED_EDGE('',*,*,#647,.T.);
#892=ORIENTED_EDGE('',*,*,#633,.F.);
#893=ORIENTED_EDGE('',*,*,#622,.F.);
#894=ORIENTED_EDGE('',*,*,#648,.F.);
#895=ORIENTED_EDGE('',*,*,#649,.T.);
#896=ORIENTED_EDGE('',*,*,#629,.F.);
#897=ORIENTED_EDGE('',*,*,#649,.F.);
#898=ORIENTED_EDGE('',*,*,#650,.F.);
#899=ORIENTED_EDGE('',*,*,#651,.T.);
#900=ORIENTED_EDGE('',*,*,#652,.T.);
#901=ORIENTED_EDGE('',*,*,#651,.F.);
#902=ORIENTED_EDGE('',*,*,#652,.F.);
#903=ORIENTED_EDGE('',*,*,#648,.T.);
#904=ORIENTED_EDGE('',*,*,#650,.T.);
#905=CYLINDRICAL_SURFACE('',#995,5.);
#906=CYLINDRICAL_SURFACE('',#999,5.);
#907=CYLINDRICAL_SURFACE('',#1003,5.);
#908=CYLINDRICAL_SURFACE('',#1007,5.);
#909=CYLINDRICAL_SURFACE('',#1011,2.117);
#910=CYLINDRICAL_SURFACE('',#1014,2.117);
#911=CYLINDRICAL_SURFACE('',#1017,2.117);
#912=CYLINDRICAL_SURFACE('',#1020,2.117);
#913=CYLINDRICAL_SURFACE('',#1023,2.117);
#914=CYLINDRICAL_SURFACE('',#1026,2.117);
#915=CYLINDRICAL_SURFACE('',#1029,2.117);
#916=CYLINDRICAL_SURFACE('',#1032,2.117);
#917=CYLINDRICAL_SURFACE('',#1035,2.117);
#918=CYLINDRICAL_SURFACE('',#1038,2.117);
#919=CYLINDRICAL_SURFACE('',#1041,2.117);
#920=CYLINDRICAL_SURFACE('',#1044,2.117);
#921=CYLINDRICAL_SURFACE('',#1047,2.117);
#922=CYLINDRICAL_SURFACE('',#1050,2.117);
#923=CYLINDRICAL_SURFACE('',#1053,2.117);
#924=CYLINDRICAL_SURFACE('',#1056,2.117);
#925=CYLINDRICAL_SURFACE('',#1059,2.117);
#926=CYLINDRICAL_SURFACE('',#1062,2.117);
#927=CYLINDRICAL_SURFACE('',#1065,15.);
#928=CYLINDRICAL_SURFACE('',#1086,100.);
#929=CYLINDRICAL_SURFACE('',#1090,27.5);
#930=CYLINDRICAL_SURFACE('',#1092,23.55);
#931=ADVANCED_FACE('',(#91),#905,.F.);
#932=ADVANCED_FACE('',(#92),#67,.F.);
#933=ADVANCED_FACE('',(#93),#906,.F.);
#934=ADVANCED_FACE('',(#94),#68,.F.);
#935=ADVANCED_FACE('',(#95),#907,.F.);
#936=ADVANCED_FACE('',(#96),#69,.F.);
#937=ADVANCED_FACE('',(#97),#908,.F.);
#938=ADVANCED_FACE('',(#98),#70,.F.);
#939=ADVANCED_FACE('',(#99),#909,.F.);
#940=ADVANCED_FACE('',(#100),#910,.F.);
#941=ADVANCED_FACE('',(#101),#911,.F.);
#942=ADVANCED_FACE('',(#102),#912,.F.);
#943=ADVANCED_FACE('',(#103),#913,.F.);
#944=ADVANCED_FACE('',(#104),#914,.F.);
#945=ADVANCED_FACE('',(#105),#915,.F.);
#946=ADVANCED_FACE('',(#106),#916,.F.);
#947=ADVANCED_FACE('',(#107),#917,.F.);
#948=ADVANCED_FACE('',(#108),#918,.F.);
#949=ADVANCED_FACE('',(#109),#919,.F.);
#950=ADVANCED_FACE('',(#110),#920,.F.);
#951=ADVANCED_FACE('',(#111),#921,.F.);
#952=ADVANCED_FACE('',(#112),#922,.F.);
#953=ADVANCED_FACE('',(#113),#923,.F.);
#954=ADVANCED_FACE('',(#114),#924,.F.);
#955=ADVANCED_FACE('',(#115),#925,.F.);
#956=ADVANCED_FACE('',(#116),#926,.F.);
#957=ADVANCED_FACE('',(#117),#927,.F.);
#958=ADVANCED_FACE('',(#118),#71,.F.);
#959=ADVANCED_FACE('',(#119),#72,.F.);
#960=ADVANCED_FACE('',(#120),#73,.F.);
#961=ADVANCED_FACE('',(#121),#74,.F.);
#962=ADVANCED_FACE('',(#122),#75,.F.);
#963=ADVANCED_FACE('',(#123),#76,.F.);
#964=ADVANCED_FACE('',(#124),#77,.F.);
#965=ADVANCED_FACE('',(#125),#78,.F.);
#966=ADVANCED_FACE('',(#126),#79,.F.);
#967=ADVANCED_FACE('',(#127),#80,.F.);
#968=ADVANCED_FACE('',(#128,#15,#16,#17,#18,#19,#20,#21,#22,#23,#24,#25,
#26,#27,#28,#29,#30,#31,#32,#33,#34,#35,#36,#37,#38),#81,.F.);
#969=ADVANCED_FACE('',(#129,#39,#40,#41,#42,#43,#44,#45,#46,#47,#48,#49,
#50,#51,#52,#53,#54,#55,#56,#57,#58,#59,#60,#61,#62,#63,#64,#65),#82,.T.);
#970=ADVANCED_FACE('',(#130),#83,.F.);
#971=ADVANCED_FACE('',(#131),#84,.F.);
#972=ADVANCED_FACE('',(#132),#85,.F.);
#973=ADVANCED_FACE('',(#133),#928,.T.);
#974=ADVANCED_FACE('',(#134),#86,.F.);
#975=ADVANCED_FACE('',(#135),#87,.F.);
#976=ADVANCED_FACE('',(#136),#88,.F.);
#977=ADVANCED_FACE('',(#137),#929,.T.);
#978=ADVANCED_FACE('',(#138),#930,.F.);
#979=ADVANCED_FACE('',(#139),#89,.T.);
#980=ADVANCED_FACE('',(#140,#66),#90,.T.);
#981=CLOSED_SHELL('',(#931,#932,#933,#934,#935,#936,#937,#938,#939,#940,
#941,#942,#943,#944,#945,#946,#947,#948,#949,#950,#951,#952,#953,#954,#955,
#956,#957,#958,#959,#960,#961,#962,#963,#964,#965,#966,#967,#968,#969,#970,
#971,#972,#973,#974,#975,#976,#977,#978,#979,#980));
#982=DERIVED_UNIT_ELEMENT(#984,1.);
#983=DERIVED_UNIT_ELEMENT(#1643,-3.);
#984=(
MASS_UNIT()
NAMED_UNIT(*)
SI_UNIT(.KILO.,.GRAM.)
);
#985=DERIVED_UNIT((#982,#983));
#986=MEASURE_REPRESENTATION_ITEM('density measure',
POSITIVE_RATIO_MEASURE(7850.),#985);
#987=PROPERTY_DEFINITION_REPRESENTATION(#992,#989);
#988=PROPERTY_DEFINITION_REPRESENTATION(#993,#990);
#989=REPRESENTATION('material name',(#991),#1640);
#990=REPRESENTATION('density',(#986),#1640);
#991=DESCRIPTIVE_REPRESENTATION_ITEM('Steel','Steel');
#992=PROPERTY_DEFINITION('material property','material name',#1650);
#993=PROPERTY_DEFINITION('material property','density of part',#1650);
#994=AXIS2_PLACEMENT_3D('',#1377,#1097,#1098);
#995=AXIS2_PLACEMENT_3D('',#1378,#1099,#1100);
#996=AXIS2_PLACEMENT_3D('',#1380,#1101,#1102);
#997=AXIS2_PLACEMENT_3D('',#1383,#1104,#1105);
#998=AXIS2_PLACEMENT_3D('',#1384,#1106,#1107);
#999=AXIS2_PLACEMENT_3D('',#1385,#1108,#1109);
#1000=AXIS2_PLACEMENT_3D('',#1387,#1110,#1111);
#1001=AXIS2_PLACEMENT_3D('',#1390,#1113,#1114);
#1002=AXIS2_PLACEMENT_3D('',#1391,#1115,#1116);
#1003=AXIS2_PLACEMENT_3D('',#1392,#1117,#1118);
#1004=AXIS2_PLACEMENT_3D('',#1394,#1119,#1120);
#1005=AXIS2_PLACEMENT_3D('',#1397,#1122,#1123);
#1006=AXIS2_PLACEMENT_3D('',#1398,#1124,#1125);
#1007=AXIS2_PLACEMENT_3D('',#1399,#1126,#1127);
#1008=AXIS2_PLACEMENT_3D('',#1401,#1128,#1129);
#1009=AXIS2_PLACEMENT_3D('',#1404,#1131,#1132);
#1010=AXIS2_PLACEMENT_3D('',#1405,#1133,#1134);
#1011=AXIS2_PLACEMENT_3D('',#1406,#1135,#1136);
#1012=AXIS2_PLACEMENT_3D('',#1408,#1137,#1138);
#1013=AXIS2_PLACEMENT_3D('',#1411,#1140,#1141);
#1014=AXIS2_PLACEMENT_3D('',#1412,#1142,#1143);
#1015=AXIS2_PLACEMENT_3D('',#1414,#1144,#1145);
#1016=AXIS2_PLACEMENT_3D('',#1417,#1147,#1148);
#1017=AXIS2_PLACEMENT_3D('',#1418,#1149,#1150);
#1018=AXIS2_PLACEMENT_3D('',#1420,#1151,#1152);
#1019=AXIS2_PLACEMENT_3D('',#1423,#1154,#1155);
#1020=AXIS2_PLACEMENT_3D('',#1424,#1156,#1157);
#1021=AXIS2_PLACEMENT_3D('',#1426,#1158,#1159);
#1022=AXIS2_PLACEMENT_3D('',#1429,#1161,#1162);
#1023=AXIS2_PLACEMENT_3D('',#1430,#1163,#1164);
#1024=AXIS2_PLACEMENT_3D('',#1432,#1165,#1166);
#1025=AXIS2_PLACEMENT_3D('',#1435,#1168,#1169);
#1026=AXIS2_PLACEMENT_3D('',#1436,#1170,#1171);
#1027=AXIS2_PLACEMENT_3D('',#1438,#1172,#1173);
#1028=AXIS2_PLACEMENT_3D('',#1441,#1175,#1176);
#1029=AXIS2_PLACEMENT_3D('',#1442,#1177,#1178);
#1030=AXIS2_PLACEMENT_3D('',#1444,#1179,#1180);
#1031=AXIS2_PLACEMENT_3D('',#1447,#1182,#1183);
#1032=AXIS2_PLACEMENT_3D('',#1448,#1184,#1185);
#1033=AXIS2_PLACEMENT_3D('',#1450,#1186,#1187);
#1034=AXIS2_PLACEMENT_3D('',#1453,#1189,#1190);
#1035=AXIS2_PLACEMENT_3D('',#1454,#1191,#1192);
#1036=AXIS2_PLACEMENT_3D('',#1456,#1193,#1194);
#1037=AXIS2_PLACEMENT_3D('',#1459,#1196,#1197);
#1038=AXIS2_PLACEMENT_3D('',#1460,#1198,#1199);
#1039=AXIS2_PLACEMENT_3D('',#1462,#1200,#1201);
#1040=AXIS2_PLACEMENT_3D('',#1465,#1203,#1204);
#1041=AXIS2_PLACEMENT_3D('',#1466,#1205,#1206);
#1042=AXIS2_PLACEMENT_3D('',#1468,#1207,#1208);
#1043=AXIS2_PLACEMENT_3D('',#1471,#1210,#1211);
#1044=AXIS2_PLACEMENT_3D('',#1472,#1212,#1213);
#1045=AXIS2_PLACEMENT_3D('',#1474,#1214,#1215);
#1046=AXIS2_PLACEMENT_3D('',#1477,#1217,#1218);
#1047=AXIS2_PLACEMENT_3D('',#1478,#1219,#1220);
#1048=AXIS2_PLACEMENT_3D('',#1480,#1221,#1222);
#1049=AXIS2_PLACEMENT_3D('',#1483,#1224,#1225);
#1050=AXIS2_PLACEMENT_3D('',#1484,#1226,#1227);
#1051=AXIS2_PLACEMENT_3D('',#1486,#1228,#1229);
#1052=AXIS2_PLACEMENT_3D('',#1489,#1231,#1232);
#1053=AXIS2_PLACEMENT_3D('',#1490,#1233,#1234);
#1054=AXIS2_PLACEMENT_3D('',#1492,#1235,#1236);
#1055=AXIS2_PLACEMENT_3D('',#1495,#1238,#1239);
#1056=AXIS2_PLACEMENT_3D('',#1496,#1240,#1241);
#1057=AXIS2_PLACEMENT_3D('',#1498,#1242,#1243);
#1058=AXIS2_PLACEMENT_3D('',#1501,#1245,#1246);
#1059=AXIS2_PLACEMENT_3D('',#1502,#1247,#1248);
#1060=AXIS2_PLACEMENT_3D('',#1504,#1249,#1250);
#1061=AXIS2_PLACEMENT_3D('',#1507,#1252,#1253);
#1062=AXIS2_PLACEMENT_3D('',#1508,#1254,#1255);
#1063=AXIS2_PLACEMENT_3D('',#1510,#1256,#1257);
#1064=AXIS2_PLACEMENT_3D('',#1513,#1259,#1260);
#1065=AXIS2_PLACEMENT_3D('',#1514,#1261,#1262);
#1066=AXIS2_PLACEMENT_3D('',#1516,#1263,#1264);
#1067=AXIS2_PLACEMENT_3D('',#1519,#1266,#1267);
#1068=AXIS2_PLACEMENT_3D('',#1520,#1268,#1269);
#1069=AXIS2_PLACEMENT_3D('',#1529,#1274,#1275);
#1070=AXIS2_PLACEMENT_3D('',#1535,#1279,#1280);
#1071=AXIS2_PLACEMENT_3D('',#1541,#1284,#1285);
#1072=AXIS2_PLACEMENT_3D('',#1544,#1288,#1289);
#1073=AXIS2_PLACEMENT_3D('',#1553,#1294,#1295);
#1074=AXIS2_PLACEMENT_3D('',#1559,#1299,#1300);
#1075=AXIS2_PLACEMENT_3D('',#1565,#1304,#1305);
#1076=AXIS2_PLACEMENT_3D('',#1568,#1308,#1309);
#1077=AXIS2_PLACEMENT_3D('',#1577,#1314,#1315);
#1078=AXIS2_PLACEMENT_3D('',#1586,#1320,#1321);
#1079=AXIS2_PLACEMENT_3D('',#1588,#1322,#1323);
#1080=AXIS2_PLACEMENT_3D('',#1590,#1324,#1325);
#1081=AXIS2_PLACEMENT_3D('',#1601,#1332,#1333);
#1082=AXIS2_PLACEMENT_3D('',#1603,#1334,#1335);
#1083=AXIS2_PLACEMENT_3D('',#1614,#1342,#1343);
#1084=AXIS2_PLACEMENT_3D('',#1616,#1345,#1346);
#1085=AXIS2_PLACEMENT_3D('',#1618,#1348,#1349);
#1086=AXIS2_PLACEMENT_3D('',#1619,#1350,#1351);
#1087=AXIS2_PLACEMENT_3D('',#1621,#1353,#1354);
#1088=AXIS2_PLACEMENT_3D('',#1624,#1357,#1358);
#1089=AXIS2_PLACEMENT_3D('',#1625,#1359,#1360);
#1090=AXIS2_PLACEMENT_3D('',#1626,#1361,#1362);
#1091=AXIS2_PLACEMENT_3D('',#1628,#1363,#1364);
#1092=AXIS2_PLACEMENT_3D('',#1630,#1366,#1367);
#1093=AXIS2_PLACEMENT_3D('',#1632,#1368,#1369);
#1094=AXIS2_PLACEMENT_3D('',#1635,#1371,#1372);
#1095=AXIS2_PLACEMENT_3D('',#1636,#1373,#1374);
#1096=AXIS2_PLACEMENT_3D('',#1637,#1375,#1376);
#1097=DIRECTION('axis',(0.,0.,1.));
#1098=DIRECTION('refdir',(1.,0.,0.));
#1099=DIRECTION('center_axis',(0.,0.,-1.));
#1100=DIRECTION('ref_axis',(1.,0.,0.));
#1101=DIRECTION('center_axis',(0.,0.,-1.));
#1102=DIRECTION('ref_axis',(1.,0.,0.));
#1103=DIRECTION('',(0.,0.,-1.));
#1104=DIRECTION('center_axis',(0.,0.,-1.));
#1105=DIRECTION('ref_axis',(1.,0.,0.));
#1106=DIRECTION('center_axis',(0.,0.,-1.));
#1107=DIRECTION('ref_axis',(1.,0.,0.));
#1108=DIRECTION('center_axis',(0.,0.,-1.));
#1109=DIRECTION('ref_axis',(1.,0.,0.));
#1110=DIRECTION('center_axis',(0.,0.,-1.));
#1111=DIRECTION('ref_axis',(1.,0.,0.));
#1112=DIRECTION('',(0.,0.,-1.));
#1113=DIRECTION('center_axis',(0.,0.,-1.));
#1114=DIRECTION('ref_axis',(1.,0.,0.));
#1115=DIRECTION('center_axis',(0.,0.,-1.));
#1116=DIRECTION('ref_axis',(1.,0.,0.));
#1117=DIRECTION('center_axis',(0.,0.,-1.));
#1118=DIRECTION('ref_axis',(1.,0.,0.));
#1119=DIRECTION('center_axis',(0.,0.,-1.));
#1120=DIRECTION('ref_axis',(1.,0.,0.));
#1121=DIRECTION('',(0.,0.,-1.));
#1122=DIRECTION('center_axis',(0.,0.,-1.));
#1123=DIRECTION('ref_axis',(1.,0.,0.));
#1124=DIRECTION('center_axis',(0.,0.,-1.));
#1125=DIRECTION('ref_axis',(1.,0.,0.));
#1126=DIRECTION('center_axis',(0.,0.,-1.));
#1127=DIRECTION('ref_axis',(1.,0.,0.));
#1128=DIRECTION('center_axis',(0.,0.,-1.));
#1129=DIRECTION('ref_axis',(1.,0.,0.));
#1130=DIRECTION('',(0.,0.,-1.));
#1131=DIRECTION('center_axis',(0.,0.,-1.));
#1132=DIRECTION('ref_axis',(1.,0.,0.));
#1133=DIRECTION('center_axis',(0.,0.,-1.));
#1134=DIRECTION('ref_axis',(1.,0.,0.));
#1135=DIRECTION('center_axis',(0.,0.,-1.));
#1136=DIRECTION('ref_axis',(1.,0.,0.));
#1137=DIRECTION('center_axis',(0.,0.,-1.));
#1138=DIRECTION('ref_axis',(1.,0.,0.));
#1139=DIRECTION('',(0.,0.,-1.));
#1140=DIRECTION('center_axis',(0.,0.,1.));
#1141=DIRECTION('ref_axis',(1.,0.,0.));
#1142=DIRECTION('center_axis',(0.,0.,-1.));
#1143=DIRECTION('ref_axis',(1.,0.,0.));
#1144=DIRECTION('center_axis',(0.,0.,-1.));
#1145=DIRECTION('ref_axis',(1.,0.,0.));
#1146=DIRECTION('',(0.,0.,-1.));
#1147=DIRECTION('center_axis',(0.,0.,1.));
#1148=DIRECTION('ref_axis',(1.,0.,0.));
#1149=DIRECTION('center_axis',(0.,0.,-1.));
#1150=DIRECTION('ref_axis',(1.,0.,0.));
#1151=DIRECTION('center_axis',(0.,0.,-1.));
#1152=DIRECTION('ref_axis',(1.,0.,0.));
#1153=DIRECTION('',(0.,0.,-1.));
#1154=DIRECTION('center_axis',(0.,0.,1.));
#1155=DIRECTION('ref_axis',(1.,0.,0.));
#1156=DIRECTION('center_axis',(0.,0.,-1.));
#1157=DIRECTION('ref_axis',(1.,0.,0.));
#1158=DIRECTION('center_axis',(0.,0.,-1.));
#1159=DIRECTION('ref_axis',(1.,0.,0.));
#1160=DIRECTION('',(0.,0.,-1.));
#1161=DIRECTION('center_axis',(0.,0.,1.));
#1162=DIRECTION('ref_axis',(1.,0.,0.));
#1163=DIRECTION('center_axis',(0.,0.,-1.));
#1164=DIRECTION('ref_axis',(1.,0.,0.));
#1165=DIRECTION('center_axis',(0.,0.,-1.));
#1166=DIRECTION('ref_axis',(1.,0.,0.));
#1167=DIRECTION('',(0.,0.,-1.));
#1168=DIRECTION('center_axis',(0.,0.,1.));
#1169=DIRECTION('ref_axis',(1.,0.,0.));
#1170=DIRECTION('center_axis',(0.,0.,-1.));
#1171=DIRECTION('ref_axis',(1.,0.,0.));
#1172=DIRECTION('center_axis',(0.,0.,-1.));
#1173=DIRECTION('ref_axis',(1.,0.,0.));
#1174=DIRECTION('',(0.,0.,-1.));
#1175=DIRECTION('center_axis',(0.,0.,1.));
#1176=DIRECTION('ref_axis',(1.,0.,0.));
#1177=DIRECTION('center_axis',(0.,0.,-1.));
#1178=DIRECTION('ref_axis',(1.,0.,0.));
#1179=DIRECTION('center_axis',(0.,0.,-1.));
#1180=DIRECTION('ref_axis',(1.,0.,0.));
#1181=DIRECTION('',(0.,0.,-1.));
#1182=DIRECTION('center_axis',(0.,0.,1.));
#1183=DIRECTION('ref_axis',(1.,0.,0.));
#1184=DIRECTION('center_axis',(0.,0.,-1.));
#1185=DIRECTION('ref_axis',(1.,0.,0.));
#1186=DIRECTION('center_axis',(0.,0.,-1.));
#1187=DIRECTION('ref_axis',(1.,0.,0.));
#1188=DIRECTION('',(0.,0.,-1.));
#1189=DIRECTION('center_axis',(0.,0.,1.));
#1190=DIRECTION('ref_axis',(1.,0.,0.));
#1191=DIRECTION('center_axis',(0.,0.,-1.));
#1192=DIRECTION('ref_axis',(1.,0.,0.));
#1193=DIRECTION('center_axis',(0.,0.,-1.));
#1194=DIRECTION('ref_axis',(1.,0.,0.));
#1195=DIRECTION('',(0.,0.,-1.));
#1196=DIRECTION('center_axis',(0.,0.,1.));
#1197=DIRECTION('ref_axis',(1.,0.,0.));
#1198=DIRECTION('center_axis',(0.,0.,-1.));
#1199=DIRECTION('ref_axis',(1.,0.,0.));
#1200=DIRECTION('center_axis',(0.,0.,-1.));
#1201=DIRECTION('ref_axis',(1.,0.,0.));
#1202=DIRECTION('',(0.,0.,-1.));
#1203=DIRECTION('center_axis',(0.,0.,1.));
#1204=DIRECTION('ref_axis',(1.,0.,0.));
#1205=DIRECTION('center_axis',(0.,0.,-1.));
#1206=DIRECTION('ref_axis',(1.,0.,0.));
#1207=DIRECTION('center_axis',(0.,0.,-1.));
#1208=DIRECTION('ref_axis',(1.,0.,0.));
#1209=DIRECTION('',(0.,0.,-1.));
#1210=DIRECTION('center_axis',(0.,0.,1.));
#1211=DIRECTION('ref_axis',(1.,0.,0.));
#1212=DIRECTION('center_axis',(0.,0.,-1.));
#1213=DIRECTION('ref_axis',(1.,0.,0.));
#1214=DIRECTION('center_axis',(0.,0.,-1.));
#1215=DIRECTION('ref_axis',(1.,0.,0.));
#1216=DIRECTION('',(0.,0.,-1.));
#1217=DIRECTION('center_axis',(0.,0.,1.));
#1218=DIRECTION('ref_axis',(1.,0.,0.));
#1219=DIRECTION('center_axis',(0.,0.,-1.));
#1220=DIRECTION('ref_axis',(1.,0.,0.));
#1221=DIRECTION('center_axis',(0.,0.,-1.));
#1222=DIRECTION('ref_axis',(1.,0.,0.));
#1223=DIRECTION('',(0.,0.,-1.));
#1224=DIRECTION('center_axis',(0.,0.,1.));
#1225=DIRECTION('ref_axis',(1.,0.,0.));
#1226=DIRECTION('center_axis',(0.,0.,-1.));
#1227=DIRECTION('ref_axis',(1.,0.,0.));
#1228=DIRECTION('center_axis',(0.,0.,-1.));
#1229=DIRECTION('ref_axis',(1.,0.,0.));
#1230=DIRECTION('',(0.,0.,-1.));
#1231=DIRECTION('center_axis',(0.,0.,1.));
#1232=DIRECTION('ref_axis',(1.,0.,0.));
#1233=DIRECTION('center_axis',(0.,0.,-1.));
#1234=DIRECTION('ref_axis',(1.,0.,0.));
#1235=DIRECTION('center_axis',(0.,0.,-1.));
#1236=DIRECTION('ref_axis',(1.,0.,0.));
#1237=DIRECTION('',(0.,0.,-1.));
#1238=DIRECTION('center_axis',(0.,0.,1.));
#1239=DIRECTION('ref_axis',(1.,0.,0.));
#1240=DIRECTION('center_axis',(0.,0.,-1.));
#1241=DIRECTION('ref_axis',(1.,0.,0.));
#1242=DIRECTION('center_axis',(0.,0.,-1.));
#1243=DIRECTION('ref_axis',(1.,0.,0.));
#1244=DIRECTION('',(0.,0.,-1.));
#1245=DIRECTION('center_axis',(0.,0.,1.));
#1246=DIRECTION('ref_axis',(1.,0.,0.));
#1247=DIRECTION('center_axis',(0.,0.,-1.));
#1248=DIRECTION('ref_axis',(1.,0.,0.));
#1249=DIRECTION('center_axis',(0.,0.,-1.));
#1250=DIRECTION('ref_axis',(1.,0.,0.));
#1251=DIRECTION('',(0.,0.,-1.));
#1252=DIRECTION('center_axis',(0.,0.,1.));
#1253=DIRECTION('ref_axis',(1.,0.,0.));
#1254=DIRECTION('center_axis',(0.,0.,-1.));
#1255=DIRECTION('ref_axis',(1.,0.,0.));
#1256=DIRECTION('center_axis',(0.,0.,-1.));
#1257=DIRECTION('ref_axis',(1.,0.,0.));
#1258=DIRECTION('',(0.,0.,-1.));
#1259=DIRECTION('center_axis',(0.,0.,1.));
#1260=DIRECTION('ref_axis',(1.,0.,0.));
#1261=DIRECTION('center_axis',(0.,0.,-1.));
#1262=DIRECTION('ref_axis',(-1.,0.,0.));
#1263=DIRECTION('center_axis',(0.,0.,-1.));
#1264=DIRECTION('ref_axis',(-1.,0.,0.));
#1265=DIRECTION('',(0.,0.,-1.));
#1266=DIRECTION('center_axis',(0.,0.,1.));
#1267=DIRECTION('ref_axis',(-1.,0.,0.));
#1268=DIRECTION('center_axis',(-1.,0.,0.));
#1269=DIRECTION('ref_axis',(0.,1.,0.));
#1270=DIRECTION('',(0.,1.,0.));
#1271=DIRECTION('',(0.,0.,1.));
#1272=DIRECTION('',(0.,1.,0.));
#1273=DIRECTION('',(0.,0.,1.));
#1274=DIRECTION('center_axis',(0.,-1.,0.));
#1275=DIRECTION('ref_axis',(-1.,0.,0.));
#1276=DIRECTION('',(-1.,0.,0.));
#1277=DIRECTION('',(0.,0.,-1.));
#1278=DIRECTION('',(1.,0.,0.));
#1279=DIRECTION('center_axis',(1.,0.,0.));
#1280=DIRECTION('ref_axis',(0.,-1.,0.));
#1281=DIRECTION('',(0.,-1.,0.));
#1282=DIRECTION('',(0.,0.,-1.));
#1283=DIRECTION('',(0.,1.,0.));
#1284=DIRECTION('center_axis',(0.,1.,0.));
#1285=DIRECTION('ref_axis',(1.,0.,0.));
#1286=DIRECTION('',(1.,0.,0.));
#1287=DIRECTION('',(1.,0.,0.));
#1288=DIRECTION('center_axis',(0.,1.,0.));
#1289=DIRECTION('ref_axis',(1.,0.,0.));
#1290=DIRECTION('',(1.,0.,0.));
#1291=DIRECTION('',(0.,0.,-1.));
#1292=DIRECTION('',(-1.,0.,0.));
#1293=DIRECTION('',(0.,0.,-1.));
#1294=DIRECTION('center_axis',(-1.,0.,0.));
#1295=DIRECTION('ref_axis',(0.,1.,0.));
#1296=DIRECTION('',(0.,1.,0.));
#1297=DIRECTION('',(0.,0.,-1.));
#1298=DIRECTION('',(0.,1.,0.));
#1299=DIRECTION('center_axis',(0.,-1.,0.));
#1300=DIRECTION('ref_axis',(-1.,0.,0.));
#1301=DIRECTION('',(-1.,0.,0.));
#1302=DIRECTION('',(0.,0.,1.));
#1303=DIRECTION('',(-1.,0.,0.));
#1304=DIRECTION('center_axis',(1.,0.,0.));
#1305=DIRECTION('ref_axis',(0.,-1.,0.));
#1306=DIRECTION('',(0.,-1.,0.));
#1307=DIRECTION('',(0.,1.,0.));
#1308=DIRECTION('center_axis',(-1.,0.,0.));
#1309=DIRECTION('ref_axis',(0.,1.,0.));
#1310=DIRECTION('',(0.,0.,-1.));
#1311=DIRECTION('',(0.,1.,0.));
#1312=DIRECTION('',(0.,0.,-1.));
#1313=DIRECTION('',(0.,-1.,0.));
#1314=DIRECTION('center_axis',(-1.,0.,0.));
#1315=DIRECTION('ref_axis',(0.,1.,0.));
#1316=DIRECTION('',(0.,0.,1.));
#1317=DIRECTION('',(0.,-1.,0.));
#1318=DIRECTION('',(0.,0.,1.));
#1319=DIRECTION('',(0.,1.,0.));
#1320=DIRECTION('center_axis',(0.,0.,1.));
#1321=DIRECTION('ref_axis',(1.,0.,0.));
#1322=DIRECTION('center_axis',(0.,0.,-1.));
#1323=DIRECTION('ref_axis',(1.,0.,0.));
#1324=DIRECTION('center_axis',(0.,0.,1.));
#1325=DIRECTION('ref_axis',(1.,0.,0.));
#1326=DIRECTION('',(1.,0.,0.));
#1327=DIRECTION('',(0.,-1.,0.));
#1328=DIRECTION('',(1.,0.,0.));
#1329=DIRECTION('',(-1.,0.,0.));
#1330=DIRECTION('',(0.,-1.,0.));
#1331=DIRECTION('',(-1.,0.,0.));
#1332=DIRECTION('center_axis',(0.,0.,1.));
#1333=DIRECTION('ref_axis',(1.,0.,0.));
#1334=DIRECTION('center_axis',(0.,0.,-1.));
#1335=DIRECTION('ref_axis',(1.,0.,0.));
#1336=DIRECTION('',(1.,0.,0.));
#1337=DIRECTION('',(0.,-1.,0.));
#1338=DIRECTION('',(-1.,0.,0.));
#1339=DIRECTION('',(1.,0.,0.));
#1340=DIRECTION('',(0.,-1.,0.));
#1341=DIRECTION('',(-1.,0.,0.));
#1342=DIRECTION('center_axis',(0.,-1.,0.));
#1343=DIRECTION('ref_axis',(-1.,0.,0.));
#1344=DIRECTION('',(0.,0.,-1.));
#1345=DIRECTION('center_axis',(1.,0.,0.));
#1346=DIRECTION('ref_axis',(0.,-1.,0.));
#1347=DIRECTION('',(0.,0.,-1.));
#1348=DIRECTION('center_axis',(0.,1.,0.));
#1349=DIRECTION('ref_axis',(1.,0.,0.));
#1350=DIRECTION('center_axis',(0.,0.,1.));
#1351=DIRECTION('ref_axis',(1.,0.,0.));
#1352=DIRECTION('',(0.,0.,-1.));
#1353=DIRECTION('center_axis',(1.,0.,0.));
#1354=DIRECTION('ref_axis',(0.,-1.,0.));
#1355=DIRECTION('',(0.,0.,1.));
#1356=DIRECTION('',(0.,0.,-1.));
#1357=DIRECTION('center_axis',(0.,1.,0.));
#1358=DIRECTION('ref_axis',(1.,0.,0.));
#1359=DIRECTION('center_axis',(0.,-1.,0.));
#1360=DIRECTION('ref_axis',(-1.,0.,0.));
#1361=DIRECTION('center_axis',(0.,0.,-1.));
#1362=DIRECTION('ref_axis',(1.,0.,0.));
#1363=DIRECTION('center_axis',(0.,0.,-1.));
#1364=DIRECTION('ref_axis',(1.,0.,0.));
#1365=DIRECTION('',(0.,0.,1.));
#1366=DIRECTION('center_axis',(0.,0.,1.));
#1367=DIRECTION('ref_axis',(1.,0.,0.));
#1368=DIRECTION('center_axis',(0.,0.,1.));
#1369=DIRECTION('ref_axis',(1.,0.,0.));
#1370=DIRECTION('',(0.,0.,1.));
#1371=DIRECTION('center_axis',(0.,0.,1.));
#1372=DIRECTION('ref_axis',(1.,0.,0.));
#1373=DIRECTION('center_axis',(0.,0.,-1.));
#1374=DIRECTION('ref_axis',(1.,0.,0.));
#1375=DIRECTION('center_axis',(0.,0.,-1.));
#1376=DIRECTION('ref_axis',(1.,0.,0.));
#1377=CARTESIAN_POINT('',(0.,0.,0.));
#1378=CARTESIAN_POINT('Origin',(18.6143277792281,-23.1063345756772,6.));
#1379=CARTESIAN_POINT('',(13.6143277792281,-23.1063345756772,10.));
#1380=CARTESIAN_POINT('Origin',(18.6143277792281,-23.1063345756772,10.));
#1381=CARTESIAN_POINT('',(13.6143277792281,-23.1063345756772,2.));
#1382=CARTESIAN_POINT('',(13.6143277792281,-23.1063345756772,6.));
#1383=CARTESIAN_POINT('Origin',(18.6143277792281,-23.1063345756772,2.));
#1384=CARTESIAN_POINT('Origin',(18.6143277792281,-23.1063345756772,2.));
#1385=CARTESIAN_POINT('Origin',(-39.3856722207719,-23.1063345756772,6.));
#1386=CARTESIAN_POINT('',(-44.3856722207719,-23.1063345756772,10.));
#1387=CARTESIAN_POINT('Origin',(-39.3856722207719,-23.1063345756772,10.));
#1388=CARTESIAN_POINT('',(-44.3856722207719,-23.1063345756772,2.));
#1389=CARTESIAN_POINT('',(-44.3856722207719,-23.1063345756772,6.));
#1390=CARTESIAN_POINT('Origin',(-39.3856722207719,-23.1063345756772,2.));
#1391=CARTESIAN_POINT('Origin',(-39.3856722207719,-23.1063345756772,2.));
#1392=CARTESIAN_POINT('Origin',(-39.3856722207719,25.8936654243228,6.));
#1393=CARTESIAN_POINT('',(-44.3856722207719,25.8936654243228,10.));
#1394=CARTESIAN_POINT('Origin',(-39.3856722207719,25.8936654243228,10.));
#1395=CARTESIAN_POINT('',(-44.3856722207719,25.8936654243228,2.));
#1396=CARTESIAN_POINT('',(-44.3856722207719,25.8936654243228,6.));
#1397=CARTESIAN_POINT('Origin',(-39.3856722207719,25.8936654243228,2.));
#1398=CARTESIAN_POINT('Origin',(-39.3856722207719,25.8936654243228,2.));
#1399=CARTESIAN_POINT('Origin',(18.6143277792281,25.8936654243228,6.));
#1400=CARTESIAN_POINT('',(13.6143277792281,25.8936654243228,10.));
#1401=CARTESIAN_POINT('Origin',(18.6143277792281,25.8936654243228,10.));
#1402=CARTESIAN_POINT('',(13.6143277792281,25.8936654243228,2.));
#1403=CARTESIAN_POINT('',(13.6143277792281,25.8936654243228,6.));
#1404=CARTESIAN_POINT('Origin',(18.6143277792281,25.8936654243228,2.));
#1405=CARTESIAN_POINT('Origin',(18.6143277792281,25.8936654243228,2.));
#1406=CARTESIAN_POINT('Origin',(15.4997806436091,73.4997806436091,-5.));
#1407=CARTESIAN_POINT('',(13.3827806436091,73.4997806436091,10.));
#1408=CARTESIAN_POINT('Origin',(15.4997806436091,73.4997806436091,10.));
#1409=CARTESIAN_POINT('',(13.3827806436091,73.4997806436091,0.));
#1410=CARTESIAN_POINT('',(13.3827806436091,73.4997806436091,-5.));
#1411=CARTESIAN_POINT('Origin',(15.4997806436091,73.4997806436091,0.));
#1412=CARTESIAN_POINT('Origin',(-15.4997806436091,73.4997806436091,2.5));
#1413=CARTESIAN_POINT('',(-17.6167806436091,73.4997806436091,10.));
#1414=CARTESIAN_POINT('Origin',(-15.4997806436091,73.4997806436091,10.));
#1415=CARTESIAN_POINT('',(-17.6167806436091,73.4997806436091,0.));
#1416=CARTESIAN_POINT('',(-17.6167806436091,73.4997806436091,2.5));
#1417=CARTESIAN_POINT('Origin',(-15.4997806436091,73.4997806436091,0.));
#1418=CARTESIAN_POINT('Origin',(-15.4997806436091,42.5002193563909,0.));
#1419=CARTESIAN_POINT('',(-17.6167806436091,42.5002193563909,10.));
#1420=CARTESIAN_POINT('Origin',(-15.4997806436091,42.5002193563909,10.));
#1421=CARTESIAN_POINT('',(-17.6167806436091,42.5002193563909,0.));
#1422=CARTESIAN_POINT('',(-17.6167806436091,42.5002193563909,0.));
#1423=CARTESIAN_POINT('Origin',(-15.4997806436091,42.5002193563909,0.));
#1424=CARTESIAN_POINT('Origin',(15.4997806436091,42.5002193563909,2.5));
#1425=CARTESIAN_POINT('',(13.3827806436091,42.5002193563909,10.));
#1426=CARTESIAN_POINT('Origin',(15.4997806436091,42.5002193563909,10.));
#1427=CARTESIAN_POINT('',(13.3827806436091,42.5002193563909,0.));
#1428=CARTESIAN_POINT('',(13.3827806436091,42.5002193563909,2.5));
#1429=CARTESIAN_POINT('Origin',(15.4997806436091,42.5002193563909,0.));
#1430=CARTESIAN_POINT('Origin',(50.,-50.,2.5));
#1431=CARTESIAN_POINT('',(47.883,-50.,10.));
#1432=CARTESIAN_POINT('Origin',(50.,-50.,10.));
#1433=CARTESIAN_POINT('',(47.883,-50.,0.));
#1434=CARTESIAN_POINT('',(47.883,-50.,2.5));
#1435=CARTESIAN_POINT('Origin',(50.,-50.,0.));
#1436=CARTESIAN_POINT('Origin',(50.,-75.,2.5));
#1437=CARTESIAN_POINT('',(47.883,-75.,10.));
#1438=CARTESIAN_POINT('Origin',(50.,-75.,10.));
#1439=CARTESIAN_POINT('',(47.883,-75.,0.));
#1440=CARTESIAN_POINT('',(47.883,-75.,2.5));
#1441=CARTESIAN_POINT('Origin',(50.,-75.,0.));
#1442=CARTESIAN_POINT('Origin',(25.,-75.,2.5));
#1443=CARTESIAN_POINT('',(22.883,-75.,10.));
#1444=CARTESIAN_POINT('Origin',(25.,-75.,10.));
#1445=CARTESIAN_POINT('',(22.883,-75.,0.));
#1446=CARTESIAN_POINT('',(22.883,-75.,2.5));
#1447=CARTESIAN_POINT('Origin',(25.,-75.,0.));
#1448=CARTESIAN_POINT('Origin',(25.,-50.,2.5));
#1449=CARTESIAN_POINT('',(22.883,-50.,10.));
#1450=CARTESIAN_POINT('Origin',(25.,-50.,10.));
#1451=CARTESIAN_POINT('',(22.883,-50.,0.));
#1452=CARTESIAN_POINT('',(22.883,-50.,2.5));
#1453=CARTESIAN_POINT('Origin',(25.,-50.,0.));
#1454=CARTESIAN_POINT('Origin',(0.,-50.,2.5));
#1455=CARTESIAN_POINT('',(-2.117,-50.,10.));
#1456=CARTESIAN_POINT('Origin',(0.,-50.,10.));
#1457=CARTESIAN_POINT('',(-2.117,-50.,0.));
#1458=CARTESIAN_POINT('',(-2.117,-50.,2.5));
#1459=CARTESIAN_POINT('Origin',(0.,-50.,0.));
#1460=CARTESIAN_POINT('Origin',(0.,-75.,2.5));
#1461=CARTESIAN_POINT('',(-2.117,-75.,10.));
#1462=CARTESIAN_POINT('Origin',(0.,-75.,10.));
#1463=CARTESIAN_POINT('',(-2.117,-75.,0.));
#1464=CARTESIAN_POINT('',(-2.117,-75.,2.5));
#1465=CARTESIAN_POINT('Origin',(0.,-75.,0.));
#1466=CARTESIAN_POINT('Origin',(-25.,-75.,2.5));
#1467=CARTESIAN_POINT('',(-27.117,-75.,10.));
#1468=CARTESIAN_POINT('Origin',(-25.,-75.,10.));
#1469=CARTESIAN_POINT('',(-27.117,-75.,0.));
#1470=CARTESIAN_POINT('',(-27.117,-75.,2.5));
#1471=CARTESIAN_POINT('Origin',(-25.,-75.,0.));
#1472=CARTESIAN_POINT('Origin',(-25.,-50.,2.5));
#1473=CARTESIAN_POINT('',(-27.117,-50.,10.));
#1474=CARTESIAN_POINT('Origin',(-25.,-50.,10.));
#1475=CARTESIAN_POINT('',(-27.117,-50.,0.));
#1476=CARTESIAN_POINT('',(-27.117,-50.,2.5));
#1477=CARTESIAN_POINT('Origin',(-25.,-50.,0.));
#1478=CARTESIAN_POINT('Origin',(-50.,-75.,2.5));
#1479=CARTESIAN_POINT('',(-52.117,-75.,10.));
#1480=CARTESIAN_POINT('Origin',(-50.,-75.,10.));
#1481=CARTESIAN_POINT('',(-52.117,-75.,0.));
#1482=CARTESIAN_POINT('',(-52.117,-75.,2.5));
#1483=CARTESIAN_POINT('Origin',(-50.,-75.,0.));
#1484=CARTESIAN_POINT('Origin',(-50.,-50.,2.5));
#1485=CARTESIAN_POINT('',(-52.117,-50.,10.));
#1486=CARTESIAN_POINT('Origin',(-50.,-50.,10.));
#1487=CARTESIAN_POINT('',(-52.117,-50.,0.));
#1488=CARTESIAN_POINT('',(-52.117,-50.,2.5));
#1489=CARTESIAN_POINT('Origin',(-50.,-50.,0.));
#1490=CARTESIAN_POINT('Origin',(58.5,-20.,2.5));
#1491=CARTESIAN_POINT('',(56.383,-20.,10.));
#1492=CARTESIAN_POINT('Origin',(58.5,-20.,10.));
#1493=CARTESIAN_POINT('',(56.383,-20.,0.));
#1494=CARTESIAN_POINT('',(56.383,-20.,2.5));
#1495=CARTESIAN_POINT('Origin',(58.5,-20.,0.));
#1496=CARTESIAN_POINT('Origin',(58.5,20.,2.5));
#1497=CARTESIAN_POINT('',(56.383,20.,10.));
#1498=CARTESIAN_POINT('Origin',(58.5,20.,10.));
#1499=CARTESIAN_POINT('',(56.383,20.,0.));
#1500=CARTESIAN_POINT('',(56.383,20.,2.5));
#1501=CARTESIAN_POINT('Origin',(58.5,20.,0.));
#1502=CARTESIAN_POINT('Origin',(-58.5,20.,2.5));
#1503=CARTESIAN_POINT('',(-60.617,20.,10.));
#1504=CARTESIAN_POINT('Origin',(-58.5,20.,10.));
#1505=CARTESIAN_POINT('',(-60.617,20.,0.));
#1506=CARTESIAN_POINT('',(-60.617,20.,2.5));
#1507=CARTESIAN_POINT('Origin',(-58.5,20.,0.));
#1508=CARTESIAN_POINT('Origin',(-58.5,-20.,2.5));
#1509=CARTESIAN_POINT('',(-60.617,-20.,10.));
#1510=CARTESIAN_POINT('Origin',(-58.5,-20.,10.));
#1511=CARTESIAN_POINT('',(-60.617,-20.,0.));
#1512=CARTESIAN_POINT('',(-60.617,-20.,2.5));
#1513=CARTESIAN_POINT('Origin',(-58.5,-20.,0.));
#1514=CARTESIAN_POINT('Origin',(0.,58.,10.));
#1515=CARTESIAN_POINT('',(15.,58.,10.));
#1516=CARTESIAN_POINT('Origin',(0.,58.,10.));
#1517=CARTESIAN_POINT('',(15.,58.,0.));
#1518=CARTESIAN_POINT('',(15.,58.,10.));
#1519=CARTESIAN_POINT('Origin',(0.,58.,0.));
#1520=CARTESIAN_POINT('Origin',(81.5,-30.,10.));
#1521=CARTESIAN_POINT('',(81.5,-30.,10.));
#1522=CARTESIAN_POINT('',(81.5,-13.,10.));
#1523=CARTESIAN_POINT('',(81.5,-15.,10.));
#1524=CARTESIAN_POINT('',(81.5,-30.,0.));
#1525=CARTESIAN_POINT('',(81.5,-30.,10.));
#1526=CARTESIAN_POINT('',(81.5,-13.,0.));
#1527=CARTESIAN_POINT('',(81.5,-15.,0.));
#1528=CARTESIAN_POINT('',(81.5,-13.,10.));
#1529=CARTESIAN_POINT('Origin',(93.5,-30.,10.));
#1530=CARTESIAN_POINT('',(93.5,-30.,10.));
#1531=CARTESIAN_POINT('',(46.75,-30.,10.));
#1532=CARTESIAN_POINT('',(93.5,-30.,0.));
#1533=CARTESIAN_POINT('',(93.5,-30.,10.));
#1534=CARTESIAN_POINT('',(46.75,-30.,0.));
#1535=CARTESIAN_POINT('Origin',(93.5,-15.,10.));
#1536=CARTESIAN_POINT('',(93.5,-13.,10.));
#1537=CARTESIAN_POINT('',(93.5,-7.5,10.));
#1538=CARTESIAN_POINT('',(93.5,-13.,0.));
#1539=CARTESIAN_POINT('',(93.5,-13.,10.));
#1540=CARTESIAN_POINT('',(93.5,-7.5,0.));
#1541=CARTESIAN_POINT('Origin',(83.5,-13.,10.));
#1542=CARTESIAN_POINT('',(41.75,-13.,10.));
#1543=CARTESIAN_POINT('',(41.75,-13.,0.));
#1544=CARTESIAN_POINT('Origin',(83.5,30.,10.));
#1545=CARTESIAN_POINT('',(81.5,30.,10.));
#1546=CARTESIAN_POINT('',(93.5,30.,10.));
#1547=CARTESIAN_POINT('',(41.75,30.,10.));
#1548=CARTESIAN_POINT('',(81.5,30.,0.));
#1549=CARTESIAN_POINT('',(81.5,30.,10.));
#1550=CARTESIAN_POINT('',(93.5,30.,0.));
#1551=CARTESIAN_POINT('',(41.75,30.,0.));
#1552=CARTESIAN_POINT('',(93.5,30.,10.));
#1553=CARTESIAN_POINT('Origin',(81.5,15.,10.));
#1554=CARTESIAN_POINT('',(81.5,13.,10.));
#1555=CARTESIAN_POINT('',(81.5,7.5,10.));
#1556=CARTESIAN_POINT('',(81.5,13.,0.));
#1557=CARTESIAN_POINT('',(81.5,13.,10.));
#1558=CARTESIAN_POINT('',(81.5,7.5,0.));
#1559=CARTESIAN_POINT('Origin',(93.5,13.,10.));
#1560=CARTESIAN_POINT('',(93.5,13.,10.));
#1561=CARTESIAN_POINT('',(46.75,13.,10.));
#1562=CARTESIAN_POINT('',(93.5,13.,0.));
#1563=CARTESIAN_POINT('',(93.5,13.,10.));
#1564=CARTESIAN_POINT('',(46.75,13.,0.));
#1565=CARTESIAN_POINT('Origin',(93.5,30.,10.));
#1566=CARTESIAN_POINT('',(93.5,15.,10.));
#1567=CARTESIAN_POINT('',(93.5,15.,0.));
#1568=CARTESIAN_POINT('Origin',(-93.5,15.,10.));
#1569=CARTESIAN_POINT('',(-93.5,30.,10.));
#1570=CARTESIAN_POINT('',(-93.5,30.,0.));
#1571=CARTESIAN_POINT('',(-93.5,30.,10.));
#1572=CARTESIAN_POINT('',(-93.5,13.,10.));
#1573=CARTESIAN_POINT('',(-93.5,7.5,10.));
#1574=CARTESIAN_POINT('',(-93.5,13.,0.));
#1575=CARTESIAN_POINT('',(-93.5,13.,10.));
#1576=CARTESIAN_POINT('',(-93.5,7.5,0.));
#1577=CARTESIAN_POINT('Origin',(-93.5,-30.,10.));
#1578=CARTESIAN_POINT('',(-93.5,-30.,0.));
#1579=CARTESIAN_POINT('',(-93.5,-30.,10.));
#1580=CARTESIAN_POINT('',(-93.5,-30.,10.));
#1581=CARTESIAN_POINT('',(-93.5,-13.,0.));
#1582=CARTESIAN_POINT('',(-93.5,-15.,0.));
#1583=CARTESIAN_POINT('',(-93.5,-13.,10.));
#1584=CARTESIAN_POINT('',(-93.5,-13.,10.));
#1585=CARTESIAN_POINT('',(-93.5,-15.,10.));
#1586=CARTESIAN_POINT('Origin',(0.,0.,0.));
#1587=CARTESIAN_POINT('',(-100.,-1.22464679914735E-14,0.));
#1588=CARTESIAN_POINT('Origin',(0.,0.,0.));
#1589=CARTESIAN_POINT('',(-27.5,3.36777869765522E-15,0.));
#1590=CARTESIAN_POINT('Origin',(0.,0.,0.));
#1591=CARTESIAN_POINT('',(-81.5,-30.,0.));
#1592=CARTESIAN_POINT('',(-41.75,-30.,0.));
#1593=CARTESIAN_POINT('',(-81.5,-13.,0.));
#1594=CARTESIAN_POINT('',(-81.5,-7.5,0.));
#1595=CARTESIAN_POINT('',(-46.75,-13.,0.));
#1596=CARTESIAN_POINT('',(-81.5,13.,0.));
#1597=CARTESIAN_POINT('',(-41.75,13.,0.));
#1598=CARTESIAN_POINT('',(-81.5,30.,0.));
#1599=CARTESIAN_POINT('',(-81.5,15.,0.));
#1600=CARTESIAN_POINT('',(-46.75,30.,0.));
#1601=CARTESIAN_POINT('Origin',(0.,0.,10.));
#1602=CARTESIAN_POINT('',(-100.,-1.22464679914735E-14,10.));
#1603=CARTESIAN_POINT('Origin',(0.,0.,10.));
#1604=CARTESIAN_POINT('',(-81.5,-13.,10.));
#1605=CARTESIAN_POINT('',(-46.75,-13.,10.));
#1606=CARTESIAN_POINT('',(-81.5,-30.,10.));
#1607=CARTESIAN_POINT('',(-81.5,-7.5,10.));
#1608=CARTESIAN_POINT('',(-41.75,-30.,10.));
#1609=CARTESIAN_POINT('',(-81.5,30.,10.));
#1610=CARTESIAN_POINT('',(-46.75,30.,10.));
#1611=CARTESIAN_POINT('',(-81.5,13.,10.));
#1612=CARTESIAN_POINT('',(-81.5,15.,10.));
#1613=CARTESIAN_POINT('',(-41.75,13.,10.));
#1614=CARTESIAN_POINT('Origin',(-83.5,-30.,10.));
#1615=CARTESIAN_POINT('',(-81.5,-30.,10.));
#1616=CARTESIAN_POINT('Origin',(-81.5,-15.,10.));
#1617=CARTESIAN_POINT('',(-81.5,-13.,10.));
#1618=CARTESIAN_POINT('Origin',(-93.5,-13.,10.));
#1619=CARTESIAN_POINT('Origin',(0.,0.,0.));
#1620=CARTESIAN_POINT('',(-100.,-1.22464679914735E-14,0.));
#1621=CARTESIAN_POINT('Origin',(-81.5,30.,10.));
#1622=CARTESIAN_POINT('',(-81.5,30.,10.));
#1623=CARTESIAN_POINT('',(-81.5,13.,10.));
#1624=CARTESIAN_POINT('Origin',(-93.5,30.,10.));
#1625=CARTESIAN_POINT('Origin',(-83.5,13.,10.));
#1626=CARTESIAN_POINT('Origin',(0.,0.,0.));
#1627=CARTESIAN_POINT('',(-27.5,3.36777869765522E-15,-27.));
#1628=CARTESIAN_POINT('Origin',(0.,0.,-27.));
#1629=CARTESIAN_POINT('',(-27.5,3.36777869765522E-15,0.));
#1630=CARTESIAN_POINT('Origin',(0.,0.,-27.));
#1631=CARTESIAN_POINT('',(-23.55,2.88404321199202E-15,-27.));
#1632=CARTESIAN_POINT('Origin',(0.,0.,-27.));
#1633=CARTESIAN_POINT('',(-23.55,2.88404321199202E-15,-15.));
#1634=CARTESIAN_POINT('',(-23.55,-2.88404321199202E-15,-27.));
#1635=CARTESIAN_POINT('Origin',(0.,0.,-15.));
#1636=CARTESIAN_POINT('Origin',(0.,0.,-15.));
#1637=CARTESIAN_POINT('Origin',(0.,0.,-27.));
#1638=UNCERTAINTY_MEASURE_WITH_UNIT(LENGTH_MEASURE(0.01),#1642,
'DISTANCE_ACCURACY_VALUE',
'Maximum model space distance between geometric entities at asserted c
onnectivities');
#1639=UNCERTAINTY_MEASURE_WITH_UNIT(LENGTH_MEASURE(0.01),#1642,
'DISTANCE_ACCURACY_VALUE',
'Maximum model space distance between geometric entities at asserted c
onnectivities');
#1640=(
GEOMETRIC_REPRESENTATION_CONTEXT(3)
GLOBAL_UNCERTAINTY_ASSIGNED_CONTEXT((#1638))
GLOBAL_UNIT_ASSIGNED_CONTEXT((#1642,#1644,#1645))
REPRESENTATION_CONTEXT('','3D')
);
#1641=(
GEOMETRIC_REPRESENTATION_CONTEXT(3)
GLOBAL_UNCERTAINTY_ASSIGNED_CONTEXT((#1639))
GLOBAL_UNIT_ASSIGNED_CONTEXT((#1642,#1644,#1645))
REPRESENTATION_CONTEXT('','3D')
);
#1642=(
LENGTH_UNIT()
NAMED_UNIT(*)
SI_UNIT(.MILLI.,.METRE.)
);
#1643=(
LENGTH_UNIT()
NAMED_UNIT(*)
SI_UNIT($,.METRE.)
);
#1644=(
NAMED_UNIT(*)
PLANE_ANGLE_UNIT()
SI_UNIT($,.RADIAN.)
);
#1645=(
NAMED_UNIT(*)
SI_UNIT($,.STERADIAN.)
SOLID_ANGLE_UNIT()
);
#1646=SHAPE_DEFINITION_REPRESENTATION(#1647,#1648);
#1647=PRODUCT_DEFINITION_SHAPE('',$,#1650);
#1648=SHAPE_REPRESENTATION('',(#994),#1640);
#1649=PRODUCT_DEFINITION_CONTEXT('part definition',#1654,'design');
#1650=PRODUCT_DEFINITION('Pan_platform_V3','Pan_platform_V3 v1',#1651,#1649);
#1651=PRODUCT_DEFINITION_FORMATION('',$,#1656);
#1652=PRODUCT_RELATED_PRODUCT_CATEGORY('Pan_platform_V3 v1',
'Pan_platform_V3 v1',(#1656));
#1653=APPLICATION_PROTOCOL_DEFINITION('international standard',
'automotive_design',2009,#1654);
#1654=APPLICATION_CONTEXT(
'Core Data for Automotive Mechanical Design Process');
#1655=PRODUCT_CONTEXT('part definition',#1654,'mechanical');
#1656=PRODUCT('Pan_platform_V3','Pan_platform_V3 v1',$,(#1655));
#1657=PRESENTATION_STYLE_ASSIGNMENT((#1658));
#1658=SURFACE_STYLE_USAGE(.BOTH.,#1659);
#1659=SURFACE_SIDE_STYLE('',(#1660));
#1660=SURFACE_STYLE_FILL_AREA(#1661);
#1661=FILL_AREA_STYLE('Steel - Satin',(#1662));
#1662=FILL_AREA_STYLE_COLOUR('Steel - Satin',#1663);
#1663=COLOUR_RGB('Steel - Satin',0.627450980392157,0.627450980392157,0.627450980392157);
ENDSEC;
END-ISO-10303-21;
