ISO-10303-21;
HEADER;
/* Generated by software containing ST-Developer
 * from STEP Tools, Inc. (www.steptools.com) 
 */

FILE_DESCRIPTION(
/* description */ (''),
/* implementation_level */ '2;1');

FILE_NAME(
/* name */ 'Pan_mount_bottom.step',
/* time_stamp */ '2026-05-16T18:25:09+02:00',
/* author */ (''),
/* organization */ (''),
/* preprocessor_version */ 'ST-DEVELOPER v20.1',
/* originating_system */ 'Autodesk Translation Framework v15.8.0.0',
/* authorisation */ '');

FILE_SCHEMA (('AUTOMOTIVE_DESIGN { 1 0 10303 214 3 1 1 }'));
ENDSEC;

DATA;
#10=MECHANICAL_DESIGN_GEOMETRIC_PRESENTATION_REPRESENTATION('',(#13),#1056);
#11=SHAPE_REPRESENTATION_RELATIONSHIP('SRR','None',#1063,#12);
#12=ADVANCED_BREP_SHAPE_REPRESENTATION('',(#14),#1055);
#13=STYLED_ITEM('',(#1072),#14);
#14=MANIFOLD_SOLID_BREP('Body1',#636);
#15=LINE('',#895,#74);
#16=LINE('',#901,#75);
#17=LINE('',#907,#76);
#18=LINE('',#913,#77);
#19=LINE('',#916,#78);
#20=LINE('',#919,#79);
#21=LINE('',#924,#80);
#22=LINE('',#926,#81);
#23=LINE('',#928,#82);
#24=LINE('',#929,#83);
#25=LINE('',#932,#84);
#26=LINE('',#934,#85);
#27=LINE('',#935,#86);
#28=LINE('',#938,#87);
#29=LINE('',#940,#88);
#30=LINE('',#941,#89);
#31=LINE('',#943,#90);
#32=LINE('',#944,#91);
#33=LINE('',#951,#92);
#34=LINE('',#953,#93);
#35=LINE('',#955,#94);
#36=LINE('',#956,#95);
#37=LINE('',#959,#96);
#38=LINE('',#961,#97);
#39=LINE('',#962,#98);
#40=LINE('',#965,#99);
#41=LINE('',#967,#100);
#42=LINE('',#968,#101);
#43=LINE('',#970,#102);
#44=LINE('',#971,#103);
#45=LINE('',#978,#104);
#46=LINE('',#980,#105);
#47=LINE('',#982,#106);
#48=LINE('',#983,#107);
#49=LINE('',#986,#108);
#50=LINE('',#988,#109);
#51=LINE('',#989,#110);
#52=LINE('',#992,#111);
#53=LINE('',#994,#112);
#54=LINE('',#995,#113);
#55=LINE('',#997,#114);
#56=LINE('',#998,#115);
#57=LINE('',#1005,#116);
#58=LINE('',#1007,#117);
#59=LINE('',#1009,#118);
#60=LINE('',#1010,#119);
#61=LINE('',#1013,#120);
#62=LINE('',#1015,#121);
#63=LINE('',#1016,#122);
#64=LINE('',#1019,#123);
#65=LINE('',#1021,#124);
#66=LINE('',#1022,#125);
#67=LINE('',#1024,#126);
#68=LINE('',#1025,#127);
#69=LINE('',#1031,#128);
#70=LINE('',#1035,#129);
#71=LINE('',#1039,#130);
#72=LINE('',#1043,#131);
#73=LINE('',#1050,#132);
#74=VECTOR('',#723,2.5);
#75=VECTOR('',#730,2.5);
#76=VECTOR('',#737,2.5);
#77=VECTOR('',#744,2.5);
#78=VECTOR('',#749,12.5);
#79=VECTOR('',#752,14.85);
#80=VECTOR('',#757,10.);
#81=VECTOR('',#758,10.);
#82=VECTOR('',#759,10.);
#83=VECTOR('',#760,10.);
#84=VECTOR('',#763,10.);
#85=VECTOR('',#764,10.);
#86=VECTOR('',#765,10.);
#87=VECTOR('',#768,10.);
#88=VECTOR('',#769,10.);
#89=VECTOR('',#770,10.);
#90=VECTOR('',#773,10.);
#91=VECTOR('',#774,10.);
#92=VECTOR('',#781,10.);
#93=VECTOR('',#782,10.);
#94=VECTOR('',#783,10.);
#95=VECTOR('',#784,10.);
#96=VECTOR('',#787,10.);
#97=VECTOR('',#788,10.);
#98=VECTOR('',#789,10.);
#99=VECTOR('',#792,10.);
#100=VECTOR('',#793,10.);
#101=VECTOR('',#794,10.);
#102=VECTOR('',#797,10.);
#103=VECTOR('',#798,10.);
#104=VECTOR('',#805,10.);
#105=VECTOR('',#806,10.);
#106=VECTOR('',#807,10.);
#107=VECTOR('',#808,10.);
#108=VECTOR('',#811,10.);
#109=VECTOR('',#812,10.);
#110=VECTOR('',#813,10.);
#111=VECTOR('',#816,10.);
#112=VECTOR('',#817,10.);
#113=VECTOR('',#818,10.);
#114=VECTOR('',#821,10.);
#115=VECTOR('',#822,10.);
#116=VECTOR('',#829,10.);
#117=VECTOR('',#830,10.);
#118=VECTOR('',#831,10.);
#119=VECTOR('',#832,10.);
#120=VECTOR('',#835,10.);
#121=VECTOR('',#836,10.);
#122=VECTOR('',#837,10.);
#123=VECTOR('',#840,10.);
#124=VECTOR('',#841,10.);
#125=VECTOR('',#842,10.);
#126=VECTOR('',#845,10.);
#127=VECTOR('',#846,10.);
#128=VECTOR('',#853,2.5);
#129=VECTOR('',#858,2.5);
#130=VECTOR('',#863,2.5);
#131=VECTOR('',#868,2.5);
#132=VECTOR('',#877,92.5);
#133=CYLINDRICAL_SURFACE('',#655,2.5);
#134=CYLINDRICAL_SURFACE('',#658,2.5);
#135=CYLINDRICAL_SURFACE('',#661,2.5);
#136=CYLINDRICAL_SURFACE('',#664,2.5);
#137=CYLINDRICAL_SURFACE('',#667,12.5);
#138=CYLINDRICAL_SURFACE('',#668,14.85);
#139=CYLINDRICAL_SURFACE('',#694,2.5);
#140=CYLINDRICAL_SURFACE('',#696,2.5);
#141=CYLINDRICAL_SURFACE('',#698,2.5);
#142=CYLINDRICAL_SURFACE('',#700,2.5);
#143=CYLINDRICAL_SURFACE('',#704,92.5);
#144=FACE_BOUND('',#202,.T.);
#145=FACE_BOUND('',#215,.T.);
#146=FACE_BOUND('',#221,.T.);
#147=FACE_BOUND('',#227,.T.);
#148=FACE_BOUND('',#233,.T.);
#149=FACE_BOUND('',#239,.T.);
#150=FACE_BOUND('',#240,.T.);
#151=FACE_BOUND('',#241,.T.);
#152=FACE_BOUND('',#242,.T.);
#153=FACE_BOUND('',#243,.T.);
#154=FACE_BOUND('',#244,.T.);
#155=FACE_BOUND('',#245,.T.);
#156=FACE_BOUND('',#246,.T.);
#157=FACE_BOUND('',#247,.T.);
#158=FACE_BOUND('',#250,.T.);
#159=FACE_BOUND('',#251,.T.);
#160=FACE_BOUND('',#252,.T.);
#161=FACE_BOUND('',#253,.T.);
#162=FACE_BOUND('',#254,.T.);
#163=FACE_BOUND('',#255,.T.);
#164=FACE_BOUND('',#256,.T.);
#165=FACE_BOUND('',#257,.T.);
#166=FACE_OUTER_BOUND('',#201,.T.);
#167=FACE_OUTER_BOUND('',#203,.T.);
#168=FACE_OUTER_BOUND('',#204,.T.);
#169=FACE_OUTER_BOUND('',#205,.T.);
#170=FACE_OUTER_BOUND('',#206,.T.);
#171=FACE_OUTER_BOUND('',#207,.T.);
#172=FACE_OUTER_BOUND('',#208,.T.);
#173=FACE_OUTER_BOUND('',#209,.T.);
#174=FACE_OUTER_BOUND('',#210,.T.);
#175=FACE_OUTER_BOUND('',#211,.T.);
#176=FACE_OUTER_BOUND('',#212,.T.);
#177=FACE_OUTER_BOUND('',#213,.T.);
#178=FACE_OUTER_BOUND('',#214,.T.);
#179=FACE_OUTER_BOUND('',#216,.T.);
#180=FACE_OUTER_BOUND('',#217,.T.);
#181=FACE_OUTER_BOUND('',#218,.T.);
#182=FACE_OUTER_BOUND('',#219,.T.);
#183=FACE_OUTER_BOUND('',#220,.T.);
#184=FACE_OUTER_BOUND('',#222,.T.);
#185=FACE_OUTER_BOUND('',#223,.T.);
#186=FACE_OUTER_BOUND('',#224,.T.);
#187=FACE_OUTER_BOUND('',#225,.T.);
#188=FACE_OUTER_BOUND('',#226,.T.);
#189=FACE_OUTER_BOUND('',#228,.T.);
#190=FACE_OUTER_BOUND('',#229,.T.);
#191=FACE_OUTER_BOUND('',#230,.T.);
#192=FACE_OUTER_BOUND('',#231,.T.);
#193=FACE_OUTER_BOUND('',#232,.T.);
#194=FACE_OUTER_BOUND('',#234,.T.);
#195=FACE_OUTER_BOUND('',#235,.T.);
#196=FACE_OUTER_BOUND('',#236,.T.);
#197=FACE_OUTER_BOUND('',#237,.T.);
#198=FACE_OUTER_BOUND('',#238,.T.);
#199=FACE_OUTER_BOUND('',#248,.T.);
#200=FACE_OUTER_BOUND('',#249,.T.);
#201=EDGE_LOOP('',(#415));
#202=EDGE_LOOP('',(#416));
#203=EDGE_LOOP('',(#417));
#204=EDGE_LOOP('',(#418,#419,#420,#421));
#205=EDGE_LOOP('',(#422,#423,#424,#425));
#206=EDGE_LOOP('',(#426,#427,#428,#429));
#207=EDGE_LOOP('',(#430,#431,#432,#433));
#208=EDGE_LOOP('',(#434,#435,#436,#437));
#209=EDGE_LOOP('',(#438,#439,#440,#441));
#210=EDGE_LOOP('',(#442,#443,#444,#445));
#211=EDGE_LOOP('',(#446,#447,#448,#449));
#212=EDGE_LOOP('',(#450,#451,#452,#453));
#213=EDGE_LOOP('',(#454,#455,#456,#457));
#214=EDGE_LOOP('',(#458,#459,#460,#461));
#215=EDGE_LOOP('',(#462));
#216=EDGE_LOOP('',(#463,#464,#465,#466));
#217=EDGE_LOOP('',(#467,#468,#469,#470));
#218=EDGE_LOOP('',(#471,#472,#473,#474));
#219=EDGE_LOOP('',(#475,#476,#477,#478));
#220=EDGE_LOOP('',(#479,#480,#481,#482));
#221=EDGE_LOOP('',(#483));
#222=EDGE_LOOP('',(#484,#485,#486,#487));
#223=EDGE_LOOP('',(#488,#489,#490,#491));
#224=EDGE_LOOP('',(#492,#493,#494,#495));
#225=EDGE_LOOP('',(#496,#497,#498,#499));
#226=EDGE_LOOP('',(#500,#501,#502,#503));
#227=EDGE_LOOP('',(#504));
#228=EDGE_LOOP('',(#505,#506,#507,#508));
#229=EDGE_LOOP('',(#509,#510,#511,#512));
#230=EDGE_LOOP('',(#513,#514,#515,#516));
#231=EDGE_LOOP('',(#517,#518,#519,#520));
#232=EDGE_LOOP('',(#521,#522,#523,#524));
#233=EDGE_LOOP('',(#525));
#234=EDGE_LOOP('',(#526,#527,#528,#529));
#235=EDGE_LOOP('',(#530,#531,#532,#533));
#236=EDGE_LOOP('',(#534,#535,#536,#537));
#237=EDGE_LOOP('',(#538,#539,#540,#541));
#238=EDGE_LOOP('',(#542));
#239=EDGE_LOOP('',(#543));
#240=EDGE_LOOP('',(#544));
#241=EDGE_LOOP('',(#545));
#242=EDGE_LOOP('',(#546));
#243=EDGE_LOOP('',(#547));
#244=EDGE_LOOP('',(#548));
#245=EDGE_LOOP('',(#549));
#246=EDGE_LOOP('',(#550));
#247=EDGE_LOOP('',(#551));
#248=EDGE_LOOP('',(#552,#553,#554,#555));
#249=EDGE_LOOP('',(#556));
#250=EDGE_LOOP('',(#557));
#251=EDGE_LOOP('',(#558));
#252=EDGE_LOOP('',(#559));
#253=EDGE_LOOP('',(#560));
#254=EDGE_LOOP('',(#561,#562,#563,#564));
#255=EDGE_LOOP('',(#565,#566,#567,#568));
#256=EDGE_LOOP('',(#569,#570,#571,#572));
#257=EDGE_LOOP('',(#573,#574,#575,#576));
#258=CIRCLE('',#651,14.85);
#259=CIRCLE('',#652,12.5);
#260=CIRCLE('',#654,12.5);
#261=CIRCLE('',#656,2.5);
#262=CIRCLE('',#657,2.5);
#263=CIRCLE('',#659,2.5);
#264=CIRCLE('',#660,2.5);
#265=CIRCLE('',#662,2.5);
#266=CIRCLE('',#663,2.5);
#267=CIRCLE('',#665,2.5);
#268=CIRCLE('',#666,2.5);
#269=CIRCLE('',#669,14.85);
#270=CIRCLE('',#675,2.5);
#271=CIRCLE('',#681,2.5);
#272=CIRCLE('',#687,2.5);
#273=CIRCLE('',#693,2.5);
#274=CIRCLE('',#695,2.5);
#275=CIRCLE('',#697,2.5);
#276=CIRCLE('',#699,2.5);
#277=CIRCLE('',#701,2.5);
#278=CIRCLE('',#703,92.5);
#279=CIRCLE('',#705,92.5);
#280=VERTEX_POINT('',#884);
#281=VERTEX_POINT('',#886);
#282=VERTEX_POINT('',#889);
#283=VERTEX_POINT('',#892);
#284=VERTEX_POINT('',#894);
#285=VERTEX_POINT('',#898);
#286=VERTEX_POINT('',#900);
#287=VERTEX_POINT('',#904);
#288=VERTEX_POINT('',#906);
#289=VERTEX_POINT('',#910);
#290=VERTEX_POINT('',#912);
#291=VERTEX_POINT('',#918);
#292=VERTEX_POINT('',#922);
#293=VERTEX_POINT('',#923);
#294=VERTEX_POINT('',#925);
#295=VERTEX_POINT('',#927);
#296=VERTEX_POINT('',#931);
#297=VERTEX_POINT('',#933);
#298=VERTEX_POINT('',#937);
#299=VERTEX_POINT('',#939);
#300=VERTEX_POINT('',#946);
#301=VERTEX_POINT('',#949);
#302=VERTEX_POINT('',#950);
#303=VERTEX_POINT('',#952);
#304=VERTEX_POINT('',#954);
#305=VERTEX_POINT('',#958);
#306=VERTEX_POINT('',#960);
#307=VERTEX_POINT('',#964);
#308=VERTEX_POINT('',#966);
#309=VERTEX_POINT('',#973);
#310=VERTEX_POINT('',#976);
#311=VERTEX_POINT('',#977);
#312=VERTEX_POINT('',#979);
#313=VERTEX_POINT('',#981);
#314=VERTEX_POINT('',#985);
#315=VERTEX_POINT('',#987);
#316=VERTEX_POINT('',#991);
#317=VERTEX_POINT('',#993);
#318=VERTEX_POINT('',#1000);
#319=VERTEX_POINT('',#1003);
#320=VERTEX_POINT('',#1004);
#321=VERTEX_POINT('',#1006);
#322=VERTEX_POINT('',#1008);
#323=VERTEX_POINT('',#1012);
#324=VERTEX_POINT('',#1014);
#325=VERTEX_POINT('',#1018);
#326=VERTEX_POINT('',#1020);
#327=VERTEX_POINT('',#1027);
#328=VERTEX_POINT('',#1030);
#329=VERTEX_POINT('',#1034);
#330=VERTEX_POINT('',#1038);
#331=VERTEX_POINT('',#1042);
#332=VERTEX_POINT('',#1046);
#333=VERTEX_POINT('',#1049);
#334=EDGE_CURVE('',#280,#280,#258,.T.);
#335=EDGE_CURVE('',#281,#281,#259,.T.);
#336=EDGE_CURVE('',#282,#282,#260,.T.);
#337=EDGE_CURVE('',#283,#283,#261,.T.);
#338=EDGE_CURVE('',#283,#284,#15,.T.);
#339=EDGE_CURVE('',#284,#284,#262,.T.);
#340=EDGE_CURVE('',#285,#285,#263,.T.);
#341=EDGE_CURVE('',#285,#286,#16,.T.);
#342=EDGE_CURVE('',#286,#286,#264,.T.);
#343=EDGE_CURVE('',#287,#287,#265,.T.);
#344=EDGE_CURVE('',#287,#288,#17,.T.);
#345=EDGE_CURVE('',#288,#288,#266,.T.);
#346=EDGE_CURVE('',#289,#289,#267,.T.);
#347=EDGE_CURVE('',#289,#290,#18,.T.);
#348=EDGE_CURVE('',#290,#290,#268,.T.);
#349=EDGE_CURVE('',#282,#281,#19,.T.);
#350=EDGE_CURVE('',#280,#291,#20,.T.);
#351=EDGE_CURVE('',#291,#291,#269,.T.);
#352=EDGE_CURVE('',#292,#293,#21,.F.);
#353=EDGE_CURVE('',#292,#294,#22,.F.);
#354=EDGE_CURVE('',#294,#295,#23,.F.);
#355=EDGE_CURVE('',#293,#295,#24,.F.);
#356=EDGE_CURVE('',#296,#292,#25,.T.);
#357=EDGE_CURVE('',#296,#297,#26,.T.);
#358=EDGE_CURVE('',#297,#294,#27,.T.);
#359=EDGE_CURVE('',#298,#296,#28,.T.);
#360=EDGE_CURVE('',#298,#299,#29,.T.);
#361=EDGE_CURVE('',#299,#297,#30,.T.);
#362=EDGE_CURVE('',#293,#298,#31,.F.);
#363=EDGE_CURVE('',#295,#299,#32,.F.);
#364=EDGE_CURVE('',#300,#300,#270,.T.);
#365=EDGE_CURVE('',#301,#302,#33,.T.);
#366=EDGE_CURVE('',#301,#303,#34,.T.);
#367=EDGE_CURVE('',#303,#304,#35,.T.);
#368=EDGE_CURVE('',#302,#304,#36,.T.);
#369=EDGE_CURVE('',#305,#301,#37,.T.);
#370=EDGE_CURVE('',#305,#306,#38,.T.);
#371=EDGE_CURVE('',#306,#303,#39,.T.);
#372=EDGE_CURVE('',#307,#305,#40,.T.);
#373=EDGE_CURVE('',#307,#308,#41,.T.);
#374=EDGE_CURVE('',#308,#306,#42,.T.);
#375=EDGE_CURVE('',#302,#307,#43,.T.);
#376=EDGE_CURVE('',#304,#308,#44,.T.);
#377=EDGE_CURVE('',#309,#309,#271,.T.);
#378=EDGE_CURVE('',#310,#311,#45,.T.);
#379=EDGE_CURVE('',#310,#312,#46,.T.);
#380=EDGE_CURVE('',#312,#313,#47,.T.);
#381=EDGE_CURVE('',#311,#313,#48,.T.);
#382=EDGE_CURVE('',#314,#310,#49,.T.);
#383=EDGE_CURVE('',#314,#315,#50,.T.);
#384=EDGE_CURVE('',#315,#312,#51,.T.);
#385=EDGE_CURVE('',#316,#314,#52,.T.);
#386=EDGE_CURVE('',#316,#317,#53,.T.);
#387=EDGE_CURVE('',#317,#315,#54,.T.);
#388=EDGE_CURVE('',#311,#316,#55,.T.);
#389=EDGE_CURVE('',#313,#317,#56,.T.);
#390=EDGE_CURVE('',#318,#318,#272,.T.);
#391=EDGE_CURVE('',#319,#320,#57,.T.);
#392=EDGE_CURVE('',#319,#321,#58,.T.);
#393=EDGE_CURVE('',#321,#322,#59,.T.);
#394=EDGE_CURVE('',#320,#322,#60,.T.);
#395=EDGE_CURVE('',#323,#319,#61,.T.);
#396=EDGE_CURVE('',#323,#324,#62,.T.);
#397=EDGE_CURVE('',#324,#321,#63,.T.);
#398=EDGE_CURVE('',#325,#323,#64,.T.);
#399=EDGE_CURVE('',#325,#326,#65,.T.);
#400=EDGE_CURVE('',#326,#324,#66,.T.);
#401=EDGE_CURVE('',#320,#325,#67,.T.);
#402=EDGE_CURVE('',#322,#326,#68,.T.);
#403=EDGE_CURVE('',#327,#327,#273,.T.);
#404=EDGE_CURVE('',#327,#328,#69,.T.);
#405=EDGE_CURVE('',#328,#328,#274,.T.);
#406=EDGE_CURVE('',#309,#329,#70,.T.);
#407=EDGE_CURVE('',#329,#329,#275,.T.);
#408=EDGE_CURVE('',#300,#330,#71,.T.);
#409=EDGE_CURVE('',#330,#330,#276,.T.);
#410=EDGE_CURVE('',#318,#331,#72,.T.);
#411=EDGE_CURVE('',#331,#331,#277,.T.);
#412=EDGE_CURVE('',#332,#332,#278,.T.);
#413=EDGE_CURVE('',#332,#333,#73,.T.);
#414=EDGE_CURVE('',#333,#333,#279,.T.);
#415=ORIENTED_EDGE('',*,*,#334,.T.);
#416=ORIENTED_EDGE('',*,*,#335,.F.);
#417=ORIENTED_EDGE('',*,*,#336,.T.);
#418=ORIENTED_EDGE('',*,*,#337,.F.);
#419=ORIENTED_EDGE('',*,*,#338,.T.);
#420=ORIENTED_EDGE('',*,*,#339,.F.);
#421=ORIENTED_EDGE('',*,*,#338,.F.);
#422=ORIENTED_EDGE('',*,*,#340,.F.);
#423=ORIENTED_EDGE('',*,*,#341,.T.);
#424=ORIENTED_EDGE('',*,*,#342,.F.);
#425=ORIENTED_EDGE('',*,*,#341,.F.);
#426=ORIENTED_EDGE('',*,*,#343,.F.);
#427=ORIENTED_EDGE('',*,*,#344,.T.);
#428=ORIENTED_EDGE('',*,*,#345,.F.);
#429=ORIENTED_EDGE('',*,*,#344,.F.);
#430=ORIENTED_EDGE('',*,*,#346,.F.);
#431=ORIENTED_EDGE('',*,*,#347,.T.);
#432=ORIENTED_EDGE('',*,*,#348,.F.);
#433=ORIENTED_EDGE('',*,*,#347,.F.);
#434=ORIENTED_EDGE('',*,*,#336,.F.);
#435=ORIENTED_EDGE('',*,*,#349,.T.);
#436=ORIENTED_EDGE('',*,*,#335,.T.);
#437=ORIENTED_EDGE('',*,*,#349,.F.);
#438=ORIENTED_EDGE('',*,*,#334,.F.);
#439=ORIENTED_EDGE('',*,*,#350,.T.);
#440=ORIENTED_EDGE('',*,*,#351,.F.);
#441=ORIENTED_EDGE('',*,*,#350,.F.);
#442=ORIENTED_EDGE('',*,*,#352,.F.);
#443=ORIENTED_EDGE('',*,*,#353,.T.);
#444=ORIENTED_EDGE('',*,*,#354,.T.);
#445=ORIENTED_EDGE('',*,*,#355,.F.);
#446=ORIENTED_EDGE('',*,*,#356,.F.);
#447=ORIENTED_EDGE('',*,*,#357,.T.);
#448=ORIENTED_EDGE('',*,*,#358,.T.);
#449=ORIENTED_EDGE('',*,*,#353,.F.);
#450=ORIENTED_EDGE('',*,*,#359,.F.);
#451=ORIENTED_EDGE('',*,*,#360,.T.);
#452=ORIENTED_EDGE('',*,*,#361,.T.);
#453=ORIENTED_EDGE('',*,*,#357,.F.);
#454=ORIENTED_EDGE('',*,*,#362,.F.);
#455=ORIENTED_EDGE('',*,*,#355,.T.);
#456=ORIENTED_EDGE('',*,*,#363,.T.);
#457=ORIENTED_EDGE('',*,*,#360,.F.);
#458=ORIENTED_EDGE('',*,*,#363,.F.);
#459=ORIENTED_EDGE('',*,*,#354,.F.);
#460=ORIENTED_EDGE('',*,*,#358,.F.);
#461=ORIENTED_EDGE('',*,*,#361,.F.);
#462=ORIENTED_EDGE('',*,*,#364,.F.);
#463=ORIENTED_EDGE('',*,*,#365,.F.);
#464=ORIENTED_EDGE('',*,*,#366,.T.);
#465=ORIENTED_EDGE('',*,*,#367,.T.);
#466=ORIENTED_EDGE('',*,*,#368,.F.);
#467=ORIENTED_EDGE('',*,*,#369,.F.);
#468=ORIENTED_EDGE('',*,*,#370,.T.);
#469=ORIENTED_EDGE('',*,*,#371,.T.);
#470=ORIENTED_EDGE('',*,*,#366,.F.);
#471=ORIENTED_EDGE('',*,*,#372,.F.);
#472=ORIENTED_EDGE('',*,*,#373,.T.);
#473=ORIENTED_EDGE('',*,*,#374,.T.);
#474=ORIENTED_EDGE('',*,*,#370,.F.);
#475=ORIENTED_EDGE('',*,*,#375,.F.);
#476=ORIENTED_EDGE('',*,*,#368,.T.);
#477=ORIENTED_EDGE('',*,*,#376,.T.);
#478=ORIENTED_EDGE('',*,*,#373,.F.);
#479=ORIENTED_EDGE('',*,*,#376,.F.);
#480=ORIENTED_EDGE('',*,*,#367,.F.);
#481=ORIENTED_EDGE('',*,*,#371,.F.);
#482=ORIENTED_EDGE('',*,*,#374,.F.);
#483=ORIENTED_EDGE('',*,*,#377,.F.);
#484=ORIENTED_EDGE('',*,*,#378,.F.);
#485=ORIENTED_EDGE('',*,*,#379,.T.);
#486=ORIENTED_EDGE('',*,*,#380,.T.);
#487=ORIENTED_EDGE('',*,*,#381,.F.);
#488=ORIENTED_EDGE('',*,*,#382,.F.);
#489=ORIENTED_EDGE('',*,*,#383,.T.);
#490=ORIENTED_EDGE('',*,*,#384,.T.);
#491=ORIENTED_EDGE('',*,*,#379,.F.);
#492=ORIENTED_EDGE('',*,*,#385,.F.);
#493=ORIENTED_EDGE('',*,*,#386,.T.);
#494=ORIENTED_EDGE('',*,*,#387,.T.);
#495=ORIENTED_EDGE('',*,*,#383,.F.);
#496=ORIENTED_EDGE('',*,*,#388,.F.);
#497=ORIENTED_EDGE('',*,*,#381,.T.);
#498=ORIENTED_EDGE('',*,*,#389,.T.);
#499=ORIENTED_EDGE('',*,*,#386,.F.);
#500=ORIENTED_EDGE('',*,*,#389,.F.);
#501=ORIENTED_EDGE('',*,*,#380,.F.);
#502=ORIENTED_EDGE('',*,*,#384,.F.);
#503=ORIENTED_EDGE('',*,*,#387,.F.);
#504=ORIENTED_EDGE('',*,*,#390,.F.);
#505=ORIENTED_EDGE('',*,*,#391,.F.);
#506=ORIENTED_EDGE('',*,*,#392,.T.);
#507=ORIENTED_EDGE('',*,*,#393,.T.);
#508=ORIENTED_EDGE('',*,*,#394,.F.);
#509=ORIENTED_EDGE('',*,*,#395,.F.);
#510=ORIENTED_EDGE('',*,*,#396,.T.);
#511=ORIENTED_EDGE('',*,*,#397,.T.);
#512=ORIENTED_EDGE('',*,*,#392,.F.);
#513=ORIENTED_EDGE('',*,*,#398,.F.);
#514=ORIENTED_EDGE('',*,*,#399,.T.);
#515=ORIENTED_EDGE('',*,*,#400,.T.);
#516=ORIENTED_EDGE('',*,*,#396,.F.);
#517=ORIENTED_EDGE('',*,*,#401,.F.);
#518=ORIENTED_EDGE('',*,*,#394,.T.);
#519=ORIENTED_EDGE('',*,*,#402,.T.);
#520=ORIENTED_EDGE('',*,*,#399,.F.);
#521=ORIENTED_EDGE('',*,*,#402,.F.);
#522=ORIENTED_EDGE('',*,*,#393,.F.);
#523=ORIENTED_EDGE('',*,*,#397,.F.);
#524=ORIENTED_EDGE('',*,*,#400,.F.);
#525=ORIENTED_EDGE('',*,*,#403,.F.);
#526=ORIENTED_EDGE('',*,*,#403,.T.);
#527=ORIENTED_EDGE('',*,*,#404,.T.);
#528=ORIENTED_EDGE('',*,*,#405,.F.);
#529=ORIENTED_EDGE('',*,*,#404,.F.);
#530=ORIENTED_EDGE('',*,*,#377,.T.);
#531=ORIENTED_EDGE('',*,*,#406,.T.);
#532=ORIENTED_EDGE('',*,*,#407,.F.);
#533=ORIENTED_EDGE('',*,*,#406,.F.);
#534=ORIENTED_EDGE('',*,*,#364,.T.);
#535=ORIENTED_EDGE('',*,*,#408,.T.);
#536=ORIENTED_EDGE('',*,*,#409,.F.);
#537=ORIENTED_EDGE('',*,*,#408,.F.);
#538=ORIENTED_EDGE('',*,*,#390,.T.);
#539=ORIENTED_EDGE('',*,*,#410,.T.);
#540=ORIENTED_EDGE('',*,*,#411,.F.);
#541=ORIENTED_EDGE('',*,*,#410,.F.);
#542=ORIENTED_EDGE('',*,*,#412,.T.);
#543=ORIENTED_EDGE('',*,*,#339,.T.);
#544=ORIENTED_EDGE('',*,*,#342,.T.);
#545=ORIENTED_EDGE('',*,*,#345,.T.);
#546=ORIENTED_EDGE('',*,*,#348,.T.);
#547=ORIENTED_EDGE('',*,*,#351,.T.);
#548=ORIENTED_EDGE('',*,*,#405,.T.);
#549=ORIENTED_EDGE('',*,*,#407,.T.);
#550=ORIENTED_EDGE('',*,*,#409,.T.);
#551=ORIENTED_EDGE('',*,*,#411,.T.);
#552=ORIENTED_EDGE('',*,*,#412,.F.);
#553=ORIENTED_EDGE('',*,*,#413,.T.);
#554=ORIENTED_EDGE('',*,*,#414,.T.);
#555=ORIENTED_EDGE('',*,*,#413,.F.);
#556=ORIENTED_EDGE('',*,*,#414,.F.);
#557=ORIENTED_EDGE('',*,*,#337,.T.);
#558=ORIENTED_EDGE('',*,*,#340,.T.);
#559=ORIENTED_EDGE('',*,*,#343,.T.);
#560=ORIENTED_EDGE('',*,*,#346,.T.);
#561=ORIENTED_EDGE('',*,*,#352,.T.);
#562=ORIENTED_EDGE('',*,*,#362,.T.);
#563=ORIENTED_EDGE('',*,*,#359,.T.);
#564=ORIENTED_EDGE('',*,*,#356,.T.);
#565=ORIENTED_EDGE('',*,*,#365,.T.);
#566=ORIENTED_EDGE('',*,*,#375,.T.);
#567=ORIENTED_EDGE('',*,*,#372,.T.);
#568=ORIENTED_EDGE('',*,*,#369,.T.);
#569=ORIENTED_EDGE('',*,*,#378,.T.);
#570=ORIENTED_EDGE('',*,*,#388,.T.);
#571=ORIENTED_EDGE('',*,*,#385,.T.);
#572=ORIENTED_EDGE('',*,*,#382,.T.);
#573=ORIENTED_EDGE('',*,*,#391,.T.);
#574=ORIENTED_EDGE('',*,*,#401,.T.);
#575=ORIENTED_EDGE('',*,*,#398,.T.);
#576=ORIENTED_EDGE('',*,*,#395,.T.);
#577=PLANE('',#650);
#578=PLANE('',#653);
#579=PLANE('',#670);
#580=PLANE('',#671);
#581=PLANE('',#672);
#582=PLANE('',#673);
#583=PLANE('',#674);
#584=PLANE('',#676);
#585=PLANE('',#677);
#586=PLANE('',#678);
#587=PLANE('',#679);
#588=PLANE('',#680);
#589=PLANE('',#682);
#590=PLANE('',#683);
#591=PLANE('',#684);
#592=PLANE('',#685);
#593=PLANE('',#686);
#594=PLANE('',#688);
#595=PLANE('',#689);
#596=PLANE('',#690);
#597=PLANE('',#691);
#598=PLANE('',#692);
#599=PLANE('',#702);
#600=PLANE('',#706);
#601=ADVANCED_FACE('',(#166,#144),#577,.T.);
#602=ADVANCED_FACE('',(#167),#578,.T.);
#603=ADVANCED_FACE('',(#168),#133,.F.);
#604=ADVANCED_FACE('',(#169),#134,.F.);
#605=ADVANCED_FACE('',(#170),#135,.F.);
#606=ADVANCED_FACE('',(#171),#136,.F.);
#607=ADVANCED_FACE('',(#172),#137,.T.);
#608=ADVANCED_FACE('',(#173),#138,.T.);
#609=ADVANCED_FACE('',(#174),#579,.F.);
#610=ADVANCED_FACE('',(#175),#580,.F.);
#611=ADVANCED_FACE('',(#176),#581,.F.);
#612=ADVANCED_FACE('',(#177),#582,.F.);
#613=ADVANCED_FACE('',(#178,#145),#583,.F.);
#614=ADVANCED_FACE('',(#179),#584,.F.);
#615=ADVANCED_FACE('',(#180),#585,.F.);
#616=ADVANCED_FACE('',(#181),#586,.F.);
#617=ADVANCED_FACE('',(#182),#587,.F.);
#618=ADVANCED_FACE('',(#183,#146),#588,.F.);
#619=ADVANCED_FACE('',(#184),#589,.F.);
#620=ADVANCED_FACE('',(#185),#590,.F.);
#621=ADVANCED_FACE('',(#186),#591,.F.);
#622=ADVANCED_FACE('',(#187),#592,.F.);
#623=ADVANCED_FACE('',(#188,#147),#593,.F.);
#624=ADVANCED_FACE('',(#189),#594,.F.);
#625=ADVANCED_FACE('',(#190),#595,.F.);
#626=ADVANCED_FACE('',(#191),#596,.F.);
#627=ADVANCED_FACE('',(#192),#597,.F.);
#628=ADVANCED_FACE('',(#193,#148),#598,.F.);
#629=ADVANCED_FACE('',(#194),#139,.F.);
#630=ADVANCED_FACE('',(#195),#140,.F.);
#631=ADVANCED_FACE('',(#196),#141,.F.);
#632=ADVANCED_FACE('',(#197),#142,.F.);
#633=ADVANCED_FACE('',(#198,#149,#150,#151,#152,#153,#154,#155,#156,#157),
#599,.T.);
#634=ADVANCED_FACE('',(#199),#143,.T.);
#635=ADVANCED_FACE('',(#200,#158,#159,#160,#161,#162,#163,#164,#165),#600,
 .F.);
#636=CLOSED_SHELL('',(#601,#602,#603,#604,#605,#606,#607,#608,#609,#610,
#611,#612,#613,#614,#615,#616,#617,#618,#619,#620,#621,#622,#623,#624,#625,
#626,#627,#628,#629,#630,#631,#632,#633,#634,#635));
#637=DERIVED_UNIT_ELEMENT(#639,1.);
#638=DERIVED_UNIT_ELEMENT(#1058,-3.);
#639=(
MASS_UNIT()
NAMED_UNIT(*)
SI_UNIT(.KILO.,.GRAM.)
);
#640=DERIVED_UNIT((#637,#638));
#641=MEASURE_REPRESENTATION_ITEM('density measure',
POSITIVE_RATIO_MEASURE(7850.),#640);
#642=PROPERTY_DEFINITION_REPRESENTATION(#647,#644);
#643=PROPERTY_DEFINITION_REPRESENTATION(#648,#645);
#644=REPRESENTATION('material name',(#646),#1055);
#645=REPRESENTATION('density',(#641),#1055);
#646=DESCRIPTIVE_REPRESENTATION_ITEM('Steel','Steel');
#647=PROPERTY_DEFINITION('material property','material name',#1065);
#648=PROPERTY_DEFINITION('material property','density of part',#1065);
#649=AXIS2_PLACEMENT_3D('',#882,#707,#708);
#650=AXIS2_PLACEMENT_3D('',#883,#709,#710);
#651=AXIS2_PLACEMENT_3D('',#885,#711,#712);
#652=AXIS2_PLACEMENT_3D('',#887,#713,#714);
#653=AXIS2_PLACEMENT_3D('',#888,#715,#716);
#654=AXIS2_PLACEMENT_3D('',#890,#717,#718);
#655=AXIS2_PLACEMENT_3D('',#891,#719,#720);
#656=AXIS2_PLACEMENT_3D('',#893,#721,#722);
#657=AXIS2_PLACEMENT_3D('',#896,#724,#725);
#658=AXIS2_PLACEMENT_3D('',#897,#726,#727);
#659=AXIS2_PLACEMENT_3D('',#899,#728,#729);
#660=AXIS2_PLACEMENT_3D('',#902,#731,#732);
#661=AXIS2_PLACEMENT_3D('',#903,#733,#734);
#662=AXIS2_PLACEMENT_3D('',#905,#735,#736);
#663=AXIS2_PLACEMENT_3D('',#908,#738,#739);
#664=AXIS2_PLACEMENT_3D('',#909,#740,#741);
#665=AXIS2_PLACEMENT_3D('',#911,#742,#743);
#666=AXIS2_PLACEMENT_3D('',#914,#745,#746);
#667=AXIS2_PLACEMENT_3D('',#915,#747,#748);
#668=AXIS2_PLACEMENT_3D('',#917,#750,#751);
#669=AXIS2_PLACEMENT_3D('',#920,#753,#754);
#670=AXIS2_PLACEMENT_3D('',#921,#755,#756);
#671=AXIS2_PLACEMENT_3D('',#930,#761,#762);
#672=AXIS2_PLACEMENT_3D('',#936,#766,#767);
#673=AXIS2_PLACEMENT_3D('',#942,#771,#772);
#674=AXIS2_PLACEMENT_3D('',#945,#775,#776);
#675=AXIS2_PLACEMENT_3D('',#947,#777,#778);
#676=AXIS2_PLACEMENT_3D('',#948,#779,#780);
#677=AXIS2_PLACEMENT_3D('',#957,#785,#786);
#678=AXIS2_PLACEMENT_3D('',#963,#790,#791);
#679=AXIS2_PLACEMENT_3D('',#969,#795,#796);
#680=AXIS2_PLACEMENT_3D('',#972,#799,#800);
#681=AXIS2_PLACEMENT_3D('',#974,#801,#802);
#682=AXIS2_PLACEMENT_3D('',#975,#803,#804);
#683=AXIS2_PLACEMENT_3D('',#984,#809,#810);
#684=AXIS2_PLACEMENT_3D('',#990,#814,#815);
#685=AXIS2_PLACEMENT_3D('',#996,#819,#820);
#686=AXIS2_PLACEMENT_3D('',#999,#823,#824);
#687=AXIS2_PLACEMENT_3D('',#1001,#825,#826);
#688=AXIS2_PLACEMENT_3D('',#1002,#827,#828);
#689=AXIS2_PLACEMENT_3D('',#1011,#833,#834);
#690=AXIS2_PLACEMENT_3D('',#1017,#838,#839);
#691=AXIS2_PLACEMENT_3D('',#1023,#843,#844);
#692=AXIS2_PLACEMENT_3D('',#1026,#847,#848);
#693=AXIS2_PLACEMENT_3D('',#1028,#849,#850);
#694=AXIS2_PLACEMENT_3D('',#1029,#851,#852);
#695=AXIS2_PLACEMENT_3D('',#1032,#854,#855);
#696=AXIS2_PLACEMENT_3D('',#1033,#856,#857);
#697=AXIS2_PLACEMENT_3D('',#1036,#859,#860);
#698=AXIS2_PLACEMENT_3D('',#1037,#861,#862);
#699=AXIS2_PLACEMENT_3D('',#1040,#864,#865);
#700=AXIS2_PLACEMENT_3D('',#1041,#866,#867);
#701=AXIS2_PLACEMENT_3D('',#1044,#869,#870);
#702=AXIS2_PLACEMENT_3D('',#1045,#871,#872);
#703=AXIS2_PLACEMENT_3D('',#1047,#873,#874);
#704=AXIS2_PLACEMENT_3D('',#1048,#875,#876);
#705=AXIS2_PLACEMENT_3D('',#1051,#878,#879);
#706=AXIS2_PLACEMENT_3D('',#1052,#880,#881);
#707=DIRECTION('axis',(0.,0.,1.));
#708=DIRECTION('refdir',(1.,0.,0.));
#709=DIRECTION('center_axis',(0.,0.,1.));
#710=DIRECTION('ref_axis',(-1.,0.,0.));
#711=DIRECTION('center_axis',(0.,0.,1.));
#712=DIRECTION('ref_axis',(-1.,0.,0.));
#713=DIRECTION('center_axis',(0.,0.,1.));
#714=DIRECTION('ref_axis',(-1.,0.,0.));
#715=DIRECTION('center_axis',(0.,0.,1.));
#716=DIRECTION('ref_axis',(-1.,0.,0.));
#717=DIRECTION('center_axis',(0.,0.,1.));
#718=DIRECTION('ref_axis',(-1.,0.,0.));
#719=DIRECTION('center_axis',(0.,0.,1.));
#720=DIRECTION('ref_axis',(-1.,0.,0.));
#721=DIRECTION('center_axis',(0.,0.,1.));
#722=DIRECTION('ref_axis',(-1.,0.,0.));
#723=DIRECTION('',(0.,0.,1.));
#724=DIRECTION('center_axis',(0.,0.,-1.));
#725=DIRECTION('ref_axis',(-1.,0.,0.));
#726=DIRECTION('center_axis',(0.,0.,1.));
#727=DIRECTION('ref_axis',(-1.,0.,0.));
#728=DIRECTION('center_axis',(0.,0.,1.));
#729=DIRECTION('ref_axis',(-1.,0.,0.));
#730=DIRECTION('',(0.,0.,1.));
#731=DIRECTION('center_axis',(0.,0.,-1.));
#732=DIRECTION('ref_axis',(-1.,0.,0.));
#733=DIRECTION('center_axis',(0.,0.,1.));
#734=DIRECTION('ref_axis',(-1.,0.,0.));
#735=DIRECTION('center_axis',(0.,0.,1.));
#736=DIRECTION('ref_axis',(-1.,0.,0.));
#737=DIRECTION('',(0.,0.,1.));
#738=DIRECTION('center_axis',(0.,0.,-1.));
#739=DIRECTION('ref_axis',(-1.,0.,0.));
#740=DIRECTION('center_axis',(0.,0.,1.));
#741=DIRECTION('ref_axis',(-1.,0.,0.));
#742=DIRECTION('center_axis',(0.,0.,1.));
#743=DIRECTION('ref_axis',(-1.,0.,0.));
#744=DIRECTION('',(0.,0.,1.));
#745=DIRECTION('center_axis',(0.,0.,-1.));
#746=DIRECTION('ref_axis',(-1.,0.,0.));
#747=DIRECTION('center_axis',(0.,0.,-1.));
#748=DIRECTION('ref_axis',(-1.,0.,0.));
#749=DIRECTION('',(0.,0.,-1.));
#750=DIRECTION('center_axis',(0.,0.,1.));
#751=DIRECTION('ref_axis',(-1.,0.,0.));
#752=DIRECTION('',(0.,0.,-1.));
#753=DIRECTION('center_axis',(0.,0.,-1.));
#754=DIRECTION('ref_axis',(-1.,0.,0.));
#755=DIRECTION('center_axis',(1.,0.,0.));
#756=DIRECTION('ref_axis',(0.,1.,0.));
#757=DIRECTION('',(0.,-1.,0.));
#758=DIRECTION('',(0.,0.,-1.));
#759=DIRECTION('',(0.,-1.,0.));
#760=DIRECTION('',(0.,0.,-1.));
#761=DIRECTION('center_axis',(0.,-1.,0.));
#762=DIRECTION('ref_axis',(1.,0.,0.));
#763=DIRECTION('',(1.,0.,0.));
#764=DIRECTION('',(0.,0.,1.));
#765=DIRECTION('',(1.,0.,0.));
#766=DIRECTION('center_axis',(-1.,0.,0.));
#767=DIRECTION('ref_axis',(0.,-1.,0.));
#768=DIRECTION('',(0.,-1.,0.));
#769=DIRECTION('',(0.,0.,1.));
#770=DIRECTION('',(0.,-1.,0.));
#771=DIRECTION('center_axis',(0.,1.,0.));
#772=DIRECTION('ref_axis',(-1.,0.,0.));
#773=DIRECTION('',(1.,0.,0.));
#774=DIRECTION('',(1.,0.,0.));
#775=DIRECTION('center_axis',(0.,0.,1.));
#776=DIRECTION('ref_axis',(1.,0.,0.));
#777=DIRECTION('center_axis',(0.,0.,-1.));
#778=DIRECTION('ref_axis',(-1.,0.,0.));
#779=DIRECTION('center_axis',(1.,0.,0.));
#780=DIRECTION('ref_axis',(0.,1.,0.));
#781=DIRECTION('',(0.,1.,0.));
#782=DIRECTION('',(0.,0.,1.));
#783=DIRECTION('',(0.,1.,0.));
#784=DIRECTION('',(0.,0.,1.));
#785=DIRECTION('center_axis',(0.,-1.,0.));
#786=DIRECTION('ref_axis',(1.,0.,0.));
#787=DIRECTION('',(1.,0.,0.));
#788=DIRECTION('',(0.,0.,1.));
#789=DIRECTION('',(1.,0.,0.));
#790=DIRECTION('center_axis',(-1.,0.,0.));
#791=DIRECTION('ref_axis',(0.,-1.,0.));
#792=DIRECTION('',(0.,-1.,0.));
#793=DIRECTION('',(0.,0.,1.));
#794=DIRECTION('',(0.,-1.,0.));
#795=DIRECTION('center_axis',(0.,1.,0.));
#796=DIRECTION('ref_axis',(-1.,0.,0.));
#797=DIRECTION('',(-1.,0.,0.));
#798=DIRECTION('',(-1.,0.,0.));
#799=DIRECTION('center_axis',(0.,0.,1.));
#800=DIRECTION('ref_axis',(1.,0.,0.));
#801=DIRECTION('center_axis',(0.,0.,-1.));
#802=DIRECTION('ref_axis',(-1.,0.,0.));
#803=DIRECTION('center_axis',(1.,0.,0.));
#804=DIRECTION('ref_axis',(0.,1.,0.));
#805=DIRECTION('',(0.,1.,0.));
#806=DIRECTION('',(0.,0.,1.));
#807=DIRECTION('',(0.,1.,0.));
#808=DIRECTION('',(0.,0.,1.));
#809=DIRECTION('center_axis',(0.,-1.,0.));
#810=DIRECTION('ref_axis',(1.,0.,0.));
#811=DIRECTION('',(1.,0.,0.));
#812=DIRECTION('',(0.,0.,1.));
#813=DIRECTION('',(1.,0.,0.));
#814=DIRECTION('center_axis',(-1.,0.,0.));
#815=DIRECTION('ref_axis',(0.,-1.,0.));
#816=DIRECTION('',(0.,-1.,0.));
#817=DIRECTION('',(0.,0.,1.));
#818=DIRECTION('',(0.,-1.,0.));
#819=DIRECTION('center_axis',(0.,1.,0.));
#820=DIRECTION('ref_axis',(-1.,0.,0.));
#821=DIRECTION('',(-1.,0.,0.));
#822=DIRECTION('',(-1.,0.,0.));
#823=DIRECTION('center_axis',(0.,0.,1.));
#824=DIRECTION('ref_axis',(1.,0.,0.));
#825=DIRECTION('center_axis',(0.,0.,-1.));
#826=DIRECTION('ref_axis',(-1.,0.,0.));
#827=DIRECTION('center_axis',(0.,-1.,0.));
#828=DIRECTION('ref_axis',(1.,0.,0.));
#829=DIRECTION('',(1.,0.,0.));
#830=DIRECTION('',(0.,0.,1.));
#831=DIRECTION('',(1.,0.,0.));
#832=DIRECTION('',(0.,0.,1.));
#833=DIRECTION('center_axis',(-1.,0.,0.));
#834=DIRECTION('ref_axis',(0.,-1.,0.));
#835=DIRECTION('',(0.,-1.,0.));
#836=DIRECTION('',(0.,0.,1.));
#837=DIRECTION('',(0.,-1.,0.));
#838=DIRECTION('center_axis',(0.,1.,0.));
#839=DIRECTION('ref_axis',(-1.,0.,0.));
#840=DIRECTION('',(-1.,0.,0.));
#841=DIRECTION('',(0.,0.,1.));
#842=DIRECTION('',(-1.,0.,0.));
#843=DIRECTION('center_axis',(1.,0.,0.));
#844=DIRECTION('ref_axis',(0.,1.,0.));
#845=DIRECTION('',(0.,1.,0.));
#846=DIRECTION('',(0.,1.,0.));
#847=DIRECTION('center_axis',(0.,0.,1.));
#848=DIRECTION('ref_axis',(1.,0.,0.));
#849=DIRECTION('center_axis',(0.,0.,-1.));
#850=DIRECTION('ref_axis',(-1.,0.,0.));
#851=DIRECTION('center_axis',(0.,0.,1.));
#852=DIRECTION('ref_axis',(-1.,0.,0.));
#853=DIRECTION('',(0.,0.,1.));
#854=DIRECTION('center_axis',(0.,0.,-1.));
#855=DIRECTION('ref_axis',(-1.,0.,0.));
#856=DIRECTION('center_axis',(0.,0.,1.));
#857=DIRECTION('ref_axis',(-1.,0.,0.));
#858=DIRECTION('',(0.,0.,1.));
#859=DIRECTION('center_axis',(0.,0.,-1.));
#860=DIRECTION('ref_axis',(-1.,0.,0.));
#861=DIRECTION('center_axis',(0.,0.,1.));
#862=DIRECTION('ref_axis',(-1.,0.,0.));
#863=DIRECTION('',(0.,0.,1.));
#864=DIRECTION('center_axis',(0.,0.,-1.));
#865=DIRECTION('ref_axis',(-1.,0.,0.));
#866=DIRECTION('center_axis',(0.,0.,1.));
#867=DIRECTION('ref_axis',(-1.,0.,0.));
#868=DIRECTION('',(0.,0.,1.));
#869=DIRECTION('center_axis',(0.,0.,-1.));
#870=DIRECTION('ref_axis',(-1.,0.,0.));
#871=DIRECTION('center_axis',(0.,0.,1.));
#872=DIRECTION('ref_axis',(1.,0.,0.));
#873=DIRECTION('center_axis',(0.,0.,1.));
#874=DIRECTION('ref_axis',(1.,0.,0.));
#875=DIRECTION('center_axis',(0.,0.,1.));
#876=DIRECTION('ref_axis',(1.,0.,0.));
#877=DIRECTION('',(0.,0.,-1.));
#878=DIRECTION('center_axis',(0.,0.,1.));
#879=DIRECTION('ref_axis',(1.,0.,0.));
#880=DIRECTION('center_axis',(0.,0.,1.));
#881=DIRECTION('ref_axis',(1.,0.,0.));
#882=CARTESIAN_POINT('',(0.,0.,0.));
#883=CARTESIAN_POINT('Origin',(0.,0.,26.));
#884=CARTESIAN_POINT('',(14.85,1.81860049673382E-15,26.));
#885=CARTESIAN_POINT('Origin',(0.,0.,26.));
#886=CARTESIAN_POINT('',(12.5,1.53080849893419E-15,26.));
#887=CARTESIAN_POINT('Origin',(0.,0.,26.));
#888=CARTESIAN_POINT('Origin',(0.,0.,37.5));
#889=CARTESIAN_POINT('',(12.5,1.53080849893419E-15,37.5));
#890=CARTESIAN_POINT('Origin',(0.,0.,37.5));
#891=CARTESIAN_POINT('Origin',(50.,45.,5.));
#892=CARTESIAN_POINT('',(52.5,45.,0.));
#893=CARTESIAN_POINT('Origin',(50.,45.,0.));
#894=CARTESIAN_POINT('',(52.5,45.,10.));
#895=CARTESIAN_POINT('',(52.5,45.,5.));
#896=CARTESIAN_POINT('Origin',(50.,45.,10.));
#897=CARTESIAN_POINT('Origin',(-45.,45.,5.));
#898=CARTESIAN_POINT('',(-42.5,45.,0.));
#899=CARTESIAN_POINT('Origin',(-45.,45.,0.));
#900=CARTESIAN_POINT('',(-42.5,45.,10.));
#901=CARTESIAN_POINT('',(-42.5,45.,5.));
#902=CARTESIAN_POINT('Origin',(-45.,45.,10.));
#903=CARTESIAN_POINT('Origin',(-45.,-45.,5.));
#904=CARTESIAN_POINT('',(-42.5,-45.,0.));
#905=CARTESIAN_POINT('Origin',(-45.,-45.,0.));
#906=CARTESIAN_POINT('',(-42.5,-45.,10.));
#907=CARTESIAN_POINT('',(-42.5,-45.,5.));
#908=CARTESIAN_POINT('Origin',(-45.,-45.,10.));
#909=CARTESIAN_POINT('Origin',(50.,-45.,5.));
#910=CARTESIAN_POINT('',(52.5,-45.,0.));
#911=CARTESIAN_POINT('Origin',(50.,-45.,0.));
#912=CARTESIAN_POINT('',(52.5,-45.,10.));
#913=CARTESIAN_POINT('',(52.5,-45.,5.));
#914=CARTESIAN_POINT('Origin',(50.,-45.,10.));
#915=CARTESIAN_POINT('Origin',(0.,0.,32.5));
#916=CARTESIAN_POINT('',(12.5,-1.53080849893419E-15,32.5));
#917=CARTESIAN_POINT('Origin',(0.,0.,10.));
#918=CARTESIAN_POINT('',(14.85,1.81860049673382E-15,10.));
#919=CARTESIAN_POINT('',(14.85,1.81860049673382E-15,10.));
#920=CARTESIAN_POINT('Origin',(0.,0.,10.));
#921=CARTESIAN_POINT('Origin',(-53.0000008195639,-64.000000923872,0.));
#922=CARTESIAN_POINT('',(-53.0000008195639,-64.000000923872,0.));
#923=CARTESIAN_POINT('',(-53.0000008195639,-53.0000008195639,0.));
#924=CARTESIAN_POINT('',(-53.0000008195639,-32.000000461936,0.));
#925=CARTESIAN_POINT('',(-53.0000008195639,-64.000000923872,5.));
#926=CARTESIAN_POINT('',(-53.0000008195639,-64.000000923872,0.));
#927=CARTESIAN_POINT('',(-53.0000008195639,-53.0000008195639,5.));
#928=CARTESIAN_POINT('',(-53.0000008195639,-61.750000897795,5.));
#929=CARTESIAN_POINT('',(-53.0000008195639,-53.0000008195639,0.));
#930=CARTESIAN_POINT('Origin',(-64.000000923872,-64.000000923872,0.));
#931=CARTESIAN_POINT('',(-64.000000923872,-64.000000923872,0.));
#932=CARTESIAN_POINT('',(-32.000000461936,-64.000000923872,0.));
#933=CARTESIAN_POINT('',(-64.000000923872,-64.000000923872,5.));
#934=CARTESIAN_POINT('',(-64.000000923872,-64.000000923872,0.));
#935=CARTESIAN_POINT('',(-64.000000923872,-64.000000923872,5.));
#936=CARTESIAN_POINT('Origin',(-64.000000923872,-55.0000008195639,0.));
#937=CARTESIAN_POINT('',(-64.000000923872,-53.0000008195639,0.));
#938=CARTESIAN_POINT('',(-64.000000923872,-27.5000004097819,0.));
#939=CARTESIAN_POINT('',(-64.000000923872,-53.0000008195639,5.));
#940=CARTESIAN_POINT('',(-64.000000923872,-53.0000008195639,0.));
#941=CARTESIAN_POINT('',(-64.000000923872,-55.0000008195639,5.));
#942=CARTESIAN_POINT('Origin',(-55.0000008195639,-53.0000008195639,0.));
#943=CARTESIAN_POINT('',(-27.5000004097819,-53.0000008195639,0.));
#944=CARTESIAN_POINT('',(-57.2500008456409,-53.0000008195639,5.));
#945=CARTESIAN_POINT('Origin',(-59.5000008717179,-59.5000008717179,5.));
#946=CARTESIAN_POINT('',(-55.8363094478902,-58.3363094478902,5.));
#947=CARTESIAN_POINT('Origin',(-58.3363094478902,-58.3363094478902,5.));
#948=CARTESIAN_POINT('Origin',(64.000000923872,-64.000000923872,0.));
#949=CARTESIAN_POINT('',(64.000000923872,-64.000000923872,0.));
#950=CARTESIAN_POINT('',(64.000000923872,-53.0000008195639,0.));
#951=CARTESIAN_POINT('',(64.000000923872,-32.000000461936,0.));
#952=CARTESIAN_POINT('',(64.000000923872,-64.000000923872,5.));
#953=CARTESIAN_POINT('',(64.000000923872,-64.000000923872,0.));
#954=CARTESIAN_POINT('',(64.000000923872,-53.0000008195639,5.));
#955=CARTESIAN_POINT('',(64.000000923872,-64.000000923872,5.));
#956=CARTESIAN_POINT('',(64.000000923872,-53.0000008195639,0.));
#957=CARTESIAN_POINT('Origin',(53.0000008195639,-64.000000923872,0.));
#958=CARTESIAN_POINT('',(53.0000008195639,-64.000000923872,0.));
#959=CARTESIAN_POINT('',(26.5000004097819,-64.000000923872,0.));
#960=CARTESIAN_POINT('',(53.0000008195639,-64.000000923872,5.));
#961=CARTESIAN_POINT('',(53.0000008195639,-64.000000923872,0.));
#962=CARTESIAN_POINT('',(53.0000008195639,-64.000000923872,5.));
#963=CARTESIAN_POINT('Origin',(53.0000008195639,-53.0000008195639,0.));
#964=CARTESIAN_POINT('',(53.0000008195639,-53.0000008195639,0.));
#965=CARTESIAN_POINT('',(53.0000008195639,-26.5000004097819,0.));
#966=CARTESIAN_POINT('',(53.0000008195639,-53.0000008195639,5.));
#967=CARTESIAN_POINT('',(53.0000008195639,-53.0000008195639,0.));
#968=CARTESIAN_POINT('',(53.0000008195639,-53.0000008195639,5.));
#969=CARTESIAN_POINT('Origin',(64.000000923872,-53.0000008195639,0.));
#970=CARTESIAN_POINT('',(32.000000461936,-53.0000008195639,0.));
#971=CARTESIAN_POINT('',(64.000000923872,-53.0000008195639,5.));
#972=CARTESIAN_POINT('Origin',(58.5000008717179,-58.5000008717179,5.));
#973=CARTESIAN_POINT('',(60.8363094478902,-58.3363094478902,5.));
#974=CARTESIAN_POINT('Origin',(58.3363094478902,-58.3363094478902,5.));
#975=CARTESIAN_POINT('Origin',(-53.0000008195639,53.0000008195639,0.));
#976=CARTESIAN_POINT('',(-53.0000008195639,53.0000008195639,0.));
#977=CARTESIAN_POINT('',(-53.0000008195639,64.000000923872,0.));
#978=CARTESIAN_POINT('',(-53.0000008195639,26.5000004097819,0.));
#979=CARTESIAN_POINT('',(-53.0000008195639,53.0000008195639,5.));
#980=CARTESIAN_POINT('',(-53.0000008195639,53.0000008195639,0.));
#981=CARTESIAN_POINT('',(-53.0000008195639,64.000000923872,5.));
#982=CARTESIAN_POINT('',(-53.0000008195639,53.0000008195639,5.));
#983=CARTESIAN_POINT('',(-53.0000008195639,64.000000923872,0.));
#984=CARTESIAN_POINT('Origin',(-64.000000923872,53.0000008195639,0.));
#985=CARTESIAN_POINT('',(-64.000000923872,53.0000008195639,0.));
#986=CARTESIAN_POINT('',(-32.000000461936,53.0000008195639,0.));
#987=CARTESIAN_POINT('',(-64.000000923872,53.0000008195639,5.));
#988=CARTESIAN_POINT('',(-64.000000923872,53.0000008195639,0.));
#989=CARTESIAN_POINT('',(-64.000000923872,53.0000008195639,5.));
#990=CARTESIAN_POINT('Origin',(-64.000000923872,64.000000923872,0.));
#991=CARTESIAN_POINT('',(-64.000000923872,64.000000923872,0.));
#992=CARTESIAN_POINT('',(-64.000000923872,32.000000461936,0.));
#993=CARTESIAN_POINT('',(-64.000000923872,64.000000923872,5.));
#994=CARTESIAN_POINT('',(-64.000000923872,64.000000923872,0.));
#995=CARTESIAN_POINT('',(-64.000000923872,64.000000923872,5.));
#996=CARTESIAN_POINT('Origin',(-53.0000008195639,64.000000923872,0.));
#997=CARTESIAN_POINT('',(-26.5000004097819,64.000000923872,0.));
#998=CARTESIAN_POINT('',(-53.0000008195639,64.000000923872,5.));
#999=CARTESIAN_POINT('Origin',(-58.5000008717179,58.5000008717179,5.));
#1000=CARTESIAN_POINT('',(-55.8363094478902,58.3363094478902,5.));
#1001=CARTESIAN_POINT('Origin',(-58.3363094478902,58.3363094478902,5.));
#1002=CARTESIAN_POINT('Origin',(53.0000008195639,52.0000008046627,0.));
#1003=CARTESIAN_POINT('',(53.0000008195639,52.0000008046627,0.));
#1004=CARTESIAN_POINT('',(64.000000923872,52.0000008046627,0.));
#1005=CARTESIAN_POINT('',(26.5000004097819,52.0000008046627,0.));
#1006=CARTESIAN_POINT('',(53.0000008195639,52.0000008046627,5.));
#1007=CARTESIAN_POINT('',(53.0000008195639,52.0000008046627,0.));
#1008=CARTESIAN_POINT('',(64.000000923872,52.0000008046627,5.));
#1009=CARTESIAN_POINT('',(64.000000923872,52.0000008046627,5.));
#1010=CARTESIAN_POINT('',(64.000000923872,52.0000008046627,0.));
#1011=CARTESIAN_POINT('Origin',(53.0000008195639,64.0000009089708,0.));
#1012=CARTESIAN_POINT('',(53.0000008195639,64.0000009089708,0.));
#1013=CARTESIAN_POINT('',(53.0000008195639,32.0000004544854,0.));
#1014=CARTESIAN_POINT('',(53.0000008195639,64.0000009089708,5.));
#1015=CARTESIAN_POINT('',(53.0000008195639,64.0000009089708,0.));
#1016=CARTESIAN_POINT('',(53.0000008195639,52.0000008046627,5.));
#1017=CARTESIAN_POINT('Origin',(64.000000923872,64.0000009089708,0.));
#1018=CARTESIAN_POINT('',(64.000000923872,64.0000009089708,0.));
#1019=CARTESIAN_POINT('',(32.000000461936,64.0000009089708,0.));
#1020=CARTESIAN_POINT('',(64.000000923872,64.0000009089708,5.));
#1021=CARTESIAN_POINT('',(64.000000923872,64.0000009089708,0.));
#1022=CARTESIAN_POINT('',(53.0000008195639,64.0000009089708,5.));
#1023=CARTESIAN_POINT('Origin',(64.000000923872,52.0000008046627,0.));
#1024=CARTESIAN_POINT('',(64.000000923872,26.0000004023314,0.));
#1025=CARTESIAN_POINT('',(64.000000923872,64.0000009089708,5.));
#1026=CARTESIAN_POINT('Origin',(58.5000008717179,58.0000008568168,5.));
#1027=CARTESIAN_POINT('',(60.8363094478902,58.3363094478902,5.));
#1028=CARTESIAN_POINT('Origin',(58.3363094478902,58.3363094478902,5.));
#1029=CARTESIAN_POINT('Origin',(58.3363094478902,58.3363094478902,5.));
#1030=CARTESIAN_POINT('',(60.8363094478902,58.3363094478902,10.));
#1031=CARTESIAN_POINT('',(60.8363094478902,58.3363094478902,5.));
#1032=CARTESIAN_POINT('Origin',(58.3363094478902,58.3363094478902,10.));
#1033=CARTESIAN_POINT('Origin',(58.3363094478902,-58.3363094478902,5.));
#1034=CARTESIAN_POINT('',(60.8363094478902,-58.3363094478902,10.));
#1035=CARTESIAN_POINT('',(60.8363094478902,-58.3363094478902,5.));
#1036=CARTESIAN_POINT('Origin',(58.3363094478902,-58.3363094478902,10.));
#1037=CARTESIAN_POINT('Origin',(-58.3363094478902,-58.3363094478902,5.));
#1038=CARTESIAN_POINT('',(-55.8363094478902,-58.3363094478902,10.));
#1039=CARTESIAN_POINT('',(-55.8363094478902,-58.3363094478902,5.));
#1040=CARTESIAN_POINT('Origin',(-58.3363094478902,-58.3363094478902,10.));
#1041=CARTESIAN_POINT('Origin',(-58.3363094478902,58.3363094478902,5.));
#1042=CARTESIAN_POINT('',(-55.8363094478902,58.3363094478902,10.));
#1043=CARTESIAN_POINT('',(-55.8363094478902,58.3363094478902,5.));
#1044=CARTESIAN_POINT('Origin',(-58.3363094478902,58.3363094478902,10.));
#1045=CARTESIAN_POINT('Origin',(0.,0.,10.));
#1046=CARTESIAN_POINT('',(-92.5,-1.1327982892113E-14,10.));
#1047=CARTESIAN_POINT('Origin',(0.,0.,10.));
#1048=CARTESIAN_POINT('Origin',(0.,0.,0.));
#1049=CARTESIAN_POINT('',(-92.5,-1.1327982892113E-14,0.));
#1050=CARTESIAN_POINT('',(-92.5,-1.1327982892113E-14,0.));
#1051=CARTESIAN_POINT('Origin',(0.,0.,0.));
#1052=CARTESIAN_POINT('Origin',(0.,0.,0.));
#1053=UNCERTAINTY_MEASURE_WITH_UNIT(LENGTH_MEASURE(0.01),#1057,
'DISTANCE_ACCURACY_VALUE',
'Maximum model space distance between geometric entities at asserted c
onnectivities');
#1054=UNCERTAINTY_MEASURE_WITH_UNIT(LENGTH_MEASURE(0.01),#1057,
'DISTANCE_ACCURACY_VALUE',
'Maximum model space distance between geometric entities at asserted c
onnectivities');
#1055=(
GEOMETRIC_REPRESENTATION_CONTEXT(3)
GLOBAL_UNCERTAINTY_ASSIGNED_CONTEXT((#1053))
GLOBAL_UNIT_ASSIGNED_CONTEXT((#1057,#1059,#1060))
REPRESENTATION_CONTEXT('','3D')
);
#1056=(
GEOMETRIC_REPRESENTATION_CONTEXT(3)
GLOBAL_UNCERTAINTY_ASSIGNED_CONTEXT((#1054))
GLOBAL_UNIT_ASSIGNED_CONTEXT((#1057,#1059,#1060))
REPRESENTATION_CONTEXT('','3D')
);
#1057=(
LENGTH_UNIT()
NAMED_UNIT(*)
SI_UNIT(.MILLI.,.METRE.)
);
#1058=(
LENGTH_UNIT()
NAMED_UNIT(*)
SI_UNIT($,.METRE.)
);
#1059=(
NAMED_UNIT(*)
PLANE_ANGLE_UNIT()
SI_UNIT($,.RADIAN.)
);
#1060=(
NAMED_UNIT(*)
SI_UNIT($,.STERADIAN.)
SOLID_ANGLE_UNIT()
);
#1061=SHAPE_DEFINITION_REPRESENTATION(#1062,#1063);
#1062=PRODUCT_DEFINITION_SHAPE('',$,#1065);
#1063=SHAPE_REPRESENTATION('',(#649),#1055);
#1064=PRODUCT_DEFINITION_CONTEXT('part definition',#1069,'design');
#1065=PRODUCT_DEFINITION('Pan_mount_bottom','Pan_mount_bottom v1',#1066,
#1064);
#1066=PRODUCT_DEFINITION_FORMATION('',$,#1071);
#1067=PRODUCT_RELATED_PRODUCT_CATEGORY('Pan_mount_bottom v1',
'Pan_mount_bottom v1',(#1071));
#1068=APPLICATION_PROTOCOL_DEFINITION('international standard',
'automotive_design',2009,#1069);
#1069=APPLICATION_CONTEXT(
'Core Data for Automotive Mechanical Design Process');
#1070=PRODUCT_CONTEXT('part definition',#1069,'mechanical');
#1071=PRODUCT('Pan_mount_bottom','Pan_mount_bottom v1',$,(#1070));
#1072=PRESENTATION_STYLE_ASSIGNMENT((#1073));
#1073=SURFACE_STYLE_USAGE(.BOTH.,#1074);
#1074=SURFACE_SIDE_STYLE('',(#1075));
#1075=SURFACE_STYLE_FILL_AREA(#1076);
#1076=FILL_AREA_STYLE('Steel - Satin',(#1077));
#1077=FILL_AREA_STYLE_COLOUR('Steel - Satin',#1078);
#1078=COLOUR_RGB('Steel - Satin',0.627450980392157,0.627450980392157,0.627450980392157);
ENDSEC;
END-ISO-10303-21;
